  0
SECTION
  2
HEADER
  9
$ACADVER
  1
AC1032
  9
$ACADMAINTVER
 90
        4
  9
$DWGCODEPAGE
  3
ANSI_936
  9
$LASTSAVEDBY
  1
训教
  9
$REQUIREDVERSIONS
160
                 0
  9
$INSBASE
 10
0.0
 20
0.0
 30
0.0
  9
$EXTMIN
 10
1.0
 20
-24201.588
 30
0.0
  9
$EXTMAX
 10
194.34
 20
-0.0099999999999909
 30
0.0
  9
$LIMMIN
 10
0.0
 20
0.0
  9
$LIMMAX
 10
12.0
 20
9.0
  9
$ORTHOMODE
 70
     0
  9
$REGENMODE
 70
     1
  9
$FILLMODE
 70
     1
  9
$QTEXTMODE
 70
     0
  9
$MIRRTEXT
 70
     0
  9
$LTSCALE
 40
1.0
  9
$ATTMODE
 70
     1
  9
$TEXTSIZE
 40
0.2
  9
$TRACEWID
 40
0.05
  9
$TEXTSTYLE
  7
Standard
  9
$CLAYER
  8
XSECTION
  9
$CELTYPE
  6
Continuous
  9
$CECOLOR
 62
   256
  9
$CELTSCALE
 40
1.0
  9
$DISPSILH
 70
     0
  9
$DIMSCALE
 40
1.0
  9
$DIMASZ
 40
0.18
  9
$DIMEXO
 40
0.0625
  9
$DIMDLI
 40
0.38
  9
$DIMRND
 40
0.0
  9
$DIMDLE
 40
0.0
  9
$DIMEXE
 40
0.18
  9
$DIMTP
 40
0.0
  9
$DIMTM
 40
0.0
  9
$DIMTXT
 40
0.18
  9
$DIMCEN
 40
0.09
  9
$DIMTSZ
 40
0.0
  9
$DIMTOL
 70
     0
  9
$DIMLIM
 70
     0
  9
$DIMTIH
 70
     1
  9
$DIMTOH
 70
     1
  9
$DIMSE1
 70
     0
  9
$DIMSE2
 70
     0
  9
$DIMTAD
 70
     0
  9
$DIMZIN
 70
     0
  9
$DIMBLK
  1

  9
$DIMASO
 70
     1
  9
$DIMSHO
 70
     1
  9
$DIMPOST
  1

  9
$DIMAPOST
  1

  9
$DIMALT
 70
     0
  9
$DIMALTD
 70
     2
  9
$DIMALTF
 40
25.4
  9
$DIMLFAC
 40
1.0
  9
$DIMTOFL
 70
     0
  9
$DIMTVP
 40
0.0
  9
$DIMTIX
 70
     0
  9
$DIMSOXD
 70
     0
  9
$DIMSAH
 70
     0
  9
$DIMBLK1
  1

  9
$DIMBLK2
  1

  9
$DIMSTYLE
  2
Standard
  9
$DIMCLRD
 70
     0
  9
$DIMCLRE
 70
     0
  9
$DIMCLRT
 70
     0
  9
$DIMTFAC
 40
1.0
  9
$DIMGAP
 40
0.09
  9
$DIMJUST
 70
     0
  9
$DIMSD1
 70
     0
  9
$DIMSD2
 70
     0
  9
$DIMTOLJ
 70
     1
  9
$DIMTZIN
 70
     0
  9
$DIMALTZ
 70
     0
  9
$DIMALTTZ
 70
     0
  9
$DIMUPT
 70
     0
  9
$DIMDEC
 70
     4
  9
$DIMTDEC
 70
     4
  9
$DIMALTU
 70
     2
  9
$DIMALTTD
 70
     2
  9
$DIMTXSTY
  7
Standard
  9
$DIMAUNIT
 70
     0
  9
$DIMADEC
 70
     0
  9
$DIMALTRND
 40
0.0
  9
$DIMAZIN
 70
     0
  9
$DIMDSEP
 70
    46
  9
$DIMATFIT
 70
     3
  9
$DIMFRAC
 70
     0
  9
$DIMLDRBLK
  1

  9
$DIMLUNIT
 70
     2
  9
$DIMLWD
 70
    -2
  9
$DIMLWE
 70
    -2
  9
$DIMTMOVE
 70
     0
  9
$DIMFXL
 40
1.0
  9
$DIMFXLON
 70
     0
  9
$DIMJOGANG
 40
0.7853981633974483
  9
$DIMTFILL
 70
     0
  9
$DIMTFILLCLR
 70
     0
  9
$DIMARCSYM
 70
     0
  9
$DIMLTYPE
  6

  9
$DIMLTEX1
  6

  9
$DIMLTEX2
  6

  9
$DIMTXTDIRECTION
 70
     0
  9
$LUNITS
 70
     2
  9
$LUPREC
 70
     4
  9
$SKETCHINC
 40
0.1
  9
$FILLETRAD
 40
0.0
  9
$AUNITS
 70
     0
  9
$AUPREC
 70
     0
  9
$MENU
  1

  9
$ELEVATION
 40
0.0
  9
$PELEVATION
 40
0.0
  9
$THICKNESS
 40
0.0
  9
$LIMCHECK
 70
     0
  9
$CHAMFERA
 40
0.0
  9
$CHAMFERB
 40
0.0
  9
$CHAMFERC
 40
0.0
  9
$CHAMFERD
 40
0.0
  9
$SKPOLY
 70
     0
  9
$TDCREATE
 40
2461068.451371342
  9
$TDUCREATE
 40
2461068.118038009
  9
$TDUPDATE
 40
2461068.495610660
  9
$TDUUPDATE
 40
2461068.162277326
  9
$TDINDWG
 40
0.044250058
  9
$TDUSRTIMER
 40
2461068.162277778
  9
$USRTIMER
 70
     1
  9
$ANGBASE
 50
0.0
  9
$ANGDIR
 70
     0
  9
$PDMODE
 70
     0
  9
$PDSIZE
 40
0.0
  9
$PLINEWID
 40
0.0
  9
$SPLFRAME
 70
     0
  9
$SPLINETYPE
 70
     6
  9
$SPLINESEGS
 70
     8
  9
$HANDSEED
  5
87D7
  9
$SURFTAB1
 70
     6
  9
$SURFTAB2
 70
     6
  9
$SURFTYPE
 70
     6
  9
$SURFU
 70
     6
  9
$SURFV
 70
     6
  9
$UCSBASE
  2

  9
$UCSNAME
  2

  9
$UCSORG
 10
0.0
 20
0.0
 30
0.0
  9
$UCSXDIR
 10
1.0
 20
0.0
 30
0.0
  9
$UCSYDIR
 10
0.0
 20
1.0
 30
0.0
  9
$UCSORTHOREF
  2

  9
$UCSORTHOVIEW
 70
     0
  9
$UCSORGTOP
 10
0.0
 20
0.0
 30
0.0
  9
$UCSORGBOTTOM
 10
0.0
 20
0.0
 30
0.0
  9
$UCSORGLEFT
 10
0.0
 20
0.0
 30
0.0
  9
$UCSORGRIGHT
 10
0.0
 20
0.0
 30
0.0
  9
$UCSORGFRONT
 10
0.0
 20
0.0
 30
0.0
  9
$UCSORGBACK
 10
0.0
 20
0.0
 30
0.0
  9
$PUCSBASE
  2

  9
$PUCSNAME
  2

  9
$PUCSORG
 10
0.0
 20
0.0
 30
0.0
  9
$PUCSXDIR
 10
1.0
 20
0.0
 30
0.0
  9
$PUCSYDIR
 10
0.0
 20
1.0
 30
0.0
  9
$PUCSORTHOREF
  2

  9
$PUCSORTHOVIEW
 70
     0
  9
$PUCSORGTOP
 10
0.0
 20
0.0
 30
0.0
  9
$PUCSORGBOTTOM
 10
0.0
 20
0.0
 30
0.0
  9
$PUCSORGLEFT
 10
0.0
 20
0.0
 30
0.0
  9
$PUCSORGRIGHT
 10
0.0
 20
0.0
 30
0.0
  9
$PUCSORGFRONT
 10
0.0
 20
0.0
 30
0.0
  9
$PUCSORGBACK
 10
0.0
 20
0.0
 30
0.0
  9
$USERI1
 70
     0
  9
$USERI2
 70
     0
  9
$USERI3
 70
     0
  9
$USERI4
 70
     0
  9
$USERI5
 70
     0
  9
$USERR1
 40
0.0
  9
$USERR2
 40
0.0
  9
$USERR3
 40
0.0
  9
$USERR4
 40
0.0
  9
$USERR5
 40
0.0
  9
$WORLDVIEW
 70
     1
  9
$SHADEDGE
 70
     3
  9
$SHADEDIF
 70
    70
  9
$TILEMODE
 70
     1
  9
$MAXACTVP
 70
    64
  9
$PINSBASE
 10
0.0
 20
0.0
 30
0.0
  9
$PLIMCHECK
 70
     0
  9
$PEXTMIN
 10
1.000000000000000E+20
 20
1.000000000000000E+20
 30
1.000000000000000E+20
  9
$PEXTMAX
 10
-1.000000000000000E+20
 20
-1.000000000000000E+20
 30
-1.000000000000000E+20
  9
$PLIMMIN
 10
0.0
 20
0.0
  9
$PLIMMAX
 10
12.0
 20
9.0
  9
$UNITMODE
 70
     0
  9
$VISRETAIN
 70
     1
  9
$PLINEGEN
 70
     0
  9
$PSLTSCALE
 70
     1
  9
$TREEDEPTH
 70
  3020
  9
$CMLSTYLE
  2
Standard
  9
$CMLJUST
 70
     0
  9
$CMLSCALE
 40
1.0
  9
$PROXYGRAPHICS
 70
     1
  9
$MEASUREMENT
 70
     0
  9
$CELWEIGHT
370
    -1
  9
$ENDCAPS
280
     0
  9
$JOINSTYLE
280
     0
  9
$LWDISPLAY
290
     0
  9
$INSUNITS
 70
     0
  9
$HYPERLINKBASE
  1

  9
$STYLESHEET
  1

  9
$XEDIT
290
     1
  9
$CEPSNTYPE
380
     0
  9
$PSTYLEMODE
290
     1
  9
$FINGERPRINTGUID
  2
{E8BE3E18-3E7F-4621-98FE-28021CC6D561}
  9
$VERSIONGUID
  2
{0EE5B8DE-0C6F-4A92-976A-7E0A0DF4AB33}
  9
$EXTNAMES
290
     1
  9
$PSVPSCALE
 40
0.0
  9
$OLESTARTUP
290
     0
  9
$SORTENTS
280
   127
  9
$INDEXCTL
280
     0
  9
$HIDETEXT
280
     1
  9
$XCLIPFRAME
280
     2
  9
$HALOGAP
280
     0
  9
$OBSCOLOR
 70
   257
  9
$OBSLTYPE
280
     0
  9
$INTERSECTIONDISPLAY
280
     0
  9
$INTERSECTIONCOLOR
 70
   257
  9
$DIMASSOC
280
     2
  9
$PROJECTNAME
  1

  9
$CAMERADISPLAY
290
     0
  9
$LENSLENGTH
 40
50.0
  9
$CAMERAHEIGHT
 40
0.0
  9
$STEPSPERSEC
 40
2.0
  9
$STEPSIZE
 40
6.0
  9
$3DDWFPREC
 40
2.0
  9
$PSOLWIDTH
 40
0.25
  9
$PSOLHEIGHT
 40
4.0
  9
$LOFTANG1
 40
1.570796326794896
  9
$LOFTANG2
 40
1.570796326794896
  9
$LOFTMAG1
 40
0.0
  9
$LOFTMAG2
 40
0.0
  9
$LOFTPARAM
 70
     7
  9
$LOFTNORMALS
280
     1
  9
$LATITUDE
 40
0.0
  9
$LONGITUDE
 40
0.0
  9
$NORTHDIRECTION
 40
0.0
  9
$TIMEZONE
 70
 -8000
  9
$LIGHTGLYPHDISPLAY
280
     1
  9
$TILEMODELIGHTSYNCH
280
     1
  9
$CMATERIAL
347
1C
  9
$SOLIDHIST
280
     0
  9
$SHOWHIST
280
     1
  9
$DWFFRAME
280
     2
  9
$DGNFRAME
280
     0
  9
$REALWORLDSCALE
290
     1
  9
$INTERFERECOLOR
 62
     1
  9
$CSHADOW
280
     0
  9
$SHADOWPLANELOCATION
 40
0.0
  0
ENDSEC
  0
SECTION
  2
CLASSES
  0
CLASS
  1
ACDBDICTIONARYWDFLT
  2
AcDbDictionaryWithDefault
  3
ObjectDBX Classes
 90
    32768
 91
        1
280
     0
281
     0
  0
CLASS
  1
MATERIAL
  2
AcDbMaterial
  3
ObjectDBX Classes
 90
        0
 91
        3
280
     0
281
     0
  0
CLASS
  1
TABLESTYLE
  2
AcDbTableStyle
  3
ObjectDBX Classes
 90
     2047
 91
        1
280
     0
281
     0
  0
CLASS
  1
MLEADERSTYLE
  2
AcDbMLeaderStyle
  3
ACDB_MLEADERSTYLE_CLASS
 90
     4095
 91
        1
280
     0
281
     0
  0
CLASS
  1
SCALE
  2
AcDbScale
  3
ObjectDBX Classes
 90
     1153
 91
       17
280
     0
281
     0
  0
CLASS
  1
VISUALSTYLE
  2
AcDbVisualStyle
  3
ObjectDBX Classes
 90
     4095
 91
       24
280
     0
281
     0
  0
CLASS
  1
DICTIONARYVAR
  2
AcDbDictionaryVar
  3
ObjectDBX Classes
 90
        0
 91
        4
280
     0
281
     0
  0
CLASS
  1
CELLSTYLEMAP
  2
AcDbCellStyleMap
  3
ObjectDBX Classes
 90
     1152
 91
        3
280
     0
281
     0
  0
ENDSEC
  0
SECTION
  2
TABLES
  0
TABLE
  2
VPORT
  5
6
330
0
100
AcDbSymbolTable
 70
     1
  0
VPORT
  5
3F
330
6
100
AcDbSymbolTableRecord
100
AcDbViewportTableRecord
  2
*Active
 70
     0
 10
0.0
 20
0.0
 11
1.0
 21
1.0
 12
201.3333702519457
 22
-252.196939875309
 13
0.0
 23
0.0
 14
0.5
 24
0.5
 15
0.5
 25
0.5
 16
0.0
 26
0.0
 36
1.0
 17
0.0
 27
0.0
 37
0.0
 40
207.6180480000003
 41
2.411061285500747
 42
50.0
 43
0.0
 44
0.0
 50
0.0
 51
0.0
 71
    16
 72
  1000
 73
     1
 74
     3
 75
     0
 76
     0
 77
     0
 78
     0
281
     0
 65
     1
110
0.0
120
0.0
130
0.0
111
1.0
121
0.0
131
0.0
112
0.0
122
1.0
132
0.0
 79
     0
146
0.0
348
87B2
 60
     3
 61
     5
292
     1
282
     1
141
0.0
142
0.0
 63
   250
  0
ENDTAB
  0
TABLE
  2
LTYPE
  5
2
330
0
100
AcDbSymbolTable
 70
     1
  0
LTYPE
  5
F
330
2
100
AcDbSymbolTableRecord
100
AcDbLinetypeTableRecord
  2
ByBlock
 70
     0
  3

 72
     0
 73
     0
 40
0.0
  0
LTYPE
  5
10
330
2
100
AcDbSymbolTableRecord
100
AcDbLinetypeTableRecord
  2
ByLayer
 70
     0
  3

 72
    96
 73
     0
 40
0.0
  0
LTYPE
  5
11
330
2
100
AcDbSymbolTableRecord
100
AcDbLinetypeTableRecord
  2
Continuous
 70
     0
  3
Solid line
 72
    65
 73
     0
 40
0.0
  0
ENDTAB
  0
TABLE
  2
LAYER
  5
3
330
0
100
AcDbSymbolTable
 70
     3
  0
LAYER
  5
12
330
3
100
AcDbSymbolTableRecord
100
AcDbLayerTableRecord
  2
0
 70
     0
 62
    -7
  6
Continuous
370
    -3
390
16
347
1E
348
0
  0
LAYER
  5
87C7
330
3
100
AcDbSymbolTableRecord
100
AcDbLayerTableRecord
  2
XSECTION
 70
     0
 62
     7
  6
Continuous
370
    -3
390
16
347
1E
348
0
  0
LAYER
  5
87C8
330
3
100
AcDbSymbolTableRecord
100
AcDbLayerTableRecord
  2
LABELS
 70
     0
 62
     7
  6
Continuous
370
    -3
390
16
347
1E
348
0
  0
ENDTAB
  0
TABLE
  2
STYLE
  5
9
330
0
100
AcDbSymbolTable
 70
     2
  0
STYLE
  5
A
330
9
100
AcDbSymbolTableRecord
100
AcDbTextStyleTableRecord
  2
Standard
 70
     0
 40
0.0
 41
1.0
 50
0.0
 71
     0
 42
0.2
  3
txt.shx
  4

  0
STYLE
  5
B
330
9
100
AcDbSymbolTableRecord
100
AcDbTextStyleTableRecord
  2
Annotative
 70
     0
 40
0.0
 41
1.0
 50
0.0
 71
     0
 42
0.2
  3
txt.shx
  4

1001
AcadAnnotative
1000
AnnotativeData
1002
{
1070
     1
1070
     1
1002
}
  0
ENDTAB
  0
TABLE
  2
VIEW
  5
4
330
0
100
AcDbSymbolTable
 70
     0
  0
ENDTAB
  0
TABLE
  2
UCS
  5
5
330
0
100
AcDbSymbolTable
 70
     0
  0
ENDTAB
  0
TABLE
  2
APPID
  5
7
330
0
100
AcDbSymbolTable
 70
     2
  0
APPID
  5
8
330
7
100
AcDbSymbolTableRecord
100
AcDbRegAppTableRecord
  2
ACAD
 70
     0
  0
APPID
  5
C
330
7
100
AcDbSymbolTableRecord
100
AcDbRegAppTableRecord
  2
AcadAnnotative
 70
     0
  0
ENDTAB
  0
TABLE
  2
DIMSTYLE
  5
D
330
0
100
AcDbSymbolTable
 70
     1
100
AcDbDimStyleTable
 71
     1
340
3E
  0
DIMSTYLE
105
3E
330
D
100
AcDbSymbolTableRecord
100
AcDbDimStyleTableRecord
  2
Standard
 70
     0
340
A
  0
ENDTAB
  0
TABLE
  2
BLOCK_RECORD
  5
1
330
0
100
AcDbSymbolTable
 70
     0
  0
BLOCK_RECORD
  5
28
330
1
100
AcDbSymbolTableRecord
100
AcDbBlockTableRecord
  2
*MODEL_SPACE
340
2B
 70
     0
280
     1
281
     0
  0
BLOCK_RECORD
  5
24
330
1
100
AcDbSymbolTableRecord
100
AcDbBlockTableRecord
  2
*PAPER_SPACE
340
27
 70
     0
280
     1
281
     0
  0
ENDTAB
  0
ENDSEC
  0
SECTION
  2
BLOCKS
  0
BLOCK
  5
29
330
28
100
AcDbEntity
  8
0
100
AcDbBlockBegin
  2
*MODEL_SPACE
 70
     0
 10
0.0
 20
0.0
 30
0.0
  3
*MODEL_SPACE
  1

  0
ENDBLK
  5
2A
330
28
100
AcDbEntity
  8
0
100
AcDbBlockEnd
  0
BLOCK
  5
25
330
24
100
AcDbEntity
 67
     1
  8
0
100
AcDbBlockBegin
  2
*PAPER_SPACE
 70
     0
 10
0.0
 20
0.0
 30
0.0
  3
*PAPER_SPACE
  1

  0
ENDBLK
  5
26
330
24
100
AcDbEntity
 67
     1
  8
0
100
AcDbBlockEnd
  0
ENDSEC
  0
SECTION
  2
ENTITIES
  0
LWPOLYLINE
  5
40
330
28
100
AcDbEntity
  8
XSECTION
  6
Continuous
 62
     0
100
AcDbPolyline
 90
        5
 70
     0
 43
0.0
 10
1.0
 20
-0.01
 10
171.003
 20
-0.01
 10
171.003
 20
-148.476
 10
1.0
 20
-148.476
 10
1.0
 20
-0.01
  0
LWPOLYLINE
  5
47
330
28
100
AcDbEntity
  8
XSECTION
  6
Continuous
 62
     0
100
AcDbPolyline
 90
        5
 70
     0
 43
0.0
 10
7.296
 20
-35.298
 10
164.707
 20
-35.298
 10
164.707
 20
-135.298
 10
7.296
 20
-135.298
 10
7.296
 20
-35.298
  0
TEXT
  5
4E
330
28
100
AcDbEntity
  8
LABELS
 62
     0
100
AcDbText
 10
1.850999999999999
 20
-4.00922
 30
0.0
 40
3.148219999999999
  1
X: 505247.49
 41
0.666666667
100
AcDbText
  0
TEXT
  5
4F
330
28
100
AcDbEntity
  8
LABELS
 62
     0
100
AcDbText
 10
35.681
 20
-4.00922
 30
0.0
 40
3.148219999999999
  1
67+750.TIN
 41
0.666666667
100
AcDbText
  0
TEXT
  5
50
330
28
100
AcDbEntity
  8
LABELS
 62
     0
100
AcDbText
 10
69.511
 20
-4.00922
 30
0.0
 40
3.148219999999999
  1
Length: 425.00
 41
0.666666667
100
AcDbText
  0
TEXT
  5
51
330
28
100
AcDbEntity
  8
LABELS
 62
     0
100
AcDbText
 10
103.341
 20
-4.00922
 30
0.0
 40
3.148219999999999
  1
Azimuth: 113.99
 41
0.666666667
100
AcDbText
  0
TEXT
  5
52
330
28
100
AcDbEntity
  8
LABELS
 62
     0
100
AcDbText
 10
137.171
 20
-4.00922
 30
0.0
 40
3.148219999999999
  1
X: 505635.79
 41
0.666666667
100
AcDbText
  0
TEXT
  5
53
330
28
100
AcDbEntity
  8
LABELS
 62
     0
100
AcDbText
 10
1.850999999999999
 20
-9.53522
 30
0.0
 40
3.148219999999999
  1
Y: 2375202.23
 41
0.666666667
100
AcDbText
  0
TEXT
  5
54
330
28
100
AcDbEntity
  8
LABELS
 62
     0
100
AcDbText
 10
137.171
 20
-9.53522
 30
0.0
 40
3.148219999999999
  1
Y: 2375029.46
 41
0.666666667
100
AcDbText
  0
LWPOLYLINE
  5
55
330
28
100
AcDbEntity
  8
XSECTION
  6
Continuous
 62
     0
100
AcDbPolyline
 90
        2
 70
     0
 43
0.0
 10
15.167
 20
-35.298
 10
15.167
 20
-41.23599999999999
  0
LWPOLYLINE
  5
59
330
28
100
AcDbEntity
  8
XSECTION
  6
Continuous
 62
     0
100
AcDbPolyline
 90
        2
 70
     0
 43
0.0
 10
15.167
 20
-135.298
 10
15.167
 20
-129.36
  0
TEXT
  5
5D
330
28
100
AcDbEntity
  8
LABELS
 62
     0
100
AcDbText
 10
7.820999999999999
 20
-30.79422
 30
0.0
 40
3.148219999999999
  1
-212.51
 41
0.666666667
100
AcDbText
  0
LWPOLYLINE
  5
5E
330
28
100
AcDbEntity
  8
XSECTION
  6
Continuous
 62
     0
100
AcDbPolyline
 90
        2
 70
     0
 43
0.0
 10
46.833
 20
-35.298
 10
46.833
 20
-41.23599999999999
  0
LWPOLYLINE
  5
62
330
28
100
AcDbEntity
  8
XSECTION
  6
Continuous
 62
     0
100
AcDbPolyline
 90
        2
 70
     0
 43
0.0
 10
46.833
 20
-135.298
 10
46.833
 20
-129.36
  0
TEXT
  5
66
330
28
100
AcDbEntity
  8
LABELS
 62
     0
100
AcDbText
 10
39.487
 20
-30.79422
 30
0.0
 40
3.148219999999999
  1
-117.51
 41
0.666666667
100
AcDbText
  0
LWPOLYLINE
  5
67
330
28
100
AcDbEntity
  8
XSECTION
  6
Continuous
 62
     0
100
AcDbPolyline
 90
        2
 70
     0
 43
0.0
 10
86.003
 20
-35.298
 10
86.003
 20
-41.23599999999999
  0
LWPOLYLINE
  5
6B
330
28
100
AcDbEntity
  8
XSECTION
  6
Continuous
 62
     0
100
AcDbPolyline
 90
        2
 70
     0
 43
0.0
 10
86.003
 20
-135.298
 10
86.003
 20
-129.36
  0
TEXT
  5
6F
330
28
100
AcDbEntity
  8
LABELS
 62
     0
100
AcDbText
 10
81.806
 20
-30.79422
 30
0.0
 40
3.148219999999999
  1
0.00
 41
0.666666667
100
AcDbText
  0
LWPOLYLINE
  5
70
330
28
100
AcDbEntity
  8
XSECTION
  6
Continuous
 62
     0
100
AcDbPolyline
 90
        2
 70
     0
 43
0.0
 10
125.17
 20
-35.298
 10
125.17
 20
-41.23599999999999
  0
LWPOLYLINE
  5
74
330
28
100
AcDbEntity
  8
XSECTION
  6
Continuous
 62
     0
100
AcDbPolyline
 90
        2
 70
     0
 43
0.0
 10
125.17
 20
-135.298
 10
125.17
 20
-129.36
  0
TEXT
  5
78
330
28
100
AcDbEntity
  8
LABELS
 62
     0
100
AcDbText
 10
118.874
 20
-30.79422
 30
0.0
 40
3.148219999999999
  1
117.50
 41
0.666666667
100
AcDbText
  0
LWPOLYLINE
  5
79
330
28
100
AcDbEntity
  8
XSECTION
  6
Continuous
 62
     0
100
AcDbPolyline
 90
        2
 70
     0
 43
0.0
 10
156.8369999999999
 20
-35.298
 10
156.8369999999999
 20
-41.23599999999999
  0
LWPOLYLINE
  5
7D
330
28
100
AcDbEntity
  8
XSECTION
  6
Continuous
 62
     0
100
AcDbPolyline
 90
        2
 70
     0
 43
0.0
 10
156.8369999999999
 20
-135.298
 10
156.8369999999999
 20
-129.36
  0
TEXT
  5
81
330
28
100
AcDbEntity
  8
LABELS
 62
     0
100
AcDbText
 10
150.541
 20
-30.79422
 30
0.0
 40
3.148219999999999
  1
212.50
 41
0.666666667
100
AcDbText
  0
TEXT
  5
82
330
28
100
AcDbEntity
  8
LABELS
 62
     0
100
AcDbText
 10
1.850999999999999
 20
-15.06222
 30
0.0
 40
3.148219999999999
  1
DBL
 41
0.666666667
100
AcDbText
  0
TEXT
  5
83
330
28
100
AcDbEntity
  8
LABELS
 62
     0
100
AcDbText
 10
1.850999999999999
 20
-20.16322
 30
0.0
 40
3.148219999999999
  1
Tmp
 41
0.666666667
100
AcDbText
  0
TEXT
  5
84
330
28
100
AcDbEntity
  8
LABELS
 62
     1
100
AcDbText
 10
1.850999999999999
 20
-25.26422
 30
0.0
 40
3.148219999999999
  1
1
 41
0.666666667
100
AcDbText
  0
LWPOLYLINE
  5
85
330
28
100
AcDbEntity
  8
XSECTION
  6
Continuous
 62
     0
100
AcDbPolyline
 90
        2
 70
     0
 43
0.0
 10
86.003
 20
-135.298
 10
86.003
 20
-11.063
  0
TEXT
  5
89
330
28
100
AcDbEntity
  8
LABELS
 62
     0
100
AcDbText
 10
86.85399999999999
 20
-15.06222
 30
0.0
 40
3.148219999999999
  1
0.00
 41
0.666666667
100
AcDbText
  0
TEXT
  5
8A
330
28
100
AcDbEntity
  8
LABELS
 62
     0
100
AcDbText
 10
86.85399999999999
 20
-20.16322
 30
0.0
 40
3.148219999999999
  1
19.00
 41
0.666666667
100
AcDbText
  0
TEXT
  5
8B
330
28
100
AcDbEntity
  8
LABELS
 62
     1
100
AcDbText
 10
86.85399999999999
 20
-25.26422
 30
0.0
 40
3.148219999999999
  1
17.05
 41
0.666666667
100
AcDbText
  0
LWPOLYLINE
  5
8C
330
28
100
AcDbEntity
  8
XSECTION
  6
Continuous
 62
     0
100
AcDbPolyline
 90
        2
 70
     0
 43
0.0
 10
86.003
 20
-135.298
 10
86.003
 20
-11.063
  0
TEXT
  5
90
330
28
100
AcDbEntity
  8
LABELS
 62
     0
100
AcDbText
 10
86.85399999999999
 20
-15.06222
 30
0.0
 40
3.148219999999999
  1
0.00
 41
0.666666667
100
AcDbText
  0
TEXT
  5
91
330
28
100
AcDbEntity
  8
LABELS
 62
     0
100
AcDbText
 10
86.85399999999999
 20
-20.16322
 30
0.0
 40
3.148219999999999
  1
19.00
 41
0.666666667
100
AcDbText
  0
TEXT
  5
92
330
28
100
AcDbEntity
  8
LABELS
 62
     1
100
AcDbText
 10
86.85399999999999
 20
-25.26422
 30
0.0
 40
3.148219999999999
  1
17.05
 41
0.666666667
100
AcDbText
  0
TEXT
  5
93
330
28
100
AcDbEntity
  8
LABELS
 62
     0
100
AcDbText
 10
75.507
 20
-55.11122
 30
0.0
 40
3.148219999999999
  1
67+750.TIN
 41
0.666666667
100
AcDbText
  0
TEXT
  5
94
330
28
100
AcDbEntity
  8
LABELS
 62
     1
100
AcDbText
 10
1.850999999999999
 20
-141.42222
 30
0.0
 40
3.148219999999999
  1
202510
 41
0.666666667
100
AcDbText
  0
TEXT
  5
95
330
28
100
AcDbEntity
  8
LABELS
 62
     0
100
AcDbText
 10
1.850999999999999
 20
-146.09722
 30
0.0
 40
3.148219999999999
  1
67+750.TIN
 41
0.666666667
100
AcDbText
  0
TEXT
  5
96
330
28
100
AcDbEntity
  8
LABELS
 62
     0
100
AcDbText
 10
30.043
 20
-141.42222
 30
0.0
 40
3.148219999999999
  1
模板
 41
0.666666667
100
AcDbText
  0
TEXT
  5
97
330
28
100
AcDbEntity
  8
LABELS
 62
     0
100
AcDbText
 10
142.811
 20
-141.42222
 30
0.0
 40
3.148219999999999
  1
DBL 3.00 M:M
 41
0.666666667
100
AcDbText
  0
TEXT
  5
98
330
28
100
AcDbEntity
  8
LABELS
 62
     0
100
AcDbText
 10
142.811
 20
-146.09722
 30
0.0
 40
3.148219999999999
  1
Depth 0.20 M:M
 41
0.666666667
100
AcDbText
  0
LWPOLYLINE
  5
99
330
28
100
AcDbEntity
  8
XSECTION
  6
Continuous
 62
     0
100
AcDbPolyline
 90
        2
 70
     0
 43
0.0
 10
15.167
 20
-35.298
 10
46.833
 20
-130.298
  0
LWPOLYLINE
  5
9D
330
28
100
AcDbEntity
  8
XSECTION
  6
Continuous
 62
     0
100
AcDbPolyline
 90
        2
 70
     0
 43
0.0
 10
46.833
 20
-130.298
 10
86.003
 20
-130.298
  0
LWPOLYLINE
  5
A1
330
28
100
AcDbEntity
  8
XSECTION
  6
Continuous
 62
     0
100
AcDbPolyline
 90
        2
 70
     0
 43
0.0
 10
86.003
 20
-130.298
 10
125.17
 20
-130.298
  0
LWPOLYLINE
  5
A5
330
28
100
AcDbEntity
  8
XSECTION
  6
Continuous
 62
     0
100
AcDbPolyline
 90
        2
 70
     0
 43
0.0
 10
125.17
 20
-130.298
 10
156.8369999999999
 20
-35.298
  0
LWPOLYLINE
  5
A9
330
28
100
AcDbEntity
  8
XSECTION
  6
Continuous
 62
     0
100
AcDbPolyline
 90
        2
 70
     0
 43
0.0
 10
15.167
 20
-35.298
 10
46.833
 20
-130.298
  0
LWPOLYLINE
  5
AD
330
28
100
AcDbEntity
  8
XSECTION
  6
Continuous
 62
     0
100
AcDbPolyline
 90
        2
 70
     0
 43
0.0
 10
46.833
 20
-130.298
 10
46.833
 20
-130.298
  0
LWPOLYLINE
  5
B1
330
28
100
AcDbEntity
  8
XSECTION
  6
Continuous
 62
     0
100
AcDbPolyline
 90
        2
 70
     0
 43
0.0
 10
46.833
 20
-130.298
 10
86.003
 20
-130.298
  0
LWPOLYLINE
  5
B5
330
28
100
AcDbEntity
  8
XSECTION
  6
Continuous
 62
     0
100
AcDbPolyline
 90
        2
 70
     0
 43
0.0
 10
86.003
 20
-130.298
 10
125.17
 20
-130.298
  0
LWPOLYLINE
  5
B9
330
28
100
AcDbEntity
  8
XSECTION
  6
Continuous
 62
     0
100
AcDbPolyline
 90
        2
 70
     0
 43
0.0
 10
125.17
 20
-130.298
 10
125.17
 20
-130.298
  0
LWPOLYLINE
  5
BD
330
28
100
AcDbEntity
  8
XSECTION
  6
Continuous
 62
     0
100
AcDbPolyline
 90
        2
 70
     0
 43
0.0
 10
125.17
 20
-130.298
 10
156.8369999999999
 20
-35.298
  0
LWPOLYLINE
  5
C1
330
28
100
AcDbEntity
  8
XSECTION
  6
Continuous
 62
     1
100
AcDbPolyline
 90
       84
 70
     0
 43
0.0
 10
25.547
 20
-97.24800000000001
 10
25.666555555556
 20
-97.69799771118201
 10
25.709888888889
 20
-97.898002288818
 10
25.763222222222
 20
-98.79799904632601
 10
25.766555555556
 20
-98.79799904632601
 10
28.889888888889
 20
-101.798000953674
 10
30.416555555556
 20
-102.798
 10
31.739888888889
 20
-103.848000190735
 10
34.283222222222
 20
-105.998001716614
 10
34.346555555556
 20
-106.047998092651
 10
34.403222222222
 20
-106.097999237061
 10
37.319888888889
 20
-107.697997711182
 10
37.86655555555601
 20
-107.848001144409
 10
39.34322222222199
 20
-108.298001907349
 10
40.419888888889
 20
-108.64800038147
 10
41.28988888888899
 20
-108.898001335144
 10
43.48988888888899
 20
-109.397998474121
 10
44.053222222222
 20
-109.498000762939
 10
46.869888888889
 20
-109.997997901917
 10
47.233222222222
 20
-109.997997901917
 10
49.309888888889
 20
-110.298
 10
50.856555555556
 20
-110.69799961853
 10
52.343222222222
 20
-111.398001335144
 10
53.873222222222
 20
-111.697998664856
 10
55.18322222222201
 20
-112.248001716614
 10
56.403222222222
 20
-112.697997711182
 10
57.22655555555601
 20
-113.098002098083
 10
58.939888888889
 20
-113.547998092651
 10
60.963222222222
 20
-114.197998664856
 10
63.229888888889
 20
-114.197998664856
 10
63.453222222222
 20
-114.247999809265
 10
63.583222222222
 20
-114.247999809265
 10
65.923222222222
 20
-115.047999046326
 10
67.283222222222
 20
-115.247998855591
 10
70.413222222222
 20
-116.047998092651
 10
70.42655555555601
 20
-116.047998092651
 10
70.43655555555599
 20
-116.047998092651
 10
70.44988888888899
 20
-116.047998092651
 10
74.316555555556
 20
-116.698003433228
 10
77.45322222222201
 20
-118.097997329712
 10
77.73655555555599
 20
-118.248000762939
 10
77.939888888889
 20
-118.248000762939
 10
80.539888888889
 20
-118.64800038147
 10
80.84655555555601
 20
-118.748002670288
 10
84.04988888888899
 20
-120.298
 10
88.103222222222
 20
-120.798001907349
 10
88.16655555555598
 20
-120.798001907349
 10
88.199888888889
 20
-120.798001907349
 10
88.59988888888901
 20
-120.748000762939
 10
93.203222222222
 20
-119.89800038147
 10
95.896555555556
 20
-118.897996566772
 10
96.399888888889
 20
-118.597999237061
 10
97.34322222222202
 20
-118.047996185303
 10
99.47322222222201
 20
-116.94799961853
 10
100.766555555556
 20
-116.797996185303
 10
102.036555555556
 20
-116.447997711182
 10
104.086555555556
 20
-116.797996185303
 10
104.919888888889
 20
-117.148004196167
 10
106.103222222222
 20
-118.097997329712
 10
107.493222222222
 20
-118.698001525879
 10
109.189888888889
 20
-119.148002288818
 10
109.926555555556
 20
-119.548001907349
 10
113.089888888889
 20
-120.097995422363
 10
114.726555555556
 20
-120.448003433228
 10
117.609888888889
 20
-120.547996185303
 10
117.669888888889
 20
-120.547996185303
 10
120.123222222222
 20
-120.348001144409
 10
121.233222222222
 20
-120.348001144409
 10
123.703222222222
 20
-119.948001525879
 10
126.493222222222
 20
-119.44799961853
 10
127.229888888889
 20
-119.248004577637
 10
130.889888888889
 20
-117.798
 10
131.466555555556
 20
-117.548003814697
 10
131.579888888889
 20
-117.498002670288
 10
135.063222222222
 20
-116.298003814697
 10
136.533222222222
 20
-115.798001907349
 10
138.543222222222
 20
-115.69799961853
 10
139.093222222222
 20
-115.398002288818
 10
141.849888888889
 20
-113.098002098083
 10
142.506555555556
 20
-112.697997711182
 10
144.833222222222
 20
-111.398001335144
 10
145.666555555556
 20
-110.798001907349
 10
147.709888888889
 20
-109.348002098083
 10
147.793222222222
 20
-109.197998664856
  0
LWPOLYLINE
  5
117
330
28
100
AcDbEntity
  8
XSECTION
  6
Continuous
 62
     0
100
AcDbPolyline
 90
        5
 70
     0
 43
0.0
 10
1.0
 20
-148.486
 10
171.003
 20
-148.486
 10
171.003
 20
-296.952
 10
1.0
 20
-296.952
 10
1.0
 20
-148.486
  0
LWPOLYLINE
  5
11E
330
28
100
AcDbEntity
  8
XSECTION
  6
Continuous
 62
     0
100
AcDbPolyline
 90
        5
 70
     0
 43
0.0
 10
7.296
 20
-183.774
 10
164.707
 20
-183.774
 10
164.707
 20
-283.774
 10
7.296
 20
-283.774
 10
7.296
 20
-183.774
  0
TEXT
  5
125
330
28
100
AcDbEntity
  8
LABELS
 62
     0
100
AcDbText
 10
1.850999999999999
 20
-152.48522
 30
0.0
 40
3.148219999999999
  1
X: 505257.66
 41
0.666666667
100
AcDbText
  0
TEXT
  5
126
330
28
100
AcDbEntity
  8
LABELS
 62
     0
100
AcDbText
 10
35.681
 20
-152.48522
 30
0.0
 40
3.148219999999999
  1
67+775.TIN
 41
0.666666667
100
AcDbText
  0
TEXT
  5
127
330
28
100
AcDbEntity
  8
LABELS
 62
     0
100
AcDbText
 10
69.511
 20
-152.48522
 30
0.0
 40
3.148219999999999
  1
Length: 425.00
 41
0.666666667
100
AcDbText
  0
TEXT
  5
128
330
28
100
AcDbEntity
  8
LABELS
 62
     0
100
AcDbText
 10
103.341
 20
-152.48522
 30
0.0
 40
3.148219999999999
  1
Azimuth: 113.99
 41
0.666666667
100
AcDbText
  0
TEXT
  5
129
330
28
100
AcDbEntity
  8
LABELS
 62
     0
100
AcDbText
 10
137.171
 20
-152.48522
 30
0.0
 40
3.148219999999999
  1
X: 505645.96
 41
0.666666667
100
AcDbText
  0
TEXT
  5
12A
330
28
100
AcDbEntity
  8
LABELS
 62
     0
100
AcDbText
 10
1.850999999999999
 20
-158.01122
 30
0.0
 40
3.148219999999999
  1
Y: 2375225.07
 41
0.666666667
100
AcDbText
  0
TEXT
  5
12B
330
28
100
AcDbEntity
  8
LABELS
 62
     0
100
AcDbText
 10
137.171
 20
-158.01122
 30
0.0
 40
3.148219999999999
  1
Y: 2375052.30
 41
0.666666667
100
AcDbText
  0
LWPOLYLINE
  5
12C
330
28
100
AcDbEntity
  8
XSECTION
  6
Continuous
 62
     0
100
AcDbPolyline
 90
        2
 70
     0
 43
0.0
 10
15.167
 20
-183.774
 10
15.167
 20
-189.712
  0
LWPOLYLINE
  5
130
330
28
100
AcDbEntity
  8
XSECTION
  6
Continuous
 62
     0
100
AcDbPolyline
 90
        2
 70
     0
 43
0.0
 10
15.167
 20
-283.774
 10
15.167
 20
-277.836
  0
TEXT
  5
134
330
28
100
AcDbEntity
  8
LABELS
 62
     0
100
AcDbText
 10
7.820999999999999
 20
-179.27022
 30
0.0
 40
3.148219999999999
  1
-212.51
 41
0.666666667
100
AcDbText
  0
LWPOLYLINE
  5
135
330
28
100
AcDbEntity
  8
XSECTION
  6
Continuous
 62
     0
100
AcDbPolyline
 90
        2
 70
     0
 43
0.0
 10
46.833
 20
-183.774
 10
46.833
 20
-189.712
  0
LWPOLYLINE
  5
139
330
28
100
AcDbEntity
  8
XSECTION
  6
Continuous
 62
     0
100
AcDbPolyline
 90
        2
 70
     0
 43
0.0
 10
46.833
 20
-283.774
 10
46.833
 20
-277.836
  0
TEXT
  5
13D
330
28
100
AcDbEntity
  8
LABELS
 62
     0
100
AcDbText
 10
39.487
 20
-179.27022
 30
0.0
 40
3.148219999999999
  1
-117.51
 41
0.666666667
100
AcDbText
  0
LWPOLYLINE
  5
13E
330
28
100
AcDbEntity
  8
XSECTION
  6
Continuous
 62
     0
100
AcDbPolyline
 90
        2
 70
     0
 43
0.0
 10
86.003
 20
-183.774
 10
86.003
 20
-189.712
  0
LWPOLYLINE
  5
142
330
28
100
AcDbEntity
  8
XSECTION
  6
Continuous
 62
     0
100
AcDbPolyline
 90
        2
 70
     0
 43
0.0
 10
86.003
 20
-283.774
 10
86.003
 20
-277.836
  0
TEXT
  5
146
330
28
100
AcDbEntity
  8
LABELS
 62
     0
100
AcDbText
 10
81.806
 20
-179.27022
 30
0.0
 40
3.148219999999999
  1
0.00
 41
0.666666667
100
AcDbText
  0
LWPOLYLINE
  5
147
330
28
100
AcDbEntity
  8
XSECTION
  6
Continuous
 62
     0
100
AcDbPolyline
 90
        2
 70
     0
 43
0.0
 10
125.17
 20
-183.774
 10
125.17
 20
-189.712
  0
LWPOLYLINE
  5
14B
330
28
100
AcDbEntity
  8
XSECTION
  6
Continuous
 62
     0
100
AcDbPolyline
 90
        2
 70
     0
 43
0.0
 10
125.17
 20
-283.774
 10
125.17
 20
-277.836
  0
TEXT
  5
14F
330
28
100
AcDbEntity
  8
LABELS
 62
     0
100
AcDbText
 10
118.874
 20
-179.27022
 30
0.0
 40
3.148219999999999
  1
117.50
 41
0.666666667
100
AcDbText
  0
LWPOLYLINE
  5
150
330
28
100
AcDbEntity
  8
XSECTION
  6
Continuous
 62
     0
100
AcDbPolyline
 90
        2
 70
     0
 43
0.0
 10
156.8369999999999
 20
-183.774
 10
156.8369999999999
 20
-189.712
  0
LWPOLYLINE
  5
154
330
28
100
AcDbEntity
  8
XSECTION
  6
Continuous
 62
     0
100
AcDbPolyline
 90
        2
 70
     0
 43
0.0
 10
156.8369999999999
 20
-283.774
 10
156.8369999999999
 20
-277.836
  0
TEXT
  5
158
330
28
100
AcDbEntity
  8
LABELS
 62
     0
100
AcDbText
 10
150.541
 20
-179.27022
 30
0.0
 40
3.148219999999999
  1
212.50
 41
0.666666667
100
AcDbText
  0
TEXT
  5
159
330
28
100
AcDbEntity
  8
LABELS
 62
     0
100
AcDbText
 10
1.850999999999999
 20
-163.53822
 30
0.0
 40
3.148219999999999
  1
DBL
 41
0.666666667
100
AcDbText
  0
TEXT
  5
15A
330
28
100
AcDbEntity
  8
LABELS
 62
     0
100
AcDbText
 10
1.850999999999999
 20
-168.63922
 30
0.0
 40
3.148219999999999
  1
Tmp
 41
0.666666667
100
AcDbText
  0
TEXT
  5
15B
330
28
100
AcDbEntity
  8
LABELS
 62
     1
100
AcDbText
 10
1.850999999999999
 20
-173.74022
 30
0.0
 40
3.148219999999999
  1
1
 41
0.666666667
100
AcDbText
  0
LWPOLYLINE
  5
15C
330
28
100
AcDbEntity
  8
XSECTION
  6
Continuous
 62
     0
100
AcDbPolyline
 90
        2
 70
     0
 43
0.0
 10
86.003
 20
-283.774
 10
86.003
 20
-159.539
  0
TEXT
  5
160
330
28
100
AcDbEntity
  8
LABELS
 62
     0
100
AcDbText
 10
86.85399999999999
 20
-163.53822
 30
0.0
 40
3.148219999999999
  1
0.00
 41
0.666666667
100
AcDbText
  0
TEXT
  5
161
330
28
100
AcDbEntity
  8
LABELS
 62
     0
100
AcDbText
 10
86.85399999999999
 20
-168.63922
 30
0.0
 40
3.148219999999999
  1
19.00
 41
0.666666667
100
AcDbText
  0
TEXT
  5
162
330
28
100
AcDbEntity
  8
LABELS
 62
     1
100
AcDbText
 10
86.85399999999999
 20
-173.74022
 30
0.0
 40
3.148219999999999
  1
16.91
 41
0.666666667
100
AcDbText
  0
LWPOLYLINE
  5
163
330
28
100
AcDbEntity
  8
XSECTION
  6
Continuous
 62
     0
100
AcDbPolyline
 90
        2
 70
     0
 43
0.0
 10
86.003
 20
-283.774
 10
86.003
 20
-159.539
  0
TEXT
  5
167
330
28
100
AcDbEntity
  8
LABELS
 62
     0
100
AcDbText
 10
86.85399999999999
 20
-163.53822
 30
0.0
 40
3.148219999999999
  1
0.00
 41
0.666666667
100
AcDbText
  0
TEXT
  5
168
330
28
100
AcDbEntity
  8
LABELS
 62
     0
100
AcDbText
 10
86.85399999999999
 20
-168.63922
 30
0.0
 40
3.148219999999999
  1
19.00
 41
0.666666667
100
AcDbText
  0
TEXT
  5
169
330
28
100
AcDbEntity
  8
LABELS
 62
     1
100
AcDbText
 10
86.85399999999999
 20
-173.74022
 30
0.0
 40
3.148219999999999
  1
16.91
 41
0.666666667
100
AcDbText
  0
TEXT
  5
16A
330
28
100
AcDbEntity
  8
LABELS
 62
     0
100
AcDbText
 10
75.507
 20
-203.58722
 30
0.0
 40
3.148219999999999
  1
67+775.TIN
 41
0.666666667
100
AcDbText
  0
TEXT
  5
16B
330
28
100
AcDbEntity
  8
LABELS
 62
     1
100
AcDbText
 10
1.850999999999999
 20
-289.89822
 30
0.0
 40
3.148219999999999
  1
202510
 41
0.666666667
100
AcDbText
  0
TEXT
  5
16C
330
28
100
AcDbEntity
  8
LABELS
 62
     0
100
AcDbText
 10
1.850999999999999
 20
-294.57322
 30
0.0
 40
3.148219999999999
  1
67+775.TIN
 41
0.666666667
100
AcDbText
  0
TEXT
  5
16D
330
28
100
AcDbEntity
  8
LABELS
 62
     0
100
AcDbText
 10
30.043
 20
-289.89822
 30
0.0
 40
3.148219999999999
  1
模板
 41
0.666666667
100
AcDbText
  0
TEXT
  5
16E
330
28
100
AcDbEntity
  8
LABELS
 62
     0
100
AcDbText
 10
142.811
 20
-289.89822
 30
0.0
 40
3.148219999999999
  1
DBL 3.00 M:M
 41
0.666666667
100
AcDbText
  0
TEXT
  5
16F
330
28
100
AcDbEntity
  8
LABELS
 62
     0
100
AcDbText
 10
142.811
 20
-294.57322
 30
0.0
 40
3.148219999999999
  1
Depth 0.20 M:M
 41
0.666666667
100
AcDbText
  0
LWPOLYLINE
  5
170
330
28
100
AcDbEntity
  8
XSECTION
  6
Continuous
 62
     0
100
AcDbPolyline
 90
        2
 70
     0
 43
0.0
 10
15.167
 20
-183.774
 10
46.833
 20
-278.774
  0
LWPOLYLINE
  5
174
330
28
100
AcDbEntity
  8
XSECTION
  6
Continuous
 62
     0
100
AcDbPolyline
 90
        2
 70
     0
 43
0.0
 10
46.833
 20
-278.774
 10
86.003
 20
-278.774
  0
LWPOLYLINE
  5
178
330
28
100
AcDbEntity
  8
XSECTION
  6
Continuous
 62
     0
100
AcDbPolyline
 90
        2
 70
     0
 43
0.0
 10
86.003
 20
-278.774
 10
125.17
 20
-278.774
  0
LWPOLYLINE
  5
17C
330
28
100
AcDbEntity
  8
XSECTION
  6
Continuous
 62
     0
100
AcDbPolyline
 90
        2
 70
     0
 43
0.0
 10
125.17
 20
-278.774
 10
156.8369999999999
 20
-183.774
  0
LWPOLYLINE
  5
180
330
28
100
AcDbEntity
  8
XSECTION
  6
Continuous
 62
     0
100
AcDbPolyline
 90
        2
 70
     0
 43
0.0
 10
15.167
 20
-183.774
 10
46.833
 20
-278.774
  0
LWPOLYLINE
  5
184
330
28
100
AcDbEntity
  8
XSECTION
  6
Continuous
 62
     0
100
AcDbPolyline
 90
        2
 70
     0
 43
0.0
 10
46.833
 20
-278.774
 10
46.833
 20
-278.774
  0
LWPOLYLINE
  5
188
330
28
100
AcDbEntity
  8
XSECTION
  6
Continuous
 62
     0
100
AcDbPolyline
 90
        2
 70
     0
 43
0.0
 10
46.833
 20
-278.774
 10
86.003
 20
-278.774
  0
LWPOLYLINE
  5
18C
330
28
100
AcDbEntity
  8
XSECTION
  6
Continuous
 62
     0
100
AcDbPolyline
 90
        2
 70
     0
 43
0.0
 10
86.003
 20
-278.774
 10
125.17
 20
-278.774
  0
LWPOLYLINE
  5
190
330
28
100
AcDbEntity
  8
XSECTION
  6
Continuous
 62
     0
100
AcDbPolyline
 90
        2
 70
     0
 43
0.0
 10
125.17
 20
-278.774
 10
125.17
 20
-278.774
  0
LWPOLYLINE
  5
194
330
28
100
AcDbEntity
  8
XSECTION
  6
Continuous
 62
     0
100
AcDbPolyline
 90
        2
 70
     0
 43
0.0
 10
125.17
 20
-278.774
 10
156.8369999999999
 20
-183.774
  0
LWPOLYLINE
  5
198
330
28
100
AcDbEntity
  8
XSECTION
  6
Continuous
 62
     1
100
AcDbPolyline
 90
       76
 70
     0
 43
0.0
 10
26.49
 20
-247.824
 10
27.673222222222
 20
-249.274001907349
 10
29.799888888889
 20
-251.724000762939
 10
32.15655555555601
 20
-253.923998664856
 10
32.823222222222
 20
-254.523998092651
 10
34.496555555556
 20
-255.724001716614
 10
36.279888888889
 20
-257.073999237061
 10
38.18655555555601
 20
-257.423997711182
 10
39.429888888889
 20
-257.673998664856
 10
40.396555555556
 20
-257.824002098084
 10
43.689888888889
 20
-258.224001716614
 10
45.189888888889
 20
-258.424001525879
 10
47.44322222222201
 20
-258.224001716614
 10
47.696555555556
 20
-258.174000572205
 10
48.363222222222
 20
-258.273998092651
 10
50.606555555556
 20
-258.473997901917
 10
51.159888888889
 20
-258.673997711182
 10
52.556555555556
 20
-259.424000572205
 10
53.243222222222
 20
-259.773999046326
 10
53.556555555556
 20
-259.923997711182
 10
56.59322222222201
 20
-260.573998283386
 10
56.689888888889
 20
-260.573998283386
 10
56.803222222222
 20
-260.623999427795
 10
60.156555555556
 20
-261.374002288818
 10
61.639888888889
 20
-261.724000762939
 10
63.869888888889
 20
-262.073999237061
 10
65.216555555556
 20
-262.174001525879
 10
68.11988888888899
 20
-262.473998855591
 10
68.433222222222
 20
-262.524
 10
68.853222222222
 20
-262.624002288818
 10
71.236555555556
 20
-263.323999237061
 10
73.20322222222201
 20
-263.673997711182
 10
73.883222222222
 20
-263.924003433228
 10
75.916555555556
 20
-264.374004196167
 10
77.049888888889
 20
-264.873996566772
 10
79.826555555556
 20
-266.324001144409
 10
80.466555555556
 20
-266.523996185303
 10
82.58322222222201
 20
-267.174001525879
 10
84.79322222222199
 20
-267.873998474121
 10
86.88655555555598
 20
-268.673997711182
 10
88.24655555555599
 20
-268.924003433228
 10
89.103222222222
 20
-268.974004577637
 10
92.34988888888901
 20
-269.17399961853
 10
93.296555555556
 20
-269.123998474121
 10
94.03988888888902
 20
-268.924003433228
 10
96.88655555555598
 20
-269.023996185303
 10
99.08322222222201
 20
-269.324003051758
 10
100.016555555556
 20
-269.324003051758
 10
101.153222222222
 20
-269.774003814697
 10
102.996555555556
 20
-270.174003433228
 10
106.356555555556
 20
-270.224004577637
 10
106.829888888889
 20
-270.124002288818
 10
107.093222222222
 20
-270.024
 10
109.776555555556
 20
-269.423995803833
 10
112.986555555556
 20
-269.423995803833
 10
114.079888888889
 20
-269.274001907349
 10
115.639888888889
 20
-269.073997329712
 10
117.959888888889
 20
-268.623996566772
 10
119.873222222222
 20
-268.474002670288
 10
122.673222222222
 20
-268.024001907349
 10
123.119888888889
 20
-267.974000762939
 10
124.193222222222
 20
-267.674003433228
 10
126.086555555556
 20
-267.174001525879
 10
126.523222222222
 20
-267.174001525879
 10
127.759888888889
 20
-266.824003051758
 10
130.176555555556
 20
-266.374002288818
 10
133.263222222222
 20
-265.624004196167
 10
133.943222222222
 20
-265.474000762939
 10
136.703222222222
 20
-264.423995803833
 10
137.089888888889
 20
-264.274001907349
 10
140.416555555556
 20
-262.774000953674
 10
141.313222222222
 20
-262.273999046326
 10
143.633222222222
 20
-260.724001716614
 10
144.419888888889
 20
-260.173998664856
 10
145.563222222222
 20
-259.474001716614
 10
148.203222222222
 20
-257.574001144409
  0
LWPOLYLINE
  5
1E6
330
28
100
AcDbEntity
  8
XSECTION
  6
Continuous
 62
     0
100
AcDbPolyline
 90
        5
 70
     0
 43
0.0
 10
1.0
 20
-296.962
 10
171.003
 20
-296.962
 10
171.003
 20
-445.4279999999999
 10
1.0
 20
-445.4279999999999
 10
1.0
 20
-296.962
  0
LWPOLYLINE
  5
1ED
330
28
100
AcDbEntity
  8
XSECTION
  6
Continuous
 62
     0
100
AcDbPolyline
 90
        5
 70
     0
 43
0.0
 10
7.296
 20
-332.25
 10
164.707
 20
-332.25
 10
164.707
 20
-432.2499999999999
 10
7.296
 20
-432.2499999999999
 10
7.296
 20
-332.25
  0
TEXT
  5
1F4
330
28
100
AcDbEntity
  8
LABELS
 62
     0
100
AcDbText
 10
1.850999999999999
 20
-300.96122
 30
0.0
 40
3.148219999999999
  1
X: 505267.82
 41
0.666666667
100
AcDbText
  0
TEXT
  5
1F5
330
28
100
AcDbEntity
  8
LABELS
 62
     0
100
AcDbText
 10
35.681
 20
-300.96122
 30
0.0
 40
3.148219999999999
  1
67+800.TIN
 41
0.666666667
100
AcDbText
  0
TEXT
  5
1F6
330
28
100
AcDbEntity
  8
LABELS
 62
     0
100
AcDbText
 10
69.511
 20
-300.96122
 30
0.0
 40
3.148219999999999
  1
Length: 425.01
 41
0.666666667
100
AcDbText
  0
TEXT
  5
1F7
330
28
100
AcDbEntity
  8
LABELS
 62
     0
100
AcDbText
 10
103.341
 20
-300.96122
 30
0.0
 40
3.148219999999999
  1
Azimuth: 113.99
 41
0.666666667
100
AcDbText
  0
TEXT
  5
1F8
330
28
100
AcDbEntity
  8
LABELS
 62
     0
100
AcDbText
 10
137.171
 20
-300.96122
 30
0.0
 40
3.148219999999999
  1
X: 505656.12
 41
0.666666667
100
AcDbText
  0
TEXT
  5
1F9
330
28
100
AcDbEntity
  8
LABELS
 62
     0
100
AcDbText
 10
1.850999999999999
 20
-306.48722
 30
0.0
 40
3.148219999999999
  1
Y: 2375247.92
 41
0.666666667
100
AcDbText
  0
TEXT
  5
1FA
330
28
100
AcDbEntity
  8
LABELS
 62
     0
100
AcDbText
 10
137.171
 20
-306.48722
 30
0.0
 40
3.148219999999999
  1
Y: 2375075.14
 41
0.666666667
100
AcDbText
  0
LWPOLYLINE
  5
1FB
330
28
100
AcDbEntity
  8
XSECTION
  6
Continuous
 62
     0
100
AcDbPolyline
 90
        2
 70
     0
 43
0.0
 10
15.167
 20
-332.25
 10
15.167
 20
-338.188
  0
LWPOLYLINE
  5
1FF
330
28
100
AcDbEntity
  8
XSECTION
  6
Continuous
 62
     0
100
AcDbPolyline
 90
        2
 70
     0
 43
0.0
 10
15.167
 20
-432.2499999999999
 10
15.167
 20
-426.3119999999999
  0
TEXT
  5
203
330
28
100
AcDbEntity
  8
LABELS
 62
     0
100
AcDbText
 10
7.820999999999999
 20
-327.74622
 30
0.0
 40
3.148219999999999
  1
-212.51
 41
0.666666667
100
AcDbText
  0
LWPOLYLINE
  5
204
330
28
100
AcDbEntity
  8
XSECTION
  6
Continuous
 62
     0
100
AcDbPolyline
 90
        2
 70
     0
 43
0.0
 10
46.833
 20
-332.25
 10
46.833
 20
-338.188
  0
LWPOLYLINE
  5
208
330
28
100
AcDbEntity
  8
XSECTION
  6
Continuous
 62
     0
100
AcDbPolyline
 90
        2
 70
     0
 43
0.0
 10
46.833
 20
-432.2499999999999
 10
46.833
 20
-426.3119999999999
  0
TEXT
  5
20C
330
28
100
AcDbEntity
  8
LABELS
 62
     0
100
AcDbText
 10
39.487
 20
-327.74622
 30
0.0
 40
3.148219999999999
  1
-117.51
 41
0.666666667
100
AcDbText
  0
LWPOLYLINE
  5
20D
330
28
100
AcDbEntity
  8
XSECTION
  6
Continuous
 62
     0
100
AcDbPolyline
 90
        2
 70
     0
 43
0.0
 10
86.003
 20
-332.25
 10
86.003
 20
-338.188
  0
LWPOLYLINE
  5
211
330
28
100
AcDbEntity
  8
XSECTION
  6
Continuous
 62
     0
100
AcDbPolyline
 90
        2
 70
     0
 43
0.0
 10
86.003
 20
-432.2499999999999
 10
86.003
 20
-426.3119999999999
  0
TEXT
  5
215
330
28
100
AcDbEntity
  8
LABELS
 62
     0
100
AcDbText
 10
81.806
 20
-327.74622
 30
0.0
 40
3.148219999999999
  1
0.00
 41
0.666666667
100
AcDbText
  0
LWPOLYLINE
  5
216
330
28
100
AcDbEntity
  8
XSECTION
  6
Continuous
 62
     0
100
AcDbPolyline
 90
        2
 70
     0
 43
0.0
 10
125.17
 20
-332.25
 10
125.17
 20
-338.188
  0
LWPOLYLINE
  5
21A
330
28
100
AcDbEntity
  8
XSECTION
  6
Continuous
 62
     0
100
AcDbPolyline
 90
        2
 70
     0
 43
0.0
 10
125.17
 20
-432.2499999999999
 10
125.17
 20
-426.3119999999999
  0
TEXT
  5
21E
330
28
100
AcDbEntity
  8
LABELS
 62
     0
100
AcDbText
 10
118.874
 20
-327.74622
 30
0.0
 40
3.148219999999999
  1
117.50
 41
0.666666667
100
AcDbText
  0
LWPOLYLINE
  5
21F
330
28
100
AcDbEntity
  8
XSECTION
  6
Continuous
 62
     0
100
AcDbPolyline
 90
        2
 70
     0
 43
0.0
 10
156.8369999999999
 20
-332.25
 10
156.8369999999999
 20
-338.188
  0
LWPOLYLINE
  5
223
330
28
100
AcDbEntity
  8
XSECTION
  6
Continuous
 62
     0
100
AcDbPolyline
 90
        2
 70
     0
 43
0.0
 10
156.8369999999999
 20
-432.2499999999999
 10
156.8369999999999
 20
-426.3119999999999
  0
TEXT
  5
227
330
28
100
AcDbEntity
  8
LABELS
 62
     0
100
AcDbText
 10
150.541
 20
-327.74622
 30
0.0
 40
3.148219999999999
  1
212.50
 41
0.666666667
100
AcDbText
  0
TEXT
  5
228
330
28
100
AcDbEntity
  8
LABELS
 62
     0
100
AcDbText
 10
1.850999999999999
 20
-312.01422
 30
0.0
 40
3.148219999999999
  1
DBL
 41
0.666666667
100
AcDbText
  0
TEXT
  5
229
330
28
100
AcDbEntity
  8
LABELS
 62
     0
100
AcDbText
 10
1.850999999999999
 20
-317.11522
 30
0.0
 40
3.148219999999999
  1
Tmp
 41
0.666666667
100
AcDbText
  0
TEXT
  5
22A
330
28
100
AcDbEntity
  8
LABELS
 62
     1
100
AcDbText
 10
1.850999999999999
 20
-322.21622
 30
0.0
 40
3.148219999999999
  1
1
 41
0.666666667
100
AcDbText
  0
LWPOLYLINE
  5
22B
330
28
100
AcDbEntity
  8
XSECTION
  6
Continuous
 62
     0
100
AcDbPolyline
 90
        2
 70
     0
 43
0.0
 10
86.003
 20
-432.2499999999999
 10
86.003
 20
-308.015
  0
TEXT
  5
22F
330
28
100
AcDbEntity
  8
LABELS
 62
     0
100
AcDbText
 10
86.85399999999999
 20
-312.01422
 30
0.0
 40
3.148219999999999
  1
0.00
 41
0.666666667
100
AcDbText
  0
TEXT
  5
230
330
28
100
AcDbEntity
  8
LABELS
 62
     0
100
AcDbText
 10
86.85399999999999
 20
-317.11522
 30
0.0
 40
3.148219999999999
  1
19.00
 41
0.666666667
100
AcDbText
  0
TEXT
  5
231
330
28
100
AcDbEntity
  8
LABELS
 62
     1
100
AcDbText
 10
86.85399999999999
 20
-322.21622
 30
0.0
 40
3.148219999999999
  1
17.14
 41
0.666666667
100
AcDbText
  0
LWPOLYLINE
  5
232
330
28
100
AcDbEntity
  8
XSECTION
  6
Continuous
 62
     0
100
AcDbPolyline
 90
        2
 70
     0
 43
0.0
 10
86.003
 20
-432.2499999999999
 10
86.003
 20
-308.015
  0
TEXT
  5
236
330
28
100
AcDbEntity
  8
LABELS
 62
     0
100
AcDbText
 10
86.85399999999999
 20
-312.01422
 30
0.0
 40
3.148219999999999
  1
0.00
 41
0.666666667
100
AcDbText
  0
TEXT
  5
237
330
28
100
AcDbEntity
  8
LABELS
 62
     0
100
AcDbText
 10
86.85399999999999
 20
-317.11522
 30
0.0
 40
3.148219999999999
  1
19.00
 41
0.666666667
100
AcDbText
  0
TEXT
  5
238
330
28
100
AcDbEntity
  8
LABELS
 62
     1
100
AcDbText
 10
86.85399999999999
 20
-322.21622
 30
0.0
 40
3.148219999999999
  1
17.14
 41
0.666666667
100
AcDbText
  0
TEXT
  5
239
330
28
100
AcDbEntity
  8
LABELS
 62
     0
100
AcDbText
 10
75.507
 20
-352.06322
 30
0.0
 40
3.148219999999999
  1
67+800.TIN
 41
0.666666667
100
AcDbText
  0
TEXT
  5
23A
330
28
100
AcDbEntity
  8
LABELS
 62
     1
100
AcDbText
 10
1.850999999999999
 20
-438.3742199999999
 30
0.0
 40
3.148219999999999
  1
202510
 41
0.666666667
100
AcDbText
  0
TEXT
  5
23B
330
28
100
AcDbEntity
  8
LABELS
 62
     0
100
AcDbText
 10
1.850999999999999
 20
-443.0492199999999
 30
0.0
 40
3.148219999999999
  1
67+800.TIN
 41
0.666666667
100
AcDbText
  0
TEXT
  5
23C
330
28
100
AcDbEntity
  8
LABELS
 62
     0
100
AcDbText
 10
30.043
 20
-438.3742199999999
 30
0.0
 40
3.148219999999999
  1
模板
 41
0.666666667
100
AcDbText
  0
TEXT
  5
23D
330
28
100
AcDbEntity
  8
LABELS
 62
     0
100
AcDbText
 10
142.811
 20
-438.3742199999999
 30
0.0
 40
3.148219999999999
  1
DBL 3.00 M:M
 41
0.666666667
100
AcDbText
  0
TEXT
  5
23E
330
28
100
AcDbEntity
  8
LABELS
 62
     0
100
AcDbText
 10
142.811
 20
-443.0492199999999
 30
0.0
 40
3.148219999999999
  1
Depth 0.20 M:M
 41
0.666666667
100
AcDbText
  0
LWPOLYLINE
  5
23F
330
28
100
AcDbEntity
  8
XSECTION
  6
Continuous
 62
     0
100
AcDbPolyline
 90
        2
 70
     0
 43
0.0
 10
15.167
 20
-332.25
 10
46.833
 20
-427.2499999999999
  0
LWPOLYLINE
  5
243
330
28
100
AcDbEntity
  8
XSECTION
  6
Continuous
 62
     0
100
AcDbPolyline
 90
        2
 70
     0
 43
0.0
 10
46.833
 20
-427.2499999999999
 10
86.003
 20
-427.2499999999999
  0
LWPOLYLINE
  5
247
330
28
100
AcDbEntity
  8
XSECTION
  6
Continuous
 62
     0
100
AcDbPolyline
 90
        2
 70
     0
 43
0.0
 10
86.003
 20
-427.2499999999999
 10
125.17
 20
-427.2499999999999
  0
LWPOLYLINE
  5
24B
330
28
100
AcDbEntity
  8
XSECTION
  6
Continuous
 62
     0
100
AcDbPolyline
 90
        2
 70
     0
 43
0.0
 10
125.17
 20
-427.2499999999999
 10
156.8369999999999
 20
-332.25
  0
LWPOLYLINE
  5
24F
330
28
100
AcDbEntity
  8
XSECTION
  6
Continuous
 62
     0
100
AcDbPolyline
 90
        2
 70
     0
 43
0.0
 10
15.167
 20
-332.25
 10
46.833
 20
-427.2499999999999
  0
LWPOLYLINE
  5
253
330
28
100
AcDbEntity
  8
XSECTION
  6
Continuous
 62
     0
100
AcDbPolyline
 90
        2
 70
     0
 43
0.0
 10
46.833
 20
-427.2499999999999
 10
46.833
 20
-427.2499999999999
  0
LWPOLYLINE
  5
257
330
28
100
AcDbEntity
  8
XSECTION
  6
Continuous
 62
     0
100
AcDbPolyline
 90
        2
 70
     0
 43
0.0
 10
46.833
 20
-427.2499999999999
 10
86.003
 20
-427.2499999999999
  0
LWPOLYLINE
  5
25B
330
28
100
AcDbEntity
  8
XSECTION
  6
Continuous
 62
     0
100
AcDbPolyline
 90
        2
 70
     0
 43
0.0
 10
86.003
 20
-427.2499999999999
 10
125.17
 20
-427.2499999999999
  0
LWPOLYLINE
  5
25F
330
28
100
AcDbEntity
  8
XSECTION
  6
Continuous
 62
     0
100
AcDbPolyline
 90
        2
 70
     0
 43
0.0
 10
125.17
 20
-427.2499999999999
 10
125.17
 20
-427.2499999999999
  0
LWPOLYLINE
  5
263
330
28
100
AcDbEntity
  8
XSECTION
  6
Continuous
 62
     0
100
AcDbPolyline
 90
        2
 70
     0
 43
0.0
 10
125.17
 20
-427.2499999999999
 10
156.8369999999999
 20
-332.25
  0
LWPOLYLINE
  5
267
330
28
100
AcDbEntity
  8
XSECTION
  6
Continuous
 62
     1
100
AcDbPolyline
 90
       74
 70
     0
 43
0.0
 10
27.09
 20
-397.55
 10
28.783222222222
 20
-399.75
 10
29.276555555556
 20
-400.4000005722049
 10
29.679888888889
 20
-400.7499990463259
 10
31.379888888889
 20
-402.3000011444089
 10
33.983222222222
 20
-404.600001335144
 10
34.79655555555601
 20
-405.299998283386
 10
36.276555555556
 20
-405.800000190735
 10
37.43655555555601
 20
-406.1999998092649
 10
39.869888888889
 20
-406.599999427795
 10
40.153222222222
 20
-406.7000017166139
 10
40.369888888889
 20
-406.6500005722049
 10
41.30988888888899
 20
-406.6500005722049
 10
44.809888888889
 20
-406.799999237061
 10
46.523222222222
 20
-406.8500003814699
 10
49.15322222222201
 20
-407.1000013351439
 10
50.389888888889
 20
-407.2499999999999
 10
54.369888888889
 20
-407.700000762939
 10
56.07322222222201
 20
-408.199997901917
 10
56.99988888888899
 20
-408.3500013351439
 10
61.029888888889
 20
-408.5500011444089
 10
62.023222222222
 20
-408.6999998092649
 10
63.936555555556
 20
-408.8000020980829
 10
65.546555555556
 20
-409.150000572205
 10
66.376555555556
 20
-409.400001525879
 10
67.759888888889
 20
-409.649997711182
 10
69.61655555555601
 20
-409.949999809265
 10
72.616555555556
 20
-411.3000020980829
 10
73.19322222222201
 20
-411.500001907349
 10
77.31322222222201
 20
-413.200002670288
 10
77.373222222222
 20
-413.250003814697
 10
80.68988888888901
 20
-415.099998474121
 10
80.889888888889
 20
-415.250001907349
 10
81.219888888889
 20
-415.549999237061
 10
83.79988888888901
 20
-418.7499961853029
 10
86.26655555555599
 20
-417.850004196167
 10
86.993222222222
 20
-418.200002670288
 10
88.83322222222201
 20
-420.3500041961669
 10
90.08655555555598
 20
-419.6999988555909
 10
91.859888888889
 20
-419.1499958038329
 10
93.86655555555599
 20
-419.599996566772
 10
95.323222222222
 20
-419.000001907349
 10
96.116555555556
 20
-419.1499958038329
 10
96.95322222222202
 20
-419.3500003814699
 10
99.456555555556
 20
-419.9999961853029
 10
103.169888888889
 20
-420.6500015258789
 10
103.239888888889
 20
-420.6500015258789
 10
103.356555555556
 20
-420.60000038147
 10
105.863222222222
 20
-420.099998474121
 10
107.956555555556
 20
-419.5499954223629
 10
109.156555555556
 20
-418.950000762939
 10
110.366555555556
 20
-418.849998474121
 10
113.656555555556
 20
-418.10000038147
 10
116.956555555556
 20
-417.4999961853029
 10
118.353222222222
 20
-417.1999988555909
 10
120.806555555556
 20
-416.699996948242
 10
122.629888888889
 20
-416.2499961853029
 10
125.016555555556
 20
-415.750003814697
 10
125.109888888889
 20
-415.750003814697
 10
125.323222222222
 20
-415.7000026702879
 10
128.936555555556
 20
-415.099998474121
 10
130.053222222222
 20
-414.7499999999999
 10
131.926555555556
 20
-413.8999996185299
 10
132.283222222222
 20
-413.7499961853029
 10
132.639888888889
 20
-413.6500034332279
 10
136.369888888889
 20
-412.700000762939
 10
137.879888888889
 20
-412.4000034332279
 10
140.346555555556
 20
-410.800000190735
 10
142.429888888889
 20
-409.449997901917
 10
143.753222222222
 20
-408.649998664856
 10
145.366555555556
 20
-407.599998474121
 10
147.833222222222
 20
-405.6999979019169
 10
148.003222222222
 20
-405.5499992370609
 10
148.016555555556
 20
-405.5499992370609
  0
LWPOLYLINE
  5
2B3
330
28
100
AcDbEntity
  8
XSECTION
  6
Continuous
 62
     0
100
AcDbPolyline
 90
        5
 70
     0
 43
0.0
 10
1.0
 20
-445.4379999999999
 10
171.003
 20
-445.4379999999999
 10
171.003
 20
-593.904
 10
1.0
 20
-593.904
 10
1.0
 20
-445.4379999999999
  0
LWPOLYLINE
  5
2BA
330
28
100
AcDbEntity
  8
XSECTION
  6
Continuous
 62
     0
100
AcDbPolyline
 90
        5
 70
     0
 43
0.0
 10
7.296
 20
-480.726
 10
164.707
 20
-480.726
 10
164.707
 20
-580.726
 10
7.296
 20
-580.726
 10
7.296
 20
-480.726
  0
TEXT
  5
2C1
330
28
100
AcDbEntity
  8
LABELS
 62
     0
100
AcDbText
 10
1.850999999999999
 20
-449.4372199999999
 30
0.0
 40
3.148219999999999
  1
X: 505277.98
 41
0.666666667
100
AcDbText
  0
TEXT
  5
2C2
330
28
100
AcDbEntity
  8
LABELS
 62
     0
100
AcDbText
 10
35.681
 20
-449.4372199999999
 30
0.0
 40
3.148219999999999
  1
67+825.TIN
 41
0.666666667
100
AcDbText
  0
TEXT
  5
2C3
330
28
100
AcDbEntity
  8
LABELS
 62
     0
100
AcDbText
 10
69.511
 20
-449.4372199999999
 30
0.0
 40
3.148219999999999
  1
Length: 425.01
 41
0.666666667
100
AcDbText
  0
TEXT
  5
2C4
330
28
100
AcDbEntity
  8
LABELS
 62
     0
100
AcDbText
 10
103.341
 20
-449.4372199999999
 30
0.0
 40
3.148219999999999
  1
Azimuth: 113.99
 41
0.666666667
100
AcDbText
  0
TEXT
  5
2C5
330
28
100
AcDbEntity
  8
LABELS
 62
     0
100
AcDbText
 10
137.171
 20
-449.4372199999999
 30
0.0
 40
3.148219999999999
  1
X: 505666.28
 41
0.666666667
100
AcDbText
  0
TEXT
  5
2C6
330
28
100
AcDbEntity
  8
LABELS
 62
     0
100
AcDbText
 10
1.850999999999999
 20
-454.9632199999999
 30
0.0
 40
3.148219999999999
  1
Y: 2375270.76
 41
0.666666667
100
AcDbText
  0
TEXT
  5
2C7
330
28
100
AcDbEntity
  8
LABELS
 62
     0
100
AcDbText
 10
137.171
 20
-454.9632199999999
 30
0.0
 40
3.148219999999999
  1
Y: 2375097.98
 41
0.666666667
100
AcDbText
  0
LWPOLYLINE
  5
2C8
330
28
100
AcDbEntity
  8
XSECTION
  6
Continuous
 62
     0
100
AcDbPolyline
 90
        2
 70
     0
 43
0.0
 10
15.167
 20
-480.726
 10
15.167
 20
-486.664
  0
LWPOLYLINE
  5
2CC
330
28
100
AcDbEntity
  8
XSECTION
  6
Continuous
 62
     0
100
AcDbPolyline
 90
        2
 70
     0
 43
0.0
 10
15.167
 20
-580.726
 10
15.167
 20
-574.788
  0
TEXT
  5
2D0
330
28
100
AcDbEntity
  8
LABELS
 62
     0
100
AcDbText
 10
7.820999999999999
 20
-476.22222
 30
0.0
 40
3.148219999999999
  1
-212.51
 41
0.666666667
100
AcDbText
  0
LWPOLYLINE
  5
2D1
330
28
100
AcDbEntity
  8
XSECTION
  6
Continuous
 62
     0
100
AcDbPolyline
 90
        2
 70
     0
 43
0.0
 10
46.833
 20
-480.726
 10
46.833
 20
-486.664
  0
LWPOLYLINE
  5
2D5
330
28
100
AcDbEntity
  8
XSECTION
  6
Continuous
 62
     0
100
AcDbPolyline
 90
        2
 70
     0
 43
0.0
 10
46.833
 20
-580.726
 10
46.833
 20
-574.788
  0
TEXT
  5
2D9
330
28
100
AcDbEntity
  8
LABELS
 62
     0
100
AcDbText
 10
39.487
 20
-476.22222
 30
0.0
 40
3.148219999999999
  1
-117.51
 41
0.666666667
100
AcDbText
  0
LWPOLYLINE
  5
2DA
330
28
100
AcDbEntity
  8
XSECTION
  6
Continuous
 62
     0
100
AcDbPolyline
 90
        2
 70
     0
 43
0.0
 10
86.003
 20
-480.726
 10
86.003
 20
-486.664
  0
LWPOLYLINE
  5
2DE
330
28
100
AcDbEntity
  8
XSECTION
  6
Continuous
 62
     0
100
AcDbPolyline
 90
        2
 70
     0
 43
0.0
 10
86.003
 20
-580.726
 10
86.003
 20
-574.788
  0
TEXT
  5
2E2
330
28
100
AcDbEntity
  8
LABELS
 62
     0
100
AcDbText
 10
81.806
 20
-476.22222
 30
0.0
 40
3.148219999999999
  1
0.00
 41
0.666666667
100
AcDbText
  0
LWPOLYLINE
  5
2E3
330
28
100
AcDbEntity
  8
XSECTION
  6
Continuous
 62
     0
100
AcDbPolyline
 90
        2
 70
     0
 43
0.0
 10
125.17
 20
-480.726
 10
125.17
 20
-486.664
  0
LWPOLYLINE
  5
2E7
330
28
100
AcDbEntity
  8
XSECTION
  6
Continuous
 62
     0
100
AcDbPolyline
 90
        2
 70
     0
 43
0.0
 10
125.17
 20
-580.726
 10
125.17
 20
-574.788
  0
TEXT
  5
2EB
330
28
100
AcDbEntity
  8
LABELS
 62
     0
100
AcDbText
 10
118.874
 20
-476.22222
 30
0.0
 40
3.148219999999999
  1
117.50
 41
0.666666667
100
AcDbText
  0
LWPOLYLINE
  5
2EC
330
28
100
AcDbEntity
  8
XSECTION
  6
Continuous
 62
     0
100
AcDbPolyline
 90
        2
 70
     0
 43
0.0
 10
156.8369999999999
 20
-480.726
 10
156.8369999999999
 20
-486.664
  0
LWPOLYLINE
  5
2F0
330
28
100
AcDbEntity
  8
XSECTION
  6
Continuous
 62
     0
100
AcDbPolyline
 90
        2
 70
     0
 43
0.0
 10
156.8369999999999
 20
-580.726
 10
156.8369999999999
 20
-574.788
  0
TEXT
  5
2F4
330
28
100
AcDbEntity
  8
LABELS
 62
     0
100
AcDbText
 10
150.541
 20
-476.22222
 30
0.0
 40
3.148219999999999
  1
212.50
 41
0.666666667
100
AcDbText
  0
TEXT
  5
2F5
330
28
100
AcDbEntity
  8
LABELS
 62
     0
100
AcDbText
 10
1.850999999999999
 20
-460.49022
 30
0.0
 40
3.148219999999999
  1
DBL
 41
0.666666667
100
AcDbText
  0
TEXT
  5
2F6
330
28
100
AcDbEntity
  8
LABELS
 62
     0
100
AcDbText
 10
1.850999999999999
 20
-465.59122
 30
0.0
 40
3.148219999999999
  1
Tmp
 41
0.666666667
100
AcDbText
  0
TEXT
  5
2F7
330
28
100
AcDbEntity
  8
LABELS
 62
     1
100
AcDbText
 10
1.850999999999999
 20
-470.69222
 30
0.0
 40
3.148219999999999
  1
1
 41
0.666666667
100
AcDbText
  0
LWPOLYLINE
  5
2F8
330
28
100
AcDbEntity
  8
XSECTION
  6
Continuous
 62
     0
100
AcDbPolyline
 90
        2
 70
     0
 43
0.0
 10
86.003
 20
-580.726
 10
86.003
 20
-456.491
  0
TEXT
  5
2FC
330
28
100
AcDbEntity
  8
LABELS
 62
     0
100
AcDbText
 10
86.85399999999999
 20
-460.49022
 30
0.0
 40
3.148219999999999
  1
0.00
 41
0.666666667
100
AcDbText
  0
TEXT
  5
2FD
330
28
100
AcDbEntity
  8
LABELS
 62
     0
100
AcDbText
 10
86.85399999999999
 20
-465.59122
 30
0.0
 40
3.148219999999999
  1
19.00
 41
0.666666667
100
AcDbText
  0
TEXT
  5
2FE
330
28
100
AcDbEntity
  8
LABELS
 62
     1
100
AcDbText
 10
86.85399999999999
 20
-470.69222
 30
0.0
 40
3.148219999999999
  1
17.09
 41
0.666666667
100
AcDbText
  0
LWPOLYLINE
  5
2FF
330
28
100
AcDbEntity
  8
XSECTION
  6
Continuous
 62
     0
100
AcDbPolyline
 90
        2
 70
     0
 43
0.0
 10
86.003
 20
-580.726
 10
86.003
 20
-456.491
  0
TEXT
  5
303
330
28
100
AcDbEntity
  8
LABELS
 62
     0
100
AcDbText
 10
86.85399999999999
 20
-460.49022
 30
0.0
 40
3.148219999999999
  1
0.00
 41
0.666666667
100
AcDbText
  0
TEXT
  5
304
330
28
100
AcDbEntity
  8
LABELS
 62
     0
100
AcDbText
 10
86.85399999999999
 20
-465.59122
 30
0.0
 40
3.148219999999999
  1
19.00
 41
0.666666667
100
AcDbText
  0
TEXT
  5
305
330
28
100
AcDbEntity
  8
LABELS
 62
     1
100
AcDbText
 10
86.85399999999999
 20
-470.69222
 30
0.0
 40
3.148219999999999
  1
17.09
 41
0.666666667
100
AcDbText
  0
TEXT
  5
306
330
28
100
AcDbEntity
  8
LABELS
 62
     0
100
AcDbText
 10
75.507
 20
-500.53922
 30
0.0
 40
3.148219999999999
  1
67+825.TIN
 41
0.666666667
100
AcDbText
  0
TEXT
  5
307
330
28
100
AcDbEntity
  8
LABELS
 62
     1
100
AcDbText
 10
1.850999999999999
 20
-586.85022
 30
0.0
 40
3.148219999999999
  1
202510
 41
0.666666667
100
AcDbText
  0
TEXT
  5
308
330
28
100
AcDbEntity
  8
LABELS
 62
     0
100
AcDbText
 10
1.850999999999999
 20
-591.52522
 30
0.0
 40
3.148219999999999
  1
67+825.TIN
 41
0.666666667
100
AcDbText
  0
TEXT
  5
309
330
28
100
AcDbEntity
  8
LABELS
 62
     0
100
AcDbText
 10
30.043
 20
-586.85022
 30
0.0
 40
3.148219999999999
  1
模板
 41
0.666666667
100
AcDbText
  0
TEXT
  5
30A
330
28
100
AcDbEntity
  8
LABELS
 62
     0
100
AcDbText
 10
142.811
 20
-586.85022
 30
0.0
 40
3.148219999999999
  1
DBL 3.00 M:M
 41
0.666666667
100
AcDbText
  0
TEXT
  5
30B
330
28
100
AcDbEntity
  8
LABELS
 62
     0
100
AcDbText
 10
142.811
 20
-591.52522
 30
0.0
 40
3.148219999999999
  1
Depth 0.20 M:M
 41
0.666666667
100
AcDbText
  0
LWPOLYLINE
  5
30C
330
28
100
AcDbEntity
  8
XSECTION
  6
Continuous
 62
     0
100
AcDbPolyline
 90
        2
 70
     0
 43
0.0
 10
15.167
 20
-480.726
 10
46.833
 20
-575.726
  0
LWPOLYLINE
  5
310
330
28
100
AcDbEntity
  8
XSECTION
  6
Continuous
 62
     0
100
AcDbPolyline
 90
        2
 70
     0
 43
0.0
 10
46.833
 20
-575.726
 10
86.003
 20
-575.726
  0
LWPOLYLINE
  5
314
330
28
100
AcDbEntity
  8
XSECTION
  6
Continuous
 62
     0
100
AcDbPolyline
 90
        2
 70
     0
 43
0.0
 10
86.003
 20
-575.726
 10
125.17
 20
-575.726
  0
LWPOLYLINE
  5
318
330
28
100
AcDbEntity
  8
XSECTION
  6
Continuous
 62
     0
100
AcDbPolyline
 90
        2
 70
     0
 43
0.0
 10
125.17
 20
-575.726
 10
156.8369999999999
 20
-480.726
  0
LWPOLYLINE
  5
31C
330
28
100
AcDbEntity
  8
XSECTION
  6
Continuous
 62
     0
100
AcDbPolyline
 90
        2
 70
     0
 43
0.0
 10
15.167
 20
-480.726
 10
46.833
 20
-575.726
  0
LWPOLYLINE
  5
320
330
28
100
AcDbEntity
  8
XSECTION
  6
Continuous
 62
     0
100
AcDbPolyline
 90
        2
 70
     0
 43
0.0
 10
46.833
 20
-575.726
 10
46.833
 20
-575.726
  0
LWPOLYLINE
  5
324
330
28
100
AcDbEntity
  8
XSECTION
  6
Continuous
 62
     0
100
AcDbPolyline
 90
        2
 70
     0
 43
0.0
 10
46.833
 20
-575.726
 10
86.003
 20
-575.726
  0
LWPOLYLINE
  5
328
330
28
100
AcDbEntity
  8
XSECTION
  6
Continuous
 62
     0
100
AcDbPolyline
 90
        2
 70
     0
 43
0.0
 10
86.003
 20
-575.726
 10
125.17
 20
-575.726
  0
LWPOLYLINE
  5
32C
330
28
100
AcDbEntity
  8
XSECTION
  6
Continuous
 62
     0
100
AcDbPolyline
 90
        2
 70
     0
 43
0.0
 10
125.17
 20
-575.726
 10
125.17
 20
-575.726
  0
LWPOLYLINE
  5
330
330
28
100
AcDbEntity
  8
XSECTION
  6
Continuous
 62
     0
100
AcDbPolyline
 90
        2
 70
     0
 43
0.0
 10
125.17
 20
-575.726
 10
156.8369999999999
 20
-480.726
  0
LWPOLYLINE
  5
334
330
28
100
AcDbEntity
  8
XSECTION
  6
Continuous
 62
     1
100
AcDbPolyline
 90
       81
 70
     0
 43
0.0
 10
27.577
 20
-546.726
 10
27.703222222222
 20
-546.875997711182
 10
29.313222222222
 20
-548.326002288818
 10
31.526555555556
 20
-550.425997901917
 10
31.839888888889
 20
-550.6759988555909
 10
34.153222222222
 20
-552.9259979019171
 10
36.293222222222
 20
-553.825999427795
 10
38.159888888889
 20
-555.075999427795
 10
39.146555555556
 20
-555.425997901917
 10
41.00322222222199
 20
-555.875998664856
 10
42.229888888889
 20
-556.3760005722049
 10
42.839888888889
 20
-556.3259994277951
 10
43.826555555556
 20
-556.3259994277951
 10
47.036555555556
 20
-556.0260020980829
 10
48.78988888888899
 20
-555.925999809265
 10
49.666555555556
 20
-555.8260022888179
 10
50.629888888889
 20
-555.8260022888179
 10
52.85988888888899
 20
-555.6259977111819
 10
54.979888888889
 20
-555.925999809265
 10
56.823222222222
 20
-556.3259994277951
 10
61.629888888889
 20
-557.125998664856
 10
61.723222222222
 20
-557.125998664856
 10
62.00655555555599
 20
-557.226000953674
 10
64.073222222222
 20
-558.0260001907349
 10
64.409888888889
 20
-558.0260001907349
 10
65.17322222222201
 20
-557.9259979019171
 10
66.50655555555601
 20
-558.276001144409
 10
67.996555555556
 20
-559.4259988555909
 10
69.68655555555599
 20
-561.8759977111819
 10
71.04655555555599
 20
-562.3259984741209
 10
72.463222222222
 20
-563.226
 10
73.689888888889
 20
-563.1259977111819
 10
75.42322222222201
 20
-564.07600038147
 10
76.836555555556
 20
-565.7259999999999
 10
78.286555555556
 20
-566.8259965667719
 10
80.733222222222
 20
-566.8259965667719
 10
81.10322222222199
 20
-566.9259988555909
 10
82.00988888888899
 20
-566.525999237061
 10
85.003222222222
 20
-565.876003433228
 10
87.086555555556
 20
-566.525999237061
 10
88.06655555555598
 20
-566.7759954223629
 10
89.903222222222
 20
-567.3759996185299
 10
91.84655555555599
 20
-568.0259954223629
 10
92.38322222222199
 20
-568.1259977111819
 10
94.78655555555599
 20
-568.6259996185299
 10
95.09988888888901
 20
-568.676000762939
 10
97.656555555556
 20
-568.826004196167
 10
99.56655555555599
 20
-569.07600038147
 10
101.569888888889
 20
-568.925996948242
 10
102.756555555556
 20
-569.0259992370609
 10
104.976555555556
 20
-568.525997329712
 10
107.016555555556
 20
-568.6259996185299
 10
109.539888888889
 20
-568.1259977111819
 10
109.553222222222
 20
-568.1259977111819
 10
109.669888888889
 20
-568.075996566772
 10
112.989888888889
 20
-567.325998474121
 10
113.853222222222
 20
-567.126003433228
 10
116.266555555556
 20
-566.525999237061
 10
116.919888888889
 20
-566.226001907349
 10
120.199888888889
 20
-565.0260030517578
 10
121.586555555556
 20
-564.526001144409
 10
122.119888888889
 20
-564.4259988555909
 10
125.473222222222
 20
-563.525997329712
 10
128.519888888889
 20
-562.9260026702879
 10
128.996555555556
 20
-562.82600038147
 10
129.413222222222
 20
-562.675996948242
 10
130.716555555556
 20
-562.275997329712
 10
133.576555555556
 20
-561.475998092651
 10
134.873222222222
 20
-561.025997329712
 10
136.323222222222
 20
-560.6259977111819
 10
139.066555555556
 20
-559.526001144409
 10
139.219888888889
 20
-559.4759999999999
 10
139.379888888889
 20
-559.3260013351438
 10
142.316555555556
 20
-557.4760019073489
 10
142.423222222222
 20
-557.3759996185299
 10
144.273222222222
 20
-555.875998664856
 10
146.443222222222
 20
-554.675999809265
 10
147.039888888889
 20
-554.276000190735
 10
147.219888888889
 20
-554.175997901917
 10
147.799888888889
 20
-554.126001525879
 10
148.259888888889
 20
-553.6760007629389
  0
ENDSEC
  0
SECTION
  2
OBJECTS
  0
DICTIONARY
  5
13
330
0
100
AcDbDictionary
281
     1
  3
ACAD_COLOR
350
1F
  3
ACAD_DATALINK
350
87C6
  3
ACAD_GROUP
350
14
  3
ACAD_LAYOUT
350
1A
  3
ACAD_MATERIAL
350
1B
  3
ACAD_MLEADERSTYLE
350
22
  3
ACAD_MLINESTYLE
350
17
  3
ACAD_PLOTSETTINGS
350
19
  3
ACAD_PLOTSTYLENAME
350
15
  3
ACAD_SCALELIST
350
2C
  3
ACAD_TABLESTYLE
350
20
  3
ACAD_VISUALSTYLE
350
87AD
  3
ACDB_RECOMPOSE_DATA
350
87D6
  3
AcDbVariableDictionary
350
87C9
  0
DICTIONARY
  5
1F
102
{ACAD_REACTORS
330
13
102
}
330
13
100
AcDbDictionary
281
     1
  0
DICTIONARY
  5
87C6
102
{ACAD_REACTORS
330
13
102
}
330
13
100
AcDbDictionary
280
     1
281
     1
  0
DICTIONARY
  5
14
102
{ACAD_REACTORS
330
13
102
}
330
13
100
AcDbDictionary
281
     1
  0
DICTIONARY
  5
1A
102
{ACAD_REACTORS
330
13
102
}
330
13
100
AcDbDictionary
281
     1
  3
Model
350
2B
  3
布局1
350
27
  0
DICTIONARY
  5
1B
102
{ACAD_REACTORS
330
13
102
}
330
13
100
AcDbDictionary
281
     1
  3
ByBlock
350
1D
  3
ByLayer
350
1C
  3
Global
350
1E
  0
DICTIONARY
  5
22
102
{ACAD_REACTORS
330
13
102
}
330
13
100
AcDbDictionary
281
     1
  3
Standard
350
23
  0
DICTIONARY
  5
17
102
{ACAD_REACTORS
330
13
102
}
330
13
100
AcDbDictionary
281
     1
  3
Standard
350
18
  0
DICTIONARY
  5
19
102
{ACAD_REACTORS
330
13
102
}
330
13
100
AcDbDictionary
281
     1
  0
ACDBDICTIONARYWDFLT
  5
15
102
{ACAD_REACTORS
330
13
102
}
330
13
100
AcDbDictionary
281
     1
  3
Normal
350
16
100
AcDbDictionaryWithDefault
340
16
  0
DICTIONARY
  5
2C
102
{ACAD_REACTORS
330
13
102
}
330
13
100
AcDbDictionary
281
     1
  3
A0
350
2D
  3
A1
350
2E
  3
A2
350
2F
  3
A3
350
30
  3
A4
350
31
  3
A5
350
32
  3
A6
350
33
  3
A7
350
34
  3
A8
350
35
  3
A9
350
36
  3
B0
350
37
  3
B1
350
38
  3
B2
350
39
  3
B3
350
3A
  3
B4
350
3B
  3
B5
350
3C
  3
B6
350
3D
  0
DICTIONARY
  5
20
102
{ACAD_REACTORS
330
13
102
}
330
13
100
AcDbDictionary
281
     1
  3
Standard
350
21
  0
DICTIONARY
  5
87AD
102
{ACAD_REACTORS
330
13
102
}
330
13
100
AcDbDictionary
281
     1
  3
2dWireframe
350
87B2
  3
Basic
350
87B5
  3
Brighten
350
87B9
  3
ColorChange
350
87BD
  3
Conceptual
350
87B7
  3
Dim
350
87B8
  3
EdgeColorOff
350
87C0
  3
Facepattern
350
87BC
  3
Flat
350
87AE
  3
FlatWithEdges
350
87AF
  3
Gouraud
350
87B0
  3
GouraudWithEdges
350
87B1
  3
Hidden
350
87B4
  3
JitterOff
350
87BE
  3
Linepattern
350
87BB
  3
OverhangOff
350
87BF
  3
Realistic
350
87B6
  3
Shaded
350
87C5
  3
Shaded with edges
350
87C4
  3
Shades of Gray
350
87C1
  3
Sketchy
350
87C2
  3
Thicken
350
87BA
  3
Wireframe
350
87B3
  3
X-Ray
350
87C3
  0
XRECORD
  5
87D6
102
{ACAD_REACTORS
330
13
102
}
330
13
100
AcDbXrecord
280
     1
 90
        1
330
21
  0
DICTIONARY
  5
87C9
102
{ACAD_REACTORS
330
13
102
}
330
13
100
AcDbDictionary
281
     1
  3
CANNOSCALE
350
87CD
  3
CMLEADERSTYLE
350
87CB
  3
CTABLESTYLE
350
87CA
  3
MSLTSCALE
350
87CC
  0
LAYOUT
  5
2B
102
{ACAD_REACTORS
330
1A
102
}
330
1A
100
AcDbPlotSettings
  1

  2
none_device
  4

  6

 40
0.0
 41
0.0
 42
0.0
 43
0.0
 44
0.0
 45
0.0
 46
0.0
 47
0.0
 48
0.0
 49
0.0
140
0.0
141
0.0
142
1.0
143
1.0
 70
  1712
 72
     0
 73
     0
 74
     0
  7

 75
     0
 76
     0
 77
     2
 78
   300
147
1.0
148
0.0
149
0.0
100
AcDbLayout
  1
Model
 70
     1
 71
     0
 10
0.0
 20
0.0
 11
12.0
 21
9.0
 12
0.0
 22
0.0
 32
0.0
 14
0.0
 24
0.0
 34
0.0
 15
0.0
 25
0.0
 35
0.0
146
0.0
 13
0.0
 23
0.0
 33
0.0
 16
1.0
 26
0.0
 36
0.0
 17
0.0
 27
1.0
 37
0.0
 76
     0
330
28
331
3F
  0
LAYOUT
  5
27
102
{ACAD_REACTORS
330
1A
102
}
330
1A
100
AcDbPlotSettings
  1

  2
none_device
  4

  6

 40
0.0
 41
0.0
 42
0.0
 43
0.0
 44
0.0
 45
0.0
 46
0.0
 47
0.0
 48
0.0
 49
0.0
140
0.0
141
0.0
142
1.0
143
1.0
 70
   688
 72
     0
 73
     0
 74
     5
  7

 75
    16
 76
     0
 77
     2
 78
   300
147
1.0
148
0.0
149
0.0
100
AcDbLayout
  1
布局1
 70
     1
 71
     1
 10
0.0
 20
0.0
 11
12.0
 21
9.0
 12
0.0
 22
0.0
 32
0.0
 14
0.0
 24
0.0
 34
0.0
 15
0.0
 25
0.0
 35
0.0
146
0.0
 13
0.0
 23
0.0
 33
0.0
 16
1.0
 26
0.0
 36
0.0
 17
0.0
 27
1.0
 37
0.0
 76
     0
330
24
  0
MATERIAL
  5
1D
102
{ACAD_REACTORS
330
1B
102
}
330
1B
100
AcDbMaterial
  1
ByBlock
 73
     2
 78
     2
172
     2
176
     2
270
     2
274
     2
 94
      127
  0
MATERIAL
  5
1C
102
{ACAD_REACTORS
330
1B
102
}
330
1B
100
AcDbMaterial
  1
ByLayer
 73
     2
 78
     2
172
     2
176
     2
270
     2
274
     2
 94
      127
  0
MATERIAL
  5
1E
102
{ACAD_REACTORS
330
1B
102
}
330
1B
100
AcDbMaterial
  1
Global
 73
     2
 78
     2
172
     2
176
     2
270
     2
274
     2
 94
      127
  0
MLEADERSTYLE
  5
23
102
{ACAD_REACTORS
330
22
102
}
330
22
100
AcDbMLeaderStyle
179
     2
170
     2
171
     1
172
     0
 90
        2
 40
0.0
 41
0.0
173
     1
 91
-1056964608
340
F
 92
       -2
290
     1
 42
0.4
291
     1
 43
2.0
  3
Standard
 44
0.18
300

342
A
174
     1
178
     1
175
     1
176
     0
 93
-1056964608
 45
0.2
292
     0
297
     0
 46
5.0
 94
-1056964608
 47
1.0
 49
1.0
140
1.0
293
     1
141
0.0
294
     1
177
     0
142
1.0
295
     0
296
     0
143
0.125
271
     0
272
     9
273
     9
298
     0
  0
MLINESTYLE
  5
18
102
{ACAD_REACTORS
330
17
102
}
330
17
100
AcDbMlineStyle
  2
STANDARD
 70
     0
  3

 62
   256
 51
90.0
 52
90.0
 71
     2
 49
0.5
 62
   256
  6
BYLAYER
 49
-0.5
 62
   256
  6
BYLAYER
  0
ACDBPLACEHOLDER
  5
16
102
{ACAD_REACTORS
330
15
102
}
330
15
  0
SCALE
  5
2D
102
{ACAD_REACTORS
330
2C
102
}
330
2C
100
AcDbScale
 70
     0
300
1:1
140
1.0
141
1.0
290
     1
  0
SCALE
  5
2E
102
{ACAD_REACTORS
330
2C
102
}
330
2C
100
AcDbScale
 70
     0
300
1:2
140
1.0
141
2.0
290
     0
  0
SCALE
  5
2F
102
{ACAD_REACTORS
330
2C
102
}
330
2C
100
AcDbScale
 70
     0
300
1:4
140
1.0
141
4.0
290
     0
  0
SCALE
  5
30
102
{ACAD_REACTORS
330
2C
102
}
330
2C
100
AcDbScale
 70
     0
300
1:5
140
1.0
141
5.0
290
     0
  0
SCALE
  5
31
102
{ACAD_REACTORS
330
2C
102
}
330
2C
100
AcDbScale
 70
     0
300
1:8
140
1.0
141
8.0
290
     0
  0
SCALE
  5
32
102
{ACAD_REACTORS
330
2C
102
}
330
2C
100
AcDbScale
 70
     0
300
1:10
140
1.0
141
10.0
290
     0
  0
SCALE
  5
33
102
{ACAD_REACTORS
330
2C
102
}
330
2C
100
AcDbScale
 70
     0
300
1:16
140
1.0
141
16.0
290
     0
  0
SCALE
  5
34
102
{ACAD_REACTORS
330
2C
102
}
330
2C
100
AcDbScale
 70
     0
300
1:20
140
1.0
141
20.0
290
     0
  0
SCALE
  5
35
102
{ACAD_REACTORS
330
2C
102
}
330
2C
100
AcDbScale
 70
     0
300
1:30
140
1.0
141
30.0
290
     0
  0
SCALE
  5
36
102
{ACAD_REACTORS
330
2C
102
}
330
2C
100
AcDbScale
 70
     0
300
1:40
140
1.0
141
40.0
290
     0
  0
SCALE
  5
37
102
{ACAD_REACTORS
330
2C
102
}
330
2C
100
AcDbScale
 70
     0
300
1:50
140
1.0
141
50.0
290
     0
  0
SCALE
  5
38
102
{ACAD_REACTORS
330
2C
102
}
330
2C
100
AcDbScale
 70
     0
300
1:100
140
1.0
141
100.0
290
     0
  0
SCALE
  5
39
102
{ACAD_REACTORS
330
2C
102
}
330
2C
100
AcDbScale
 70
     0
300
2:1
140
2.0
141
1.0
290
     0
  0
SCALE
  5
3A
102
{ACAD_REACTORS
330
2C
102
}
330
2C
100
AcDbScale
 70
     0
300
4:1
140
4.0
141
1.0
290
     0
  0
SCALE
  5
3B
102
{ACAD_REACTORS
330
2C
102
}
330
2C
100
AcDbScale
 70
     0
300
8:1
140
8.0
141
1.0
290
     0
  0
SCALE
  5
3C
102
{ACAD_REACTORS
330
2C
102
}
330
2C
100
AcDbScale
 70
     0
300
10:1
140
10.0
141
1.0
290
     0
  0
SCALE
  5
3D
102
{ACAD_REACTORS
330
2C
102
}
330
2C
100
AcDbScale
 70
     0
300
100:1
140
100.0
141
1.0
290
     0
  0
TABLESTYLE
  5
21
102
{ACAD_XDICTIONARY
360
87D4
102
}
102
{ACAD_REACTORS
330
20
102
}
330
20
100
AcDbTableStyle
280
     0
  3
Standard
 70
     0
 71
     0
 40
0.06
 41
0.06
280
     0
281
     0
  7
Standard
140
0.18
170
     2
 62
   256
 63
     7
283
     0
 90
      512
 91
        0
  1

274
    -2
284
     1
 64
     0
275
    -2
285
     1
 65
     0
276
    -2
286
     1
 66
     0
277
    -2
287
     1
 67
     0
278
    -2
288
     1
 68
     0
279
    -2
289
     1
 69
     0
  7
Standard
140
0.25
170
     5
 62
   256
 63
     7
283
     0
 90
      512
 91
        0
  1

274
    -2
284
     1
 64
     0
275
    -2
285
     1
 65
     0
276
    -2
286
     1
 66
     0
277
    -2
287
     1
 67
     0
278
    -2
288
     1
 68
     0
279
    -2
289
     1
 69
     0
  7
Standard
140
0.18
170
     5
 62
   256
 63
     7
283
     0
 90
      512
 91
        0
  1

274
    -2
284
     1
 64
     0
275
    -2
285
     1
 65
     0
276
    -2
286
     1
 66
     0
277
    -2
287
     1
 67
     0
278
    -2
288
     1
 68
     0
279
    -2
289
     1
 69
     0
  0
VISUALSTYLE
  5
87B2
102
{ACAD_REACTORS
330
87AD
102
}
330
87AD
100
AcDbVisualStyle
  2
2dWireframe
 70
     4
177
     3
291
     0
 70
    58
 90
        0
176
     1
 90
        2
176
     1
 90
        0
176
     1
 90
        0
176
     1
 40
0.6
176
     1
 40
30.0
176
     1
 62
     7
420
 16777215
176
     1
 90
        1
176
     1
 90
        4
176
     1
 62
     7
176
     1
 62
   257
176
     1
 90
        1
176
     1
 90
        1
176
     1
 40
1.0
176
     1
 90
        0
176
     1
 62
   257
176
     1
 40
1.0
176
     1
 90
        1
176
     1
 90
        6
176
     1
 90
        2
176
     1
 62
     7
176
     1
 90
        5
176
     1
 90
        0
176
     1
 90
        0
176
     1
290
     0
176
     1
 90
        1
176
     1
 40
0.0
176
     1
 90
        0
176
     1
290
     1
176
     1
290
     1
176
     1
290
     0
176
     1
290
     0
176
     1
290
     0
176
     1
290
     0
176
     1
290
     0
176
     1
290
     0
176
     1
290
     0
176
     1
 90
       50
176
     1
 40
0.0
176
     1
 40
1.0
176
     1
 90
        0
176
     1
 62
    18
420
        0
176
     1
 90
       50
176
     1
 90
        3
176
     1
 62
     5
420
      255
176
     1
290
     0
176
     1
 90
       50
176
     1
 90
       50
176
     1
 90
       50
176
     1
290
     0
176
     1
 90
       50
176
     1
 62
   256
176
     0
 40
1.0
176
     0
 90
        2
176
     1
  1
strokes_ogs.tif
176
     1
290
     0
176
     1
 40
1.0
176
     1
 40
1.0
176
     1
  0
VISUALSTYLE
  5
87B5
102
{ACAD_REACTORS
330
87AD
102
}
330
87AD
100
AcDbVisualStyle
  2
Basic
 70
     7
177
     3
291
     1
 70
    58
 90
        1
176
     1
 90
        0
176
     1
 90
        1
176
     1
 90
        0
176
     1
 40
0.6
176
     1
 40
30.0
176
     1
 62
     7
420
 16777215
176
     1
 90
        0
176
     1
 90
        4
176
     1
 62
     7
176
     1
 62
   257
176
     1
 90
        1
176
     1
 90
        1
176
     1
 40
1.0
176
     1
 90
        8
176
     1
 62
     7
176
     1
 40
1.0
176
     1
 90
        1
176
     1
 90
        6
176
     1
 90
        2
176
     1
 62
     7
176
     1
 90
        5
176
     1
 90
        0
176
     1
 90
        0
176
     1
290
     0
176
     1
 90
        1
176
     1
 40
0.0
176
     1
 90
        0
176
     1
290
     0
176
     1
290
     1
176
     1
290
     1
176
     1
290
     0
176
     1
290
     0
176
     1
290
     0
176
     1
290
     0
176
     1
290
     0
176
     1
290
     0
176
     1
 90
       50
176
     1
 40
0.0
176
     1
 40
1.0
176
     1
 90
        0
176
     1
 62
    18
420
        0
176
     1
 90
       50
176
     1
 90
        3
176
     1
 62
     5
420
      255
176
     1
290
     0
176
     1
 90
       50
176
     1
 90
       50
176
     1
 90
       50
176
     1
290
     0
176
     1
 90
       50
176
     1
 62
   256
176
     0
 40
1.0
176
     0
 90
        2
176
     1
  1
strokes_ogs.tif
176
     1
290
     0
176
     1
 40
1.0
176
     1
 40
1.0
176
     1
  0
VISUALSTYLE
  5
87B9
102
{ACAD_REACTORS
330
87AD
102
}
330
87AD
100
AcDbVisualStyle
  2
Brighten
 70
    12
177
     3
291
     1
 70
    58
 90
        2
176
     1
 90
        2
176
     1
 90
        0
176
     1
 90
        0
176
     1
 40
0.6
176
     1
 40
30.0
176
     1
 62
     7
420
 16777215
176
     1
 90
        1
176
     1
 90
        4
176
     1
 62
     7
176
     1
 62
   257
176
     1
 90
        1
176
     1
 90
        1
176
     1
 40
1.0
176
     1
 90
        8
176
     1
 62
     7
176
     1
 40
1.0
176
     1
 90
        1
176
     1
 90
        6
176
     1
 90
        2
176
     1
 62
     7
176
     1
 90
        5
176
     1
 90
        0
176
     1
 90
        0
176
     1
290
     0
176
     1
 90
        1
176
     1
 40
50.0
176
     1
 90
        0
176
     1
290
     0
176
     1
290
     1
176
     1
290
     1
176
     1
290
     0
176
     1
290
     0
176
     1
290
     0
176
     1
290
     0
176
     1
290
     0
176
     1
290
     0
176
     1
 90
       50
176
     1
 40
0.0
176
     1
 40
1.0
176
     1
 90
        0
176
     1
 62
    18
420
        0
176
     1
 90
       50
176
     1
 90
        3
176
     1
 62
     5
420
      255
176
     1
290
     0
176
     1
 90
       50
176
     1
 90
       50
176
     1
 90
       50
176
     1
290
     0
176
     1
 90
       50
176
     1
 62
   256
176
     0
 40
1.0
176
     0
 90
        2
176
     1
  1
strokes_ogs.tif
176
     1
290
     0
176
     1
 40
1.0
176
     1
 40
1.0
176
     1
  0
VISUALSTYLE
  5
87BD
102
{ACAD_REACTORS
330
87AD
102
}
330
87AD
100
AcDbVisualStyle
  2
ColorChange
 70
    16
177
     3
291
     1
 70
    58
 90
        2
176
     1
 90
        2
176
     1
 90
        3
176
     1
 90
        0
176
     1
 40
0.6
176
     1
 40
30.0
176
     1
 62
     8
420
  8421504
176
     1
 90
        1
176
     1
 90
        4
176
     1
 62
     7
176
     1
 62
   257
176
     1
 90
        1
176
     1
 90
        1
176
     1
 40
1.0
176
     1
 90
        8
176
     1
 62
     8
420
  8421504
176
     1
 40
1.0
176
     1
 90
        1
176
     1
 90
        6
176
     1
 90
        2
176
     1
 62
     7
176
     1
 90
        5
176
     1
 90
        0
176
     1
 90
        0
176
     1
290
     0
176
     1
 90
        1
176
     1
 40
0.0
176
     1
 90
        0
176
     1
290
     0
176
     1
290
     1
176
     1
290
     1
176
     1
290
     0
176
     1
290
     0
176
     1
290
     0
176
     1
290
     0
176
     1
290
     0
176
     1
290
     0
176
     1
 90
       50
176
     1
 40
0.0
176
     1
 40
1.0
176
     1
 90
        0
176
     1
 62
    18
420
        0
176
     1
 90
       50
176
     1
 90
        3
176
     1
 62
     5
420
      255
176
     1
290
     0
176
     1
 90
       50
176
     1
 90
       50
176
     1
 90
       50
176
     1
290
     0
176
     1
 90
       50
176
     1
 62
   256
176
     0
 40
1.0
176
     0
 90
        2
176
     1
  1
strokes_ogs.tif
176
     1
290
     0
176
     1
 40
1.0
176
     1
 40
1.0
176
     1
  0
VISUALSTYLE
  5
87B7
102
{ACAD_REACTORS
330
87AD
102
}
330
87AD
100
AcDbVisualStyle
  2
Conceptual
 70
     9
177
     3
291
     0
 70
    58
 90
        3
176
     1
 90
        2
176
     1
 90
        0
176
     1
 90
        0
176
     1
 40
0.6
176
     1
 40
30.0
176
     1
 62
     7
420
 16777215
176
     1
 90
        2
176
     1
 90
        2
176
     1
 62
     7
176
     1
 62
   257
176
     1
 90
        1
176
     1
 90
        1
176
     1
 40
179.0
176
     1
 90
        8
176
     1
 62
     7
176
     1
 40
1.0
176
     1
 90
        1
176
     1
 90
        6
176
     1
 90
        2
176
     1
 62
     7
176
     1
 90
        3
176
     1
 90
        0
176
     1
 90
        0
176
     1
290
     0
176
     1
 90
        1
176
     1
 40
0.0
176
     1
 90
        0
176
     1
290
     0
176
     1
290
     1
176
     1
290
     1
176
     1
290
     0
176
     1
290
     0
176
     1
290
     0
176
     1
290
     0
176
     1
290
     0
176
     1
290
     0
176
     1
 90
       50
176
     1
 40
0.0
176
     1
 40
1.0
176
     1
 90
        0
176
     1
 62
    18
420
        0
176
     1
 90
       50
176
     1
 90
        3
176
     1
 62
     5
420
      255
176
     1
290
     0
176
     1
 90
       50
176
     1
 90
       50
176
     1
 90
       50
176
     1
290
     0
176
     1
 90
       50
176
     1
 62
   256
176
     0
 40
1.0
176
     0
 90
        2
176
     1
  1
strokes_ogs.tif
176
     1
290
     0
176
     1
 40
1.0
176
     1
 40
1.0
176
     1
  0
VISUALSTYLE
  5
87B8
102
{ACAD_REACTORS
330
87AD
102
}
330
87AD
100
AcDbVisualStyle
  2
Dim
 70
    11
177
     3
291
     1
 70
    58
 90
        2
176
     1
 90
        2
176
     1
 90
        0
176
     1
 90
        0
176
     1
 40
0.6
176
     1
 40
30.0
176
     1
 62
     7
420
 16777215
176
     1
 90
        1
176
     1
 90
        4
176
     1
 62
     7
176
     1
 62
   257
176
     1
 90
        1
176
     1
 90
        1
176
     1
 40
1.0
176
     1
 90
        8
176
     1
 62
     7
176
     1
 40
1.0
176
     1
 90
        1
176
     1
 90
        6
176
     1
 90
        2
176
     1
 62
     7
176
     1
 90
        5
176
     1
 90
        0
176
     1
 90
        0
176
     1
290
     0
176
     1
 90
        1
176
     1
 40
-50.0
176
     1
 90
        0
176
     1
290
     0
176
     1
290
     1
176
     1
290
     1
176
     1
290
     0
176
     1
290
     0
176
     1
290
     0
176
     1
290
     0
176
     1
290
     0
176
     1
290
     0
176
     1
 90
       50
176
     1
 40
0.0
176
     1
 40
1.0
176
     1
 90
        0
176
     1
 62
    18
420
        0
176
     1
 90
       50
176
     1
 90
        3
176
     1
 62
     5
420
      255
176
     1
290
     0
176
     1
 90
       50
176
     1
 90
       50
176
     1
 90
       50
176
     1
290
     0
176
     1
 90
       50
176
     1
 62
   256
176
     0
 40
1.0
176
     0
 90
        2
176
     1
  1
strokes_ogs.tif
176
     1
290
     0
176
     1
 40
1.0
176
     1
 40
1.0
176
     1
  0
VISUALSTYLE
  5
87C0
102
{ACAD_REACTORS
330
87AD
102
}
330
87AD
100
AcDbVisualStyle
  2
EdgeColorOff
 70
    22
177
     3
291
     1
 70
    58
 90
        2
176
     0
 90
        2
176
     0
 90
        0
176
     0
 90
        0
176
     0
 40
0.6
176
     0
 40
30.0
176
     0
 62
     7
420
 16777215
176
     0
 90
        1
176
     0
 90
        4
176
     0
 62
     7
176
     0
 62
   257
176
     0
 90
        1
176
     0
 90
        1
176
     0
 40
1.0
176
     0
 90
        8
176
     2
 62
     7
176
     0
 40
1.0
176
     0
 90
        1
176
     0
 90
        6
176
     0
 90
        2
176
     0
 62
     7
176
     0
 90
        5
176
     0
 90
        0
176
     0
 90
        0
176
     0
290
     0
176
     0
 90
        1
176
     0
 40
0.0
176
     0
 90
        0
176
     0
290
     0
176
     0
290
     1
176
     0
290
     1
176
     0
290
     0
176
     0
290
     0
176
     0
290
     0
176
     0
290
     0
176
     0
290
     0
176
     0
290
     0
176
     0
 90
       50
176
     0
 40
0.0
176
     0
 40
1.0
176
     0
 90
        0
176
     0
 62
    18
420
        0
176
     0
 90
       50
176
     0
 90
        3
176
     0
 62
     5
420
      255
176
     0
290
     0
176
     0
 90
       50
176
     0
 90
       50
176
     0
 90
       50
176
     0
290
     0
176
     0
 90
       50
176
     0
 62
   256
176
     0
 40
1.0
176
     0
 90
        2
176
     0
  1
strokes_ogs.tif
176
     0
290
     0
176
     0
 40
1.0
176
     0
 40
1.0
176
     0
  0
VISUALSTYLE
  5
87BC
102
{ACAD_REACTORS
330
87AD
102
}
330
87AD
100
AcDbVisualStyle
  2
Facepattern
 70
    15
177
     3
291
     1
 70
    58
 90
        2
176
     1
 90
        2
176
     1
 90
        0
176
     1
 90
        0
176
     1
 40
0.6
176
     1
 40
30.0
176
     1
 62
     7
420
 16777215
176
     1
 90
        1
176
     1
 90
        4
176
     1
 62
     7
176
     1
 62
   257
176
     1
 90
        1
176
     1
 90
        1
176
     1
 40
1.0
176
     1
 90
        8
176
     1
 62
     7
176
     1
 40
1.0
176
     1
 90
        1
176
     1
 90
        6
176
     1
 90
        2
176
     1
 62
     7
176
     1
 90
        5
176
     1
 90
        0
176
     1
 90
        0
176
     1
290
     0
176
     1
 90
        1
176
     1
 40
0.0
176
     1
 90
        0
176
     1
290
     0
176
     1
290
     1
176
     1
290
     1
176
     1
290
     0
176
     1
290
     0
176
     1
290
     0
176
     1
290
     0
176
     1
290
     0
176
     1
290
     0
176
     1
 90
       50
176
     1
 40
0.0
176
     1
 40
1.0
176
     1
 90
        0
176
     1
 62
    18
420
        0
176
     1
 90
       50
176
     1
 90
        3
176
     1
 62
     5
420
      255
176
     1
290
     0
176
     1
 90
       50
176
     1
 90
       50
176
     1
 90
       50
176
     1
290
     0
176
     1
 90
       50
176
     1
 62
   256
176
     0
 40
1.0
176
     0
 90
        2
176
     1
  1
strokes_ogs.tif
176
     1
290
     0
176
     1
 40
1.0
176
     1
 40
1.0
176
     1
  0
VISUALSTYLE
  5
87AE
102
{ACAD_REACTORS
330
87AD
102
}
330
87AD
100
AcDbVisualStyle
  2
Flat
 70
     0
177
     3
291
     1
 70
    58
 90
        2
176
     1
 90
        1
176
     1
 90
        1
176
     1
 90
        2
176
     1
 40
0.6
176
     1
 40
30.0
176
     1
 62
     7
420
 16777215
176
     1
 90
        0
176
     1
 90
        0
176
     1
 62
     7
176
     1
 62
   257
176
     1
 90
        1
176
     1
 90
        1
176
     1
 40
1.0
176
     1
 90
        8
176
     1
 62
     7
176
     1
 40
1.0
176
     1
 90
        1
176
     1
 90
        6
176
     1
 90
        2
176
     1
 62
     7
176
     1
 90
        5
176
     1
 90
        0
176
     1
 90
        0
176
     1
290
     0
176
     1
 90
       13
176
     1
 40
0.0
176
     1
 90
        0
176
     1
290
     0
176
     1
290
     1
176
     1
290
     1
176
     1
290
     0
176
     1
290
     0
176
     1
290
     0
176
     1
290
     0
176
     1
290
     0
176
     1
290
     0
176
     1
 90
       50
176
     1
 40
0.0
176
     1
 40
1.0
176
     1
 90
        0
176
     1
 62
    18
420
        0
176
     1
 90
       50
176
     1
 90
        3
176
     1
 62
     5
420
      255
176
     1
290
     0
176
     1
 90
       50
176
     1
 90
       50
176
     1
 90
       50
176
     1
290
     0
176
     1
 90
       50
176
     1
 62
   256
176
     0
 40
1.0
176
     0
 90
        2
176
     1
  1
strokes_ogs.tif
176
     1
290
     0
176
     1
 40
1.0
176
     1
 40
1.0
176
     1
  0
VISUALSTYLE
  5
87AF
102
{ACAD_REACTORS
330
87AD
102
}
330
87AD
100
AcDbVisualStyle
  2
FlatWithEdges
 70
     1
177
     3
291
     1
 70
    58
 90
        2
176
     1
 90
        1
176
     1
 90
        1
176
     1
 90
        2
176
     1
 40
0.6
176
     1
 40
30.0
176
     1
 62
     7
420
 16777215
176
     1
 90
        1
176
     1
 90
        0
176
     1
 62
     7
176
     1
 62
   257
176
     1
 90
        1
176
     1
 90
        1
176
     1
 40
1.0
176
     1
 90
        0
176
     1
 62
   257
176
     1
 40
1.0
176
     1
 90
        1
176
     1
 90
        6
176
     1
 90
        2
176
     1
 62
     7
176
     1
 90
        5
176
     1
 90
        0
176
     1
 90
        0
176
     1
290
     0
176
     1
 90
       13
176
     1
 40
0.0
176
     1
 90
        0
176
     1
290
     0
176
     1
290
     1
176
     1
290
     1
176
     1
290
     0
176
     1
290
     0
176
     1
290
     0
176
     1
290
     0
176
     1
290
     0
176
     1
290
     0
176
     1
 90
       50
176
     1
 40
0.0
176
     1
 40
1.0
176
     1
 90
        0
176
     1
 62
    18
420
        0
176
     1
 90
       50
176
     1
 90
        3
176
     1
 62
     5
420
      255
176
     1
290
     0
176
     1
 90
       50
176
     1
 90
       50
176
     1
 90
       50
176
     1
290
     0
176
     1
 90
       50
176
     1
 62
   256
176
     0
 40
1.0
176
     0
 90
        2
176
     1
  1
strokes_ogs.tif
176
     1
290
     0
176
     1
 40
1.0
176
     1
 40
1.0
176
     1
  0
VISUALSTYLE
  5
87B0
102
{ACAD_REACTORS
330
87AD
102
}
330
87AD
100
AcDbVisualStyle
  2
Gouraud
 70
     2
177
     3
291
     1
 70
    58
 90
        2
176
     1
 90
        2
176
     1
 90
        1
176
     1
 90
        2
176
     1
 40
0.6
176
     1
 40
30.0
176
     1
 62
     7
420
 16777215
176
     1
 90
        0
176
     1
 90
        0
176
     1
 62
     7
176
     1
 62
   257
176
     1
 90
        1
176
     1
 90
        1
176
     1
 40
1.0
176
     1
 90
        0
176
     1
 62
     7
176
     1
 40
1.0
176
     1
 90
        1
176
     1
 90
        6
176
     1
 90
        2
176
     1
 62
     7
176
     1
 90
        5
176
     1
 90
        0
176
     1
 90
        0
176
     1
290
     0
176
     1
 90
       13
176
     1
 40
0.0
176
     1
 90
        0
176
     1
290
     0
176
     1
290
     1
176
     1
290
     1
176
     1
290
     0
176
     1
290
     0
176
     1
290
     0
176
     1
290
     0
176
     1
290
     0
176
     1
290
     0
176
     1
 90
       50
176
     1
 40
0.0
176
     1
 40
1.0
176
     1
 90
        0
176
     1
 62
    18
420
        0
176
     1
 90
       50
176
     1
 90
        3
176
     1
 62
     5
420
      255
176
     1
290
     0
176
     1
 90
       50
176
     1
 90
       50
176
     1
 90
       50
176
     1
290
     0
176
     1
 90
       50
176
     1
 62
   256
176
     0
 40
1.0
176
     0
 90
        2
176
     1
  1
strokes_ogs.tif
176
     1
290
     0
176
     1
 40
1.0
176
     1
 40
1.0
176
     1
  0
VISUALSTYLE
  5
87B1
102
{ACAD_REACTORS
330
87AD
102
}
330
87AD
100
AcDbVisualStyle
  2
GouraudWithEdges
 70
     3
177
     3
291
     1
 70
    58
 90
        2
176
     1
 90
        2
176
     1
 90
        1
176
     1
 90
        2
176
     1
 40
0.6
176
     1
 40
30.0
176
     1
 62
     7
420
 16777215
176
     1
 90
        1
176
     1
 90
        0
176
     1
 62
     7
176
     1
 62
   257
176
     1
 90
        1
176
     1
 90
        1
176
     1
 40
1.0
176
     1
 90
        0
176
     1
 62
   257
176
     1
 40
1.0
176
     1
 90
        1
176
     1
 90
        6
176
     1
 90
        2
176
     1
 62
     7
176
     1
 90
        5
176
     1
 90
        0
176
     1
 90
        0
176
     1
290
     0
176
     1
 90
       13
176
     1
 40
0.0
176
     1
 90
        0
176
     1
290
     0
176
     1
290
     1
176
     1
290
     1
176
     1
290
     0
176
     1
290
     0
176
     1
290
     0
176
     1
290
     0
176
     1
290
     0
176
     1
290
     0
176
     1
 90
       50
176
     1
 40
0.0
176
     1
 40
1.0
176
     1
 90
        0
176
     1
 62
    18
420
        0
176
     1
 90
       50
176
     1
 90
        3
176
     1
 62
     5
420
      255
176
     1
290
     0
176
     1
 90
       50
176
     1
 90
       50
176
     1
 90
       50
176
     1
290
     0
176
     1
 90
       50
176
     1
 62
   256
176
     0
 40
1.0
176
     0
 90
        2
176
     1
  1
strokes_ogs.tif
176
     1
290
     0
176
     1
 40
1.0
176
     1
 40
1.0
176
     1
  0
VISUALSTYLE
  5
87B4
102
{ACAD_REACTORS
330
87AD
102
}
330
87AD
100
AcDbVisualStyle
  2
Hidden
 70
     6
177
     3
291
     0
 70
    58
 90
        1
176
     1
 90
        2
176
     1
 90
        2
176
     1
 90
        0
176
     1
 40
0.6
176
     1
 40
30.0
176
     1
 62
     7
420
 16777215
176
     1
 90
        2
176
     1
 90
        2
176
     1
 62
     7
176
     1
 62
   257
176
     1
 90
        2
176
     1
 90
        1
176
     1
 40
40.0
176
     1
 90
        0
176
     1
 62
   257
176
     1
 40
1.0
176
     1
 90
        1
176
     1
 90
        6
176
     1
 90
        2
176
     1
 62
     7
176
     1
 90
        3
176
     1
 90
        0
176
     1
 90
        0
176
     1
290
     0
176
     1
 90
        1
176
     1
 40
0.0
176
     1
 90
        0
176
     1
290
     0
176
     1
290
     1
176
     1
290
     1
176
     1
290
     0
176
     1
290
     0
176
     1
290
     0
176
     1
290
     0
176
     1
290
     0
176
     1
290
     0
176
     1
 90
       50
176
     1
 40
0.0
176
     1
 40
1.0
176
     1
 90
        0
176
     1
 62
    18
420
        0
176
     1
 90
       50
176
     1
 90
        3
176
     1
 62
     5
420
      255
176
     1
290
     0
176
     1
 90
       50
176
     1
 90
       50
176
     1
 90
       50
176
     1
290
     0
176
     1
 90
       50
176
     1
 62
   256
176
     0
 40
1.0
176
     0
 90
        2
176
     1
  1
strokes_ogs.tif
176
     1
290
     0
176
     1
 40
1.0
176
     1
 40
1.0
176
     1
  0
VISUALSTYLE
  5
87BE
102
{ACAD_REACTORS
330
87AD
102
}
330
87AD
100
AcDbVisualStyle
  2
JitterOff
 70
    20
177
     3
291
     1
 70
    58
 90
        2
176
     0
 90
        2
176
     0
 90
        0
176
     0
 90
        0
176
     0
 40
0.6
176
     0
 40
30.0
176
     0
 62
     7
420
 16777215
176
     0
 90
        1
176
     0
 90
        4
176
     0
 62
     7
176
     0
 62
   257
176
     0
 90
        1
176
     0
 90
        1
176
     0
 40
1.0
176
     0
 90
       10
176
     2
 62
     7
176
     0
 40
1.0
176
     0
 90
        1
176
     0
 90
        6
176
     0
 90
        2
176
     0
 62
     7
176
     0
 90
        5
176
     0
 90
        0
176
     0
 90
        0
176
     0
290
     0
176
     0
 90
        1
176
     0
 40
0.0
176
     0
 90
        0
176
     0
290
     0
176
     0
290
     1
176
     0
290
     1
176
     0
290
     0
176
     0
290
     0
176
     0
290
     0
176
     0
290
     0
176
     0
290
     0
176
     0
290
     0
176
     0
 90
       50
176
     0
 40
0.0
176
     0
 40
1.0
176
     0
 90
        0
176
     0
 62
    18
420
        0
176
     0
 90
       50
176
     0
 90
        3
176
     0
 62
     5
420
      255
176
     0
290
     0
176
     0
 90
       50
176
     0
 90
       50
176
     0
 90
       50
176
     0
290
     0
176
     0
 90
       50
176
     0
 62
   256
176
     0
 40
1.0
176
     0
 90
        2
176
     0
  1
strokes_ogs.tif
176
     0
290
     0
176
     0
 40
1.0
176
     0
 40
1.0
176
     0
  0
VISUALSTYLE
  5
87BB
102
{ACAD_REACTORS
330
87AD
102
}
330
87AD
100
AcDbVisualStyle
  2
Linepattern
 70
    14
177
     3
291
     1
 70
    58
 90
        2
176
     1
 90
        2
176
     1
 90
        0
176
     1
 90
        0
176
     1
 40
0.6
176
     1
 40
30.0
176
     1
 62
     7
420
 16777215
176
     1
 90
        1
176
     1
 90
        4
176
     1
 62
     7
176
     1
 62
   257
176
     1
 90
        7
176
     1
 90
        7
176
     1
 40
1.0
176
     1
 90
        8
176
     1
 62
     7
176
     1
 40
1.0
176
     1
 90
        1
176
     1
 90
        6
176
     1
 90
        2
176
     1
 62
     7
176
     1
 90
        5
176
     1
 90
        0
176
     1
 90
        0
176
     1
290
     0
176
     1
 90
        1
176
     1
 40
0.0
176
     1
 90
        0
176
     1
290
     0
176
     1
290
     1
176
     1
290
     1
176
     1
290
     0
176
     1
290
     0
176
     1
290
     0
176
     1
290
     0
176
     1
290
     0
176
     1
290
     0
176
     1
 90
       50
176
     1
 40
0.0
176
     1
 40
1.0
176
     1
 90
        0
176
     1
 62
    18
420
        0
176
     1
 90
       50
176
     1
 90
        3
176
     1
 62
     5
420
      255
176
     1
290
     0
176
     1
 90
       50
176
     1
 90
       50
176
     1
 90
       50
176
     1
290
     0
176
     1
 90
       50
176
     1
 62
   256
176
     0
 40
1.0
176
     0
 90
        2
176
     1
  1
strokes_ogs.tif
176
     1
290
     0
176
     1
 40
1.0
176
     1
 40
1.0
176
     1
  0
VISUALSTYLE
  5
87BF
102
{ACAD_REACTORS
330
87AD
102
}
330
87AD
100
AcDbVisualStyle
  2
OverhangOff
 70
    21
177
     3
291
     1
 70
    58
 90
        2
176
     0
 90
        2
176
     0
 90
        0
176
     0
 90
        0
176
     0
 40
0.6
176
     0
 40
30.0
176
     0
 62
     7
420
 16777215
176
     0
 90
        1
176
     0
 90
        4
176
     0
 62
     7
176
     0
 62
   257
176
     0
 90
        1
176
     0
 90
        1
176
     0
 40
1.0
176
     0
 90
        9
176
     2
 62
     7
176
     0
 40
1.0
176
     0
 90
        1
176
     0
 90
        6
176
     0
 90
        2
176
     0
 62
     7
176
     0
 90
        5
176
     0
 90
        0
176
     0
 90
        0
176
     0
290
     0
176
     0
 90
        1
176
     0
 40
0.0
176
     0
 90
        0
176
     0
290
     0
176
     0
290
     1
176
     0
290
     1
176
     0
290
     0
176
     0
290
     0
176
     0
290
     0
176
     0
290
     0
176
     0
290
     0
176
     0
290
     0
176
     0
 90
       50
176
     0
 40
0.0
176
     0
 40
1.0
176
     0
 90
        0
176
     0
 62
    18
420
        0
176
     0
 90
       50
176
     0
 90
        3
176
     0
 62
     5
420
      255
176
     0
290
     0
176
     0
 90
       50
176
     0
 90
       50
176
     0
 90
       50
176
     0
290
     0
176
     0
 90
       50
176
     0
 62
   256
176
     0
 40
1.0
176
     0
 90
        2
176
     0
  1
strokes_ogs.tif
176
     0
290
     0
176
     0
 40
1.0
176
     0
 40
1.0
176
     0
  0
VISUALSTYLE
  5
87B6
102
{ACAD_REACTORS
330
87AD
102
}
330
87AD
100
AcDbVisualStyle
  2
Realistic
 70
     8
177
     3
291
     0
 70
    58
 90
        2
176
     1
 90
        3
176
     1
 90
        0
176
     1
 90
        2
176
     1
 40
0.6
176
     1
 40
30.0
176
     1
 62
     7
420
 16777215
176
     1
 90
        0
176
     1
 90
        0
176
     1
 62
     7
176
     1
 62
   257
176
     1
 90
        1
176
     1
 90
        1
176
     1
 40
1.0
176
     1
 90
        8
176
     1
 62
   257
176
     1
 40
1.0
176
     1
 90
        1
176
     1
 90
        6
176
     1
 90
        2
176
     1
 62
     7
176
     1
 90
        3
176
     1
 90
        0
176
     1
 90
        0
176
     1
290
     0
176
     1
 90
       13
176
     1
 40
0.0
176
     1
 90
        0
176
     1
290
     0
176
     1
290
     1
176
     1
290
     1
176
     1
290
     0
176
     1
290
     0
176
     1
290
     0
176
     1
290
     0
176
     1
290
     0
176
     1
290
     0
176
     1
 90
       50
176
     1
 40
0.0
176
     1
 40
1.0
176
     1
 90
        0
176
     1
 62
    18
420
        0
176
     1
 90
       50
176
     1
 90
        3
176
     1
 62
     5
420
      255
176
     1
290
     0
176
     1
 90
       50
176
     1
 90
       50
176
     1
 90
       50
176
     1
290
     0
176
     1
 90
       50
176
     1
 62
   256
176
     0
 40
1.0
176
     0
 90
        2
176
     1
  1
strokes_ogs.tif
176
     1
290
     0
176
     1
 40
1.0
176
     1
 40
1.0
176
     1
  0
VISUALSTYLE
  5
87C5
102
{ACAD_REACTORS
330
87AD
102
}
330
87AD
100
AcDbVisualStyle
  2
Shaded
 70
    27
177
     3
291
     0
 70
    58
 90
        2
176
     1
 90
        2
176
     1
 90
        1
176
     1
 90
        2
176
     1
 40
0.6
176
     1
 40
30.0
176
     1
 62
     7
420
 16777215
176
     1
 90
        0
176
     1
 90
        4
176
     1
 62
     7
176
     1
 62
   257
176
     1
 90
        1
176
     1
 90
        1
176
     1
 40
1.0
176
     1
 90
        8
176
     1
 62
   257
176
     1
 40
1.0
176
     1
 90
        1
176
     1
 90
        6
176
     1
 90
        2
176
     1
 62
     8
420
  7895160
176
     1
 90
        3
176
     1
 90
        0
176
     1
 90
        0
176
     1
290
     0
176
     1
 90
        5
176
     1
 40
0.0
176
     1
 90
        0
176
     1
290
     0
176
     1
290
     1
176
     1
290
     1
176
     1
290
     0
176
     1
290
     0
176
     1
290
     0
176
     1
290
     0
176
     1
290
     0
176
     1
290
     0
176
     1
 90
       50
176
     1
 40
0.0
176
     1
 40
1.0
176
     1
 90
        0
176
     1
 62
    18
420
        0
176
     1
 90
       50
176
     1
 90
        3
176
     1
 62
     5
420
      255
176
     1
290
     0
176
     1
 90
       50
176
     1
 90
       50
176
     1
 90
       50
176
     1
290
     0
176
     1
 90
       50
176
     1
 62
   256
176
     0
 40
1.0
176
     0
 90
        2
176
     1
  1
strokes_ogs.tif
176
     1
290
     0
176
     1
 40
1.0
176
     1
 40
1.0
176
     1
  0
VISUALSTYLE
  5
87C4
102
{ACAD_REACTORS
330
87AD
102
}
330
87AD
100
AcDbVisualStyle
  2
Shaded with edges
 70
    26
177
     3
291
     0
 70
    58
 90
        2
176
     1
 90
        2
176
     1
 90
        1
176
     1
 90
        2
176
     1
 40
0.6
176
     1
 40
30.0
176
     1
 62
     7
420
 16777215
176
     1
 90
        1
176
     1
 90
       10
176
     1
 62
     7
176
     1
 62
   257
176
     1
 90
        2
176
     1
 90
        1
176
     1
 40
1.0
176
     1
 90
        8
176
     1
 62
   257
176
     1
 40
1.0
176
     1
 90
        1
176
     1
 90
        6
176
     1
 90
        2
176
     1
 62
     7
176
     1
 90
        3
176
     1
 90
        0
176
     1
 90
        0
176
     1
290
     0
176
     1
 90
        5
176
     1
 40
0.0
176
     1
 90
        0
176
     1
290
     0
176
     1
290
     1
176
     1
290
     1
176
     1
290
     0
176
     1
290
     0
176
     1
290
     0
176
     1
290
     0
176
     1
290
     0
176
     1
290
     0
176
     1
 90
       50
176
     1
 40
0.0
176
     1
 40
1.0
176
     1
 90
        0
176
     1
 62
    18
420
        0
176
     1
 90
       50
176
     1
 90
        3
176
     1
 62
     5
420
      255
176
     1
290
     0
176
     1
 90
       50
176
     1
 90
       50
176
     1
 90
       50
176
     1
290
     0
176
     1
 90
       50
176
     1
 62
   256
176
     0
 40
1.0
176
     0
 90
        2
176
     1
  1
strokes_ogs.tif
176
     1
290
     0
176
     1
 40
1.0
176
     1
 40
1.0
176
     1
  0
VISUALSTYLE
  5
87C1
102
{ACAD_REACTORS
330
87AD
102
}
330
87AD
100
AcDbVisualStyle
  2
Shades of Gray
 70
    23
177
     3
291
     0
 70
    58
 90
        2
176
     1
 90
        2
176
     1
 90
        3
176
     1
 90
        0
176
     1
 40
0.6
176
     1
 40
30.0
176
     1
 62
     7
420
 16777215
176
     1
 90
        2
176
     1
 90
        2
176
     1
 62
     7
176
     1
 62
     7
176
     1
 90
        1
176
     1
 90
        1
176
     1
 40
40.0
176
     1
 90
        8
176
     1
 62
     7
176
     1
 40
1.0
176
     1
 90
        1
176
     1
 90
        6
176
     1
 90
        2
176
     1
 62
     7
176
     1
 90
        3
176
     1
 90
        0
176
     1
 90
        0
176
     1
290
     0
176
     1
 90
        1
176
     1
 40
0.0
176
     1
 90
        0
176
     1
290
     0
176
     1
290
     1
176
     1
290
     1
176
     1
290
     0
176
     1
290
     0
176
     1
290
     0
176
     1
290
     0
176
     1
290
     0
176
     1
290
     0
176
     1
 90
       50
176
     1
 40
0.0
176
     1
 40
1.0
176
     1
 90
        0
176
     1
 62
    18
420
        0
176
     1
 90
       50
176
     1
 90
        3
176
     1
 62
     5
420
      255
176
     1
290
     0
176
     1
 90
       50
176
     1
 90
       50
176
     1
 90
       50
176
     1
290
     0
176
     1
 90
       50
176
     1
 62
   256
176
     0
 40
1.0
176
     0
 90
        2
176
     1
  1
strokes_ogs.tif
176
     1
290
     0
176
     1
 40
1.0
176
     1
 40
1.0
176
     1
  0
VISUALSTYLE
  5
87C2
102
{ACAD_REACTORS
330
87AD
102
}
330
87AD
100
AcDbVisualStyle
  2
Sketchy
 70
    24
177
     3
291
     0
 70
    58
 90
        1
176
     1
 90
        2
176
     1
 90
        2
176
     1
 90
        0
176
     1
 40
0.6
176
     1
 40
30.0
176
     1
 62
     7
420
 16777215
176
     1
 90
        2
176
     1
 90
        2
176
     1
 62
     7
176
     1
 62
     7
176
     1
 90
        1
176
     1
 90
        1
176
     1
 40
40.0
176
     1
 90
       11
176
     1
 62
     7
176
     1
 40
1.0
176
     1
 90
        1
176
     1
 90
        6
176
     1
 90
        2
176
     1
 62
     7
176
     1
 90
        6
176
     1
 90
        0
176
     1
 90
        0
176
     1
290
     0
176
     1
 90
        1
176
     1
 40
0.0
176
     1
 90
        0
176
     1
290
     0
176
     1
290
     1
176
     1
290
     1
176
     1
290
     0
176
     1
290
     0
176
     1
290
     0
176
     1
290
     0
176
     1
290
     0
176
     1
290
     0
176
     1
 90
       50
176
     1
 40
0.0
176
     1
 40
1.0
176
     1
 90
        0
176
     1
 62
    18
420
        0
176
     1
 90
       50
176
     1
 90
        3
176
     1
 62
     5
420
      255
176
     1
290
     0
176
     1
 90
       50
176
     1
 90
       50
176
     1
 90
       50
176
     1
290
     0
176
     1
 90
       50
176
     1
 62
   256
176
     0
 40
1.0
176
     0
 90
        2
176
     1
  1
strokes_ogs.tif
176
     1
290
     0
176
     1
 40
1.0
176
     1
 40
1.0
176
     1
  0
VISUALSTYLE
  5
87BA
102
{ACAD_REACTORS
330
87AD
102
}
330
87AD
100
AcDbVisualStyle
  2
Thicken
 70
    13
177
     3
291
     1
 70
    58
 90
        2
176
     1
 90
        2
176
     1
 90
        0
176
     1
 90
        0
176
     1
 40
0.6
176
     1
 40
30.0
176
     1
 62
     7
420
 16777215
176
     1
 90
        1
176
     1
 90
        4
176
     1
 62
     7
176
     1
 62
   257
176
     1
 90
        1
176
     1
 90
        1
176
     1
 40
1.0
176
     1
 90
       12
176
     1
 62
     7
176
     1
 40
1.0
176
     1
 90
        1
176
     1
 90
        6
176
     1
 90
        2
176
     1
 62
     7
176
     1
 90
        5
176
     1
 90
        0
176
     1
 90
        0
176
     1
290
     0
176
     1
 90
        1
176
     1
 40
0.0
176
     1
 90
        0
176
     1
290
     0
176
     1
290
     1
176
     1
290
     1
176
     1
290
     0
176
     1
290
     0
176
     1
290
     0
176
     1
290
     0
176
     1
290
     0
176
     1
290
     0
176
     1
 90
       50
176
     1
 40
0.0
176
     1
 40
1.0
176
     1
 90
        0
176
     1
 62
    18
420
        0
176
     1
 90
       50
176
     1
 90
        3
176
     1
 62
     5
420
      255
176
     1
290
     0
176
     1
 90
       50
176
     1
 90
       50
176
     1
 90
       50
176
     1
290
     0
176
     1
 90
       50
176
     1
 62
   256
176
     0
 40
1.0
176
     0
 90
        2
176
     1
  1
strokes_ogs.tif
176
     1
290
     0
176
     1
 40
1.0
176
     1
 40
1.0
176
     1
  0
VISUALSTYLE
  5
87B3
102
{ACAD_REACTORS
330
87AD
102
}
330
87AD
100
AcDbVisualStyle
  2
Wireframe
 70
     5
177
     3
291
     0
 70
    58
 90
        0
176
     1
 90
        2
176
     1
 90
        0
176
     1
 90
        0
176
     1
 40
0.6
176
     1
 40
30.0
176
     1
 62
     7
420
 16777215
176
     1
 90
        1
176
     1
 90
        4
176
     1
 62
     7
176
     1
 62
   257
176
     1
 90
        1
176
     1
 90
        1
176
     1
 40
1.0
176
     1
 90
        0
176
     1
 62
   257
176
     1
 40
1.0
176
     1
 90
        1
176
     1
 90
        6
176
     1
 90
        2
176
     1
 62
     7
176
     1
 90
        3
176
     1
 90
        0
176
     1
 90
        0
176
     1
290
     0
176
     1
 90
        1
176
     1
 40
0.0
176
     1
 90
        0
176
     1
290
     0
176
     1
290
     1
176
     1
290
     1
176
     1
290
     0
176
     1
290
     0
176
     1
290
     0
176
     1
290
     0
176
     1
290
     0
176
     1
290
     0
176
     1
 90
       50
176
     1
 40
0.0
176
     1
 40
1.0
176
     1
 90
        0
176
     1
 62
    18
420
        0
176
     1
 90
       50
176
     1
 90
        3
176
     1
 62
     5
420
      255
176
     1
290
     0
176
     1
 90
       50
176
     1
 90
       50
176
     1
 90
       50
176
     1
290
     0
176
     1
 90
       50
176
     1
 62
   256
176
     0
 40
1.0
176
     0
 90
        2
176
     1
  1
strokes_ogs.tif
176
     1
290
     0
176
     1
 40
1.0
176
     1
 40
1.0
176
     1
  0
VISUALSTYLE
  5
87C3
102
{ACAD_REACTORS
330
87AD
102
}
330
87AD
100
AcDbVisualStyle
  2
X-Ray
 70
    25
177
     3
291
     0
 70
    58
 90
        2
176
     1
 90
        2
176
     1
 90
        1
176
     1
 90
        1
176
     1
 40
0.5
176
     1
 40
30.0
176
     1
 62
     7
420
 16777215
176
     1
 90
        1
176
     1
 90
        0
176
     1
 62
     7
176
     1
 62
   257
176
     1
 90
        1
176
     1
 90
        1
176
     1
 40
1.0
176
     1
 90
        8
176
     1
 62
     7
176
     1
 40
1.0
176
     1
 90
        1
176
     1
 90
        6
176
     1
 90
        2
176
     1
 62
     7
176
     1
 90
        3
176
     1
 90
        0
176
     1
 90
        0
176
     1
290
     0
176
     1
 90
       13
176
     1
 40
0.0
176
     1
 90
        0
176
     1
290
     0
176
     1
290
     1
176
     1
290
     1
176
     1
290
     0
176
     1
290
     0
176
     1
290
     0
176
     1
290
     0
176
     1
290
     0
176
     1
290
     0
176
     1
 90
       50
176
     1
 40
0.0
176
     1
 40
1.0
176
     1
 90
        0
176
     1
 62
    18
420
        0
176
     1
 90
       50
176
     1
 90
        3
176
     1
 62
     5
420
      255
176
     1
290
     0
176
     1
 90
       50
176
     1
 90
       50
176
     1
 90
       50
176
     1
290
     0
176
     1
 90
       50
176
     1
 62
   256
176
     0
 40
1.0
176
     0
 90
        2
176
     1
  1
strokes_ogs.tif
176
     1
290
     0
176
     1
 40
1.0
176
     1
 40
1.0
176
     1
  0
DICTIONARYVAR
  5
87CD
102
{ACAD_REACTORS
330
87C9
102
}
330
87C9
100
DictionaryVariables
280
     0
  1
1:1
  0
DICTIONARYVAR
  5
87CB
102
{ACAD_REACTORS
330
87C9
102
}
330
87C9
100
DictionaryVariables
280
     0
  1
Standard
  0
DICTIONARYVAR
  5
87CA
102
{ACAD_REACTORS
330
87C9
102
}
330
87C9
100
DictionaryVariables
280
     0
  1
Standard
  0
DICTIONARYVAR
  5
87CC
102
{ACAD_REACTORS
330
87C9
102
}
330
87C9
100
DictionaryVariables
280
     0
  1
0
  0
DICTIONARY
  5
87D4
330
21
100
AcDbDictionary
280
     1
281
     1
  3
ACAD_ROUNDTRIP_2008_TABLESTYLE_CELLSTYLEMAP
360
87D5
  0
CELLSTYLEMAP
  5
87D5
102
{ACAD_REACTORS
330
87D4
102
}
330
87D4
100
AcDbCellStyleMap
 90
        3
300
CELLSTYLE
  1
TABLEFORMAT_BEGIN
 90
        5
170
     1
 91
        0
 92
    32768
 62
   257
 93
        1
300
CONTENTFORMAT
  1
CONTENTFORMAT_BEGIN
 90
        0
 91
        0
 92
      512
 93
        0
300

 40
0.0
140
1.0
 94
        5
 62
   256
340
A
144
0.25
309
CONTENTFORMAT_END
171
     0
 94
        0
309
TABLEFORMAT_END
  1
CELLSTYLE_BEGIN
 90
        1
 91
        1
300
_TITLE
309
CELLSTYLE_END
300
CELLSTYLE
  1
TABLEFORMAT_BEGIN
 90
        5
170
     1
 91
        0
 92
        0
 62
   257
 93
        1
300
CONTENTFORMAT
  1
CONTENTFORMAT_BEGIN
 90
        0
 91
        0
 92
      512
 93
        0
300

 40
0.0
140
1.0
 94
        5
 62
   256
340
A
144
0.18
309
CONTENTFORMAT_END
171
     0
 94
        0
309
TABLEFORMAT_END
  1
CELLSTYLE_BEGIN
 90
        2
 91
        1
300
_HEADER
309
CELLSTYLE_END
300
CELLSTYLE
  1
TABLEFORMAT_BEGIN
 90
        5
170
     1
 91
        0
 92
        0
 62
   257
 93
        1
300
CONTENTFORMAT
  1
CONTENTFORMAT_BEGIN
 90
        0
 91
        0
 92
      512
 93
        0
300

 40
0.0
140
1.0
 94
        2
 62
   256
340
A
144
0.18
309
CONTENTFORMAT_END
171
     0
 94
        0
309
TABLEFORMAT_END
  1
CELLSTYLE_BEGIN
 90
        3
 91
        2
300
_DATA
309
CELLSTYLE_END
  0
ENDSEC
  0
SECTION
  2
ACDSDATA
 70
     2
 71
     2
  0
ACDSSCHEMA
 90
        0
  1
AcDb_Thumbnail_Schema
  2
AcDbDs::ID
280
    10
 91
        0
  2
Thumbnail_Data
280
    15
 91
        0
101
ACDSRECORD
 95
        0
 90
        2
  2
AcDbDs::TreatedAsObjectData
280
     1
291
     1
101
ACDSRECORD
 95
        0
 90
        3
  2
AcDbDs::Legacy
280
     1
291
     1
101
ACDSRECORD
  1
AcDbDs::ID
 90
        4
  2
AcDs:Indexable
280
     1
291
     1
101
ACDSRECORD
  1
AcDbDs::ID
 90
        5
  2
AcDbDs::HandleAttribute
280
     7
282
     1
  0
ACDSSCHEMA
 90
        1
  1
AcDb3DSolid_ASM_Data
  2
AcDbDs::ID
280
    10
 91
        0
  2
ASM_Data
280
    15
 91
        0
101
ACDSRECORD
 95
        1
 90
        2
  2
AcDbDs::TreatedAsObjectData
280
     1
291
     1
101
ACDSRECORD
 95
        1
 90
        3
  2
AcDbDs::Legacy
280
     1
291
     1
101
ACDSRECORD
  1
AcDbDs::ID
 90
        4
  2
AcDs:Indexable
280
     1
291
     1
101
ACDSRECORD
  1
AcDbDs::ID
 90
        5
  2
AcDbDs::HandleAttribute
280
     7
282
     1
  0
ACDSSCHEMA
 90
        2
  1
AcDbDs::TreatedAsObjectDataSchema
  2
AcDbDs::TreatedAsObjectData
280
     1
 91
        0
  0
ACDSSCHEMA
 90
        3
  1
AcDbDs::LegacySchema
  2
AcDbDs::Legacy
280
     1
 91
        0
  0
ACDSSCHEMA
 90
        4
  1
AcDbDs::IndexedPropertySchema
  2
AcDs:Indexable
280
     1
 91
        0
  0
ACDSSCHEMA
 90
        5
  1
AcDbDs::HandleAttributeSchema
  2
AcDbDs::HandleAttribute
280
     7
 91
        8
  0
ENDSEC
  0
EOF
