  0
SECTION
  2
HEADER
  9
$ACADVER
  1
AC1032
  9
$ACADMAINTVER
 90
4
  9
$DWGCODEPAGE
  3
ANSI_936
  9
$LASTSAVEDBY
  1
训教
  9
$REQUIREDVERSIONS
160
0
  9
$INSBASE
 10
0.0
 20
0.0
 30
0.0
  9
$EXTMIN
 10
1e+20
 20
1e+20
 30
1e+20
  9
$EXTMAX
 10
-1e+20
 20
-1e+20
 30
-1e+20
  9
$LIMMIN
 10
0.0
 20
0.0
  9
$LIMMAX
 10
420.0
 20
297.0
  9
$ORTHOMODE
 70
0
  9
$REGENMODE
 70
1
  9
$FILLMODE
 70
1
  9
$QTEXTMODE
 70
0
  9
$MIRRTEXT
 70
0
  9
$LTSCALE
 40
1.0
  9
$ATTMODE
 70
1
  9
$TEXTSIZE
 40
2.5
  9
$TRACEWID
 40
1.0
  9
$TEXTSTYLE
  7
Standard
  9
$CLAYER
  8
断面线
  9
$CELTYPE
  6
ByLayer
  9
$CECOLOR
 62
256
  9
$CELTSCALE
 40
1.0
  9
$DISPSILH
 70
0
  9
$DIMSCALE
 40
1.0
  9
$DIMASZ
 40
2.5
  9
$DIMEXO
 40
0.625
  9
$DIMDLI
 40
3.75
  9
$DIMRND
 40
0.0
  9
$DIMDLE
 40
0.0
  9
$DIMEXE
 40
1.25
  9
$DIMTP
 40
0.0
  9
$DIMTM
 40
0.0
  9
$DIMTXT
 40
2.5
  9
$DIMCEN
 40
2.5
  9
$DIMTSZ
 40
0.0
  9
$DIMTOL
 70
0
  9
$DIMLIM
 70
0
  9
$DIMTIH
 70
0
  9
$DIMTOH
 70
0
  9
$DIMSE1
 70
0
  9
$DIMSE2
 70
0
  9
$DIMTAD
 70
1
  9
$DIMZIN
 70
8
  9
$DIMBLK
  1

  9
$DIMASO
 70
1
  9
$DIMSHO
 70
1
  9
$DIMPOST
  1

  9
$DIMAPOST
  1

  9
$DIMALT
 70
0
  9
$DIMALTD
 70
3
  9
$DIMALTF
 40
0.03937007874016
  9
$DIMLFAC
 40
1.0
  9
$DIMTOFL
 70
1
  9
$DIMTVP
 40
0.0
  9
$DIMTIX
 70
0
  9
$DIMSOXD
 70
0
  9
$DIMSAH
 70
0
  9
$DIMBLK1
  1

  9
$DIMBLK2
  1

  9
$DIMSTYLE
  2
ISO-25
  9
$DIMCLRD
 70
0
  9
$DIMCLRE
 70
0
  9
$DIMCLRT
 70
0
  9
$DIMTFAC
 40
1.0
  9
$DIMGAP
 40
0.625
  9
$DIMJUST
 70
0
  9
$DIMSD1
 70
0
  9
$DIMSD2
 70
0
  9
$DIMTOLJ
 70
0
  9
$DIMTZIN
 70
8
  9
$DIMALTZ
 70
0
  9
$DIMALTTZ
 70
0
  9
$DIMUPT
 70
0
  9
$DIMDEC
 70
2
  9
$DIMTDEC
 70
2
  9
$DIMALTU
 70
2
  9
$DIMALTTD
 70
3
  9
$DIMTXSTY
  7
Standard
  9
$DIMAUNIT
 70
0
  9
$DIMADEC
 70
0
  9
$DIMALTRND
 40
0.0
  9
$DIMAZIN
 70
0
  9
$DIMDSEP
 70
44
  9
$DIMATFIT
 70
3
  9
$DIMFRAC
 70
0
  9
$DIMLDRBLK
  1

  9
$DIMLUNIT
 70
2
  9
$DIMLWD
 70
-2
  9
$DIMLWE
 70
-2
  9
$DIMTMOVE
 70
0
  9
$DIMFXL
 40
1.0
  9
$DIMFXLON
 70
0
  9
$DIMJOGANG
 40
0.7853981633974483
  9
$DIMTFILL
 70
0
  9
$DIMTFILLCLR
 70
0
  9
$DIMARCSYM
 70
0
  9
$DIMLTYPE
  6

  9
$DIMLTEX1
  6

  9
$DIMLTEX2
  6

  9
$DIMTXTDIRECTION
 70
0
  9
$LUNITS
 70
2
  9
$LUPREC
 70
4
  9
$SKETCHINC
 40
1.0
  9
$FILLETRAD
 40
0.0
  9
$AUNITS
 70
0
  9
$AUPREC
 70
0
  9
$MENU
  1
.
  9
$ELEVATION
 40
0.0
  9
$PELEVATION
 40
0.0
  9
$THICKNESS
 40
0.0
  9
$LIMCHECK
 70
0
  9
$CHAMFERA
 40
0.0
  9
$CHAMFERB
 40
0.0
  9
$CHAMFERC
 40
0.0
  9
$CHAMFERD
 40
0.0
  9
$SKPOLY
 70
0
  9
$TDCREATE
 40
2461118.7782407408
  9
$TDUCREATE
 40
2461037.371311875
  9
$TDUPDATE
 40
2461118.7782407408
  9
$TDUUPDATE
 40
2461067.144218079
  9
$TDINDWG
 40
1.843904977
  9
$TDUSRTIMER
 40
1.84390265
  9
$USRTIMER
 70
1
  9
$ANGBASE
 50
0.0
  9
$ANGDIR
 70
0
  9
$PDMODE
 70
0
  9
$PDSIZE
 40
0.0
  9
$PLINEWID
 40
0.0
  9
$SPLFRAME
 70
0
  9
$SPLINETYPE
 70
6
  9
$SPLINESEGS
 70
8
  9
$HANDSEED
  5
206334
  9
$SURFTAB1
 70
6
  9
$SURFTAB2
 70
6
  9
$SURFTYPE
 70
6
  9
$SURFU
 70
6
  9
$SURFV
 70
6
  9
$UCSBASE
  2

  9
$UCSNAME
  2

  9
$UCSORG
 10
0.0
 20
0.0
 30
0.0
  9
$UCSXDIR
 10
1.0
 20
0.0
 30
0.0
  9
$UCSYDIR
 10
0.0
 20
1.0
 30
0.0
  9
$UCSORTHOREF
  2

  9
$UCSORTHOVIEW
 70
0
  9
$UCSORGTOP
 10
0.0
 20
0.0
 30
0.0
  9
$UCSORGBOTTOM
 10
0.0
 20
0.0
 30
0.0
  9
$UCSORGLEFT
 10
0.0
 20
0.0
 30
0.0
  9
$UCSORGRIGHT
 10
0.0
 20
0.0
 30
0.0
  9
$UCSORGFRONT
 10
0.0
 20
0.0
 30
0.0
  9
$UCSORGBACK
 10
0.0
 20
0.0
 30
0.0
  9
$PUCSBASE
  2

  9
$PUCSNAME
  2

  9
$PUCSORG
 10
0.0
 20
0.0
 30
0.0
  9
$PUCSXDIR
 10
1.0
 20
0.0
 30
0.0
  9
$PUCSYDIR
 10
0.0
 20
1.0
 30
0.0
  9
$PUCSORTHOREF
  2

  9
$PUCSORTHOVIEW
 70
0
  9
$PUCSORGTOP
 10
0.0
 20
0.0
 30
0.0
  9
$PUCSORGBOTTOM
 10
0.0
 20
0.0
 30
0.0
  9
$PUCSORGLEFT
 10
0.0
 20
0.0
 30
0.0
  9
$PUCSORGRIGHT
 10
0.0
 20
0.0
 30
0.0
  9
$PUCSORGFRONT
 10
0.0
 20
0.0
 30
0.0
  9
$PUCSORGBACK
 10
0.0
 20
0.0
 30
0.0
  9
$USERI1
 70
0
  9
$USERI2
 70
0
  9
$USERI3
 70
0
  9
$USERI4
 70
0
  9
$USERI5
 70
0
  9
$USERR1
 40
0.0
  9
$USERR2
 40
0.0
  9
$USERR3
 40
0.0
  9
$USERR4
 40
0.0
  9
$USERR5
 40
0.0
  9
$WORLDVIEW
 70
1
  9
$SHADEDGE
 70
3
  9
$SHADEDIF
 70
70
  9
$TILEMODE
 70
1
  9
$MAXACTVP
 70
64
  9
$PINSBASE
 10
0.0
 20
0.0
 30
0.0
  9
$PLIMCHECK
 70
0
  9
$PEXTMIN
 10
0.0
 20
0.0
 30
0.0
  9
$PEXTMAX
 10
0.0
 20
0.0
 30
0.0
  9
$PLIMMIN
 10
0.0
 20
0.0
  9
$PLIMMAX
 10
12.0
 20
9.0
  9
$UNITMODE
 70
0
  9
$VISRETAIN
 70
1
  9
$PLINEGEN
 70
0
  9
$PSLTSCALE
 70
1
  9
$TREEDEPTH
 70
3020
  9
$CMLSTYLE
  2
Standard
  9
$CMLJUST
 70
0
  9
$CMLSCALE
 40
20.0
  9
$PROXYGRAPHICS
 70
1
  9
$MEASUREMENT
 70
1
  9
$CELWEIGHT
370
-1
  9
$ENDCAPS
280
0
  9
$JOINSTYLE
280
0
  9
$LWDISPLAY
290
0
  9
$INSUNITS
 70
4
  9
$HYPERLINKBASE
  1

  9
$STYLESHEET
  1

  9
$XEDIT
290
1
  9
$CEPSNTYPE
380
0
  9
$PSTYLEMODE
290
1
  9
$FINGERPRINTGUID
  2
{5CCC79E8-1DCA-43C7-B475-9DEFB6C98AD9}
  9
$VERSIONGUID
  2
{081D72A5-F498-4874-AFBB-17C8DFEEF147}
  9
$EXTNAMES
290
1
  9
$PSVPSCALE
 40
0.0
  9
$OLESTARTUP
290
0
  9
$SORTENTS
280
127
  9
$INDEXCTL
280
0
  9
$HIDETEXT
280
1
  9
$XCLIPFRAME
280
2
  9
$HALOGAP
280
0
  9
$OBSCOLOR
 70
257
  9
$OBSLTYPE
280
0
  9
$INTERSECTIONDISPLAY
280
0
  9
$INTERSECTIONCOLOR
 70
257
  9
$DIMASSOC
280
2
  9
$PROJECTNAME
  1

  9
$CAMERADISPLAY
290
0
  9
$LENSLENGTH
 40
50.0
  9
$CAMERAHEIGHT
 40
0.0
  9
$STEPSPERSEC
 40
2.0
  9
$STEPSIZE
 40
6.0
  9
$3DDWFPREC
 40
2.0
  9
$PSOLWIDTH
 40
0.25
  9
$PSOLHEIGHT
 40
4.0
  9
$LOFTANG1
 40
1.570796326794896
  9
$LOFTANG2
 40
1.570796326794896
  9
$LOFTMAG1
 40
0.0
  9
$LOFTMAG2
 40
0.0
  9
$LOFTPARAM
 70
7
  9
$LOFTNORMALS
280
1
  9
$LATITUDE
 40
0.0
  9
$LONGITUDE
 40
0.0
  9
$NORTHDIRECTION
 40
0.0
  9
$TIMEZONE
 70
-8000
  9
$LIGHTGLYPHDISPLAY
280
1
  9
$TILEMODELIGHTSYNCH
280
1
  9
$CMATERIAL
347
12D
  9
$SOLIDHIST
280
0
  9
$SHOWHIST
280
1
  9
$DWFFRAME
280
1
  9
$DGNFRAME
280
1
  9
$REALWORLDSCALE
290
1
  9
$INTERFERECOLOR
 62
1
  9
$CSHADOW
280
0
  9
$SHADOWPLANELOCATION
 40
0.0
  0
ENDSEC
  0
SECTION
  2
CLASSES
  0
CLASS
  1
ACDBDICTIONARYWDFLT
  2
AcDbDictionaryWithDefault
  3
ObjectDBX Classes
 90
0
 91
1
280
0
281
0
  0
CLASS
  1
ACDBPLACEHOLDER
  2
AcDbPlaceHolder
  3
ObjectDBX Classes
 90
0
 91
0
280
0
281
0
  0
CLASS
  1
LAYOUT
  2
AcDbLayout
  3
ObjectDBX Classes
 90
0
 91
0
280
0
281
0
  0
CLASS
  1
DICTIONARYVAR
  2
AcDbDictionaryVar
  3
ObjectDBX Classes
 90
0
 91
12
280
0
281
0
  0
CLASS
  1
TABLESTYLE
  2
AcDbTableStyle
  3
ObjectDBX Classes
 90
4095
 91
1
280
0
281
0
  0
CLASS
  1
WIPEOUTVARIABLES
  2
AcDbWipeoutVariables
  3
"WipeOut|Product Desc:     WipeOut Dbx Application|Company:          Autodesk, Inc.|WEB Address:      www.autodesk.com"
 90
0
 91
0
280
0
281
0
  0
CLASS
  1
SCALE
  2
AcDbScale
  3
ObjectDBX Classes
 90
1153
 91
17
280
0
281
0
  0
CLASS
  1
MLEADERSTYLE
  2
AcDbMLeaderStyle
  3
ACDB_MLEADERSTYLE_CLASS
 90
4095
 91
2
280
0
281
0
  0
CLASS
  1
MATERIAL
  2
AcDbMaterial
  3
ObjectDBX Classes
 90
1153
 91
3
280
0
281
0
  0
CLASS
  1
VISUALSTYLE
  2
AcDbVisualStyle
  3
ObjectDBX Classes
 90
4095
 91
24
280
0
281
0
  0
CLASS
  1
ACDBSECTIONVIEWSTYLE
  2
AcDbSectionViewStyle
  3
ObjectDBX Classes
 90
1025
 91
1
280
0
281
0
  0
CLASS
  1
ACDBDETAILVIEWSTYLE
  2
AcDbDetailViewStyle
  3
ObjectDBX Classes
 90
1025
 91
1
280
0
281
0
  0
CLASS
  1
CELLSTYLEMAP
  2
AcDbCellStyleMap
  3
ObjectDBX Classes
 90
1152
 91
5
280
0
281
0
  0
CLASS
  1
SORTENTSTABLE
  2
AcDbSortentsTable
  3
ObjectDBX Classes
 90
0
 91
2
280
0
281
0
  0
CLASS
  1
SUN
  2
AcDbSun
  3
SCENEOE
 90
1153
 91
0
280
0
281
0
  0
CLASS
  1
MENTALRAYRENDERSETTINGS
  2
AcDbMentalRayRenderSettings
  3
SCENEOE
 90
1024
 91
0
280
0
281
0
  0
CLASS
  1
RASTERVARIABLES
  2
AcDbRasterVariables
  3
ISM
 90
0
 91
0
280
0
281
0
  0
ENDSEC
  0
SECTION
  2
TABLES
  0
TABLE
  2
VPORT
  5
8
330
0
100
AcDbSymbolTable
 70
1
  0
VPORT
  5
1BA
330
8
100
AcDbSymbolTableRecord
100
AcDbViewportTableRecord
  2
*Active
 70
0
 10
0.0
 20
0.0
 11
1.0
 21
1.0
 12
-3.692828939218088
 22
39.4575012254038
 13
0.0
 23
0.0
 14
10.0
 24
10.0
 15
10.0
 25
10.0
 16
0.0
 26
0.0
 36
1.0
 17
1319.879022915361
 27
-1429.593357704881
 37
0.0
 40
64.38887007165201
 41
2.411061285500747
 42
50.0
 43
0.0
 44
0.0
 50
0.0
 51
0.0
 71
16
 72
1000
 73
1
 74
3
 75
0
 76
0
 77
0
 78
0
281
0
 65
1
110
0.0
120
0.0
130
0.0
111
1.0
121
0.0
131
0.0
112
0.0
122
1.0
132
0.0
 79
0
146
0.0
 60
3
 61
5
348
14B
292
1
282
1
141
0.0
142
0.0
 63
256
1001
ACAD_NAV_VCDISPLAY
1070
3
  0
ENDTAB
  0
TABLE
  2
LTYPE
  5
5
330
0
100
AcDbSymbolTable
 70
5
  0
LTYPE
  5
14
330
5
100
AcDbSymbolTableRecord
100
AcDbLinetypeTableRecord
  2
ByBlock
 70
0
  3

 72
65
 73
0
 40
0.0
  0
LTYPE
  5
15
330
5
100
AcDbSymbolTableRecord
100
AcDbLinetypeTableRecord
  2
ByLayer
 70
0
  3

 72
65
 73
0
 40
0.0
  0
LTYPE
  5
16
330
5
100
AcDbSymbolTableRecord
100
AcDbLinetypeTableRecord
  2
Continuous
 70
0
  3
Solid line
 72
65
 73
0
 40
0.0
  0
LTYPE
  5
231
330
5
100
AcDbSymbolTableRecord
100
AcDbLinetypeTableRecord
  2
ACAD_ISO02W100
 70
0
  3
ISO dash __ __ __ __ __ __ __ __ __ __ __ __ __
 72
65
 73
2
 40
15.0
 49
12.0
 74
0
 49
-3.0
 74
0
  0
LTYPE
  5
232
330
5
100
AcDbSymbolTableRecord
100
AcDbLinetypeTableRecord
  2
ACAD_ISO05W100
 70
0
  3
ISO long-dash double-dot ____ .. ____ .. ____ .
 72
65
 73
6
 40
33.0
 49
24.0
 74
0
 49
-3.0
 74
0
 49
0.0
 74
0
 49
-3.0
 74
0
 49
0.0
 74
0
 49
-3.0
 74
0
  0
ENDTAB
  0
TABLE
  2
LAYER
  5
2
102
{ACAD_XDICTIONARY
360
FA
102
}
330
0
100
AcDbSymbolTable
 70
11
  0
LAYER
  5
10
330
2
100
AcDbSymbolTableRecord
100
AcDbLayerTableRecord
  2
0
 70
0
 62
7
  6
Continuous
370
-3
390
F
347
13D
348
0
  0
LAYER
  5
233
330
2
100
AcDbSymbolTableRecord
100
AcDbLayerTableRecord
  2
开挖线
 70
0
 62
4
  6
Continuous
370
-3
390
F
347
13D
348
0
1001
AcAecLayerStandard
1000

1000

1001
AcCmTransparency
1071
0
  0
LAYER
  5
234
330
2
100
AcDbSymbolTableRecord
100
AcDbLayerTableRecord
  2
超挖线
 70
0
 62
3
  6
Continuous
370
-3
390
F
347
13D
348
0
1001
AcAecLayerStandard
1000

1000

1001
AcCmTransparency
1071
0
  0
LAYER
  5
235
330
2
100
AcDbSymbolTableRecord
100
AcDbLayerTableRecord
  2
0-桩号
 70
0
 62
1
  6
Continuous
370
-3
390
F
347
13D
348
0
  0
LAYER
  5
236
330
2
100
AcDbSymbolTableRecord
100
AcDbLayerTableRecord
  2
地质分层
 70
0
 62
6
  6
Continuous
370
-3
390
F
347
13D
348
0
1001
AcAecLayerStandard
1000

1000

1001
AcCmTransparency
1071
0
  0
LAYER
  5
237
330
2
100
AcDbSymbolTableRecord
100
AcDbLayerTableRecord
  2
辅助1
 70
0
 62
5
  6
Continuous
370
-3
390
F
347
13D
348
0
1001
AcCmTransparency
1071
33554687
1001
AcAecLayerStandard
1000

1000

  0
LAYER
  5
206260
330
2
100
AcDbSymbolTableRecord
100
AcDbLayerTableRecord
  2
断面框
 70
0
 62
7
  6
Continuous
370
-3
390
F
347
13D
348
0
1001
AcCmTransparency
1071
33554687
1001
AcAecLayerStandard
1000

1000

  0
LAYER
  5
20627B
330
2
100
AcDbSymbolTableRecord
100
AcDbLayerTableRecord
  2
断面线
 70
0
 62
20
  6
Continuous
370
-3
390
F
347
13D
348
0
  0
LAYER
  5
20627C
330
2
100
AcDbSymbolTableRecord
100
AcDbLayerTableRecord
  2
6m线
 70
0
 62
6
  6
Continuous
370
-3
390
F
347
13D
348
0
1001
AcCmTransparency
1071
33554687
1001
AcAecLayerStandard
1000

1000

  0
LAYER
  5
2062F2
330
2
100
AcDbSymbolTableRecord
100
AcDbLayerTableRecord
  2
超挖框
 70
0
 62
7
  6
Continuous
370
-3
390
F
347
13D
348
0
  0
LAYER
  5
2062F6
330
2
100
AcDbSymbolTableRecord
100
AcDbLayerTableRecord
  2
Defpoints
 70
0
 62
7
  6
Continuous
290
0
370
-3
390
F
347
13D
  0
ENDTAB
  0
TABLE
  2
STYLE
  5
3
330
0
100
AcDbSymbolTable
 70
5
  0
STYLE
  5
11
330
3
100
AcDbSymbolTableRecord
100
AcDbTextStyleTableRecord
  2
Standard
 70
0
 40
0.0
 41
1.0
 50
0.0
 71
0
 42
2.5
  3

  4

1001
ACAD
1000
SimSun
1071
34306
  0
STYLE
  5
21D
330
3
100
AcDbSymbolTableRecord
100
AcDbTextStyleTableRecord
  2
Annotative
 70
0
 40
0.0
 41
1.0
 50
0.0
 71
0
 42
2.5
  3

  4

1001
AcadAnnotative
1000
AnnotativeData
1002
{
1070
1
1070
1
1002
}
1001
ACAD
1000
SimSun
1071
34306
  0
STYLE
  5
239
330
3
100
AcDbSymbolTableRecord
100
AcDbTextStyleTableRecord
  2
仿宋GB2312
 70
0
 40
2.5
 41
0.7
 50
0.0
 71
0
 42
2.5
  3
仿宋_GB2312.ttf
  4

1001
ACAD
1000
FangSong_GB2312
1071
34353
  0
STYLE
  5
23A
330
3
100
AcDbSymbolTableRecord
100
AcDbTextStyleTableRecord
  2
仿宋
 70
0
 40
0.0
 41
0.8
 50
0.0
 71
0
 42
3.5
  3
仿宋_GB2312.ttf
  4

1001
ACAD
1000
仿宋_GB2312
1071
34353
  0
STYLE
  5
23B
330
3
100
AcDbSymbolTableRecord
100
AcDbTextStyleTableRecord
  2
仿宋体
 70
0
 40
0.0
 41
0.8
 50
0.0
 71
0
 42
0.2
  3
仿宋_GB2312.ttf
  4

1001
ACAD
1000
仿宋_GB2312
1071
34353
  0
ENDTAB
  0
TABLE
  2
VIEW
  5
6
330
0
100
AcDbSymbolTable
 70
0
  0
ENDTAB
  0
TABLE
  2
UCS
  5
7
330
0
100
AcDbSymbolTable
 70
0
  0
ENDTAB
  0
TABLE
  2
APPID
  5
9
330
0
100
AcDbSymbolTable
 70
16
  0
APPID
  5
12
330
9
100
AcDbSymbolTableRecord
100
AcDbRegAppTableRecord
  2
ACAD
 70
0
  0
APPID
  5
F4
330
9
100
AcDbSymbolTableRecord
100
AcDbRegAppTableRecord
  2
ACAD_PSEXT
 70
0
  0
APPID
  5
16E
330
9
100
AcDbSymbolTableRecord
100
AcDbRegAppTableRecord
  2
ACAD_NAV_VCDISPLAY
 70
0
  0
APPID
  5
21E
330
9
100
AcDbSymbolTableRecord
100
AcDbRegAppTableRecord
  2
AcadAnnoPO
 70
0
  0
APPID
  5
21F
330
9
100
AcDbSymbolTableRecord
100
AcDbRegAppTableRecord
  2
AcadAnnotative
 70
0
  0
APPID
  5
224
330
9
100
AcDbSymbolTableRecord
100
AcDbRegAppTableRecord
  2
ACAD_DSTYLE_DIMJAG
 70
0
  0
APPID
  5
225
330
9
100
AcDbSymbolTableRecord
100
AcDbRegAppTableRecord
  2
ACAD_DSTYLE_DIMBREAK
 70
0
  0
APPID
  5
226
330
9
100
AcDbSymbolTableRecord
100
AcDbRegAppTableRecord
  2
ACAD_DSTYLE_DIMTALN
 70
0
  0
APPID
  5
23D
330
9
100
AcDbSymbolTableRecord
100
AcDbRegAppTableRecord
  2
AcAecLayerStandard
 70
0
  0
APPID
  5
23E
330
9
100
AcDbSymbolTableRecord
100
AcDbRegAppTableRecord
  2
AcCmTransparency
 70
0
  0
APPID
  5
23F
330
9
100
AcDbSymbolTableRecord
100
AcDbRegAppTableRecord
  2
SOUTH
 70
0
  0
APPID
  5
8E2
330
9
100
AcDbSymbolTableRecord
100
AcDbRegAppTableRecord
  2
ACAD_DSTYLE_DIMTEXT_FILL
 70
0
  0
APPID
  5
8E9
330
9
100
AcDbSymbolTableRecord
100
AcDbRegAppTableRecord
  2
ACAD_MLEADERVER
 70
0
  0
APPID
  5
2EA0
330
9
100
AcDbSymbolTableRecord
100
AcDbRegAppTableRecord
  2
HATCHBACKGROUNDCOLOR
 70
0
  0
APPID
  5
20627D
330
9
100
AcDbSymbolTableRecord
100
AcDbRegAppTableRecord
  2
PLOTTRANSPARENCY
 70
0
  0
APPID
  5
206331
330
9
100
AcDbSymbolTableRecord
100
AcDbRegAppTableRecord
  2
EZDXF
 70
0
  0
ENDTAB
  0
TABLE
  2
DIMSTYLE
  5
A
330
0
100
AcDbSymbolTable
 70
4
100
AcDbDimStyleTable
  0
DIMSTYLE
105
27
330
A
100
AcDbSymbolTableRecord
100
AcDbDimStyleTableRecord
  2
Standard
 70
0
 40
1.0
 41
2.5
 42
0.625
 43
3.75
 44
1.25
 45
0.0
 46
0.0
 47
0.0
 48
0.0
 49
2.5
140
2.5
141
2.5
142
0.0
143
0.03937007874
144
1.0
145
0.0
146
1.0
147
0.625
148
0.0
 69
0
 70
0
 71
0
 72
0
 73
0
 74
0
 75
0
 76
0
 77
1
 78
8
 79
3
170
0
171
3
172
1
173
0
174
0
175
0
176
0
177
0
178
0
179
2
271
2
272
2
273
2
274
3
275
0
276
0
277
2
278
44
279
0
280
0
281
0
282
0
283
0
284
8
285
0
286
0
288
0
289
3
290
0
340
11
371
-2
372
-2
  0
DIMSTYLE
105
9C
330
A
100
AcDbSymbolTableRecord
100
AcDbDimStyleTableRecord
  2
ISO-25
 70
0
 40
1.0
 41
2.5
 42
0.625
 43
3.75
 44
1.25
 45
0.0
 46
0.0
 47
0.0
 48
0.0
 49
2.5
140
2.5
141
2.5
142
0.0
143
0.03937007874016
144
1.0
145
0.0
146
1.0
147
0.625
148
0.0
 69
0
 70
0
 71
0
 72
0
 73
0
 74
0
 75
0
 76
0
 77
1
 78
8
 79
3
170
0
171
3
172
1
173
0
174
0
175
0
176
0
177
0
178
0
179
2
271
2
272
2
273
2
274
3
275
0
276
0
277
2
278
44
279
0
280
0
281
0
282
0
283
0
284
8
285
0
286
0
288
0
289
3
290
0
340
11
371
-2
372
-2
  0
DIMSTYLE
105
227
330
A
100
AcDbSymbolTableRecord
100
AcDbDimStyleTableRecord
  2
Annotative
 70
0
 40
1.0
 41
2.5
 42
0.625
 43
3.75
 44
1.25
 45
0.0
 46
0.0
 47
0.0
 48
0.0
 49
2.5
140
2.5
141
2.5
142
0.0
143
0.03937007874016
144
1.0
145
0.0
146
1.0
147
0.625
148
0.0
 69
0
 70
0
 71
0
 72
0
 73
0
 74
0
 75
0
 76
0
 77
1
 78
8
 79
3
170
0
171
3
172
1
173
0
174
0
175
0
176
0
177
0
178
0
179
2
271
2
272
2
273
2
274
3
275
0
276
0
277
2
278
44
279
0
280
0
281
0
282
0
283
0
284
8
285
0
286
0
288
0
289
3
290
0
340
11
371
-2
372
-2
1001
ACAD_DSTYLE_DIMBREAK
1070
391
1040
3.75
1001
AcadAnnotative
1000
AnnotativeData
1002
{
1070
1
1070
1
1002
}
1001
ACAD_DSTYLE_DIMJAG
1070
388
1040
1.5
1001
ACAD_DSTYLE_DIMTALN
1070
392
1070
0
  0
DIMSTYLE
105
23C
330
A
100
AcDbSymbolTableRecord
100
AcDbDimStyleTableRecord
  2
2000
 70
0
 40
1.0
 41
2.5
 42
0.625
 43
3.75
 44
1.25
 45
0.0
 46
0.0
 47
0.0
 48
0.0
 49
2.5
140
3.0
141
2.5
142
0.0
143
0.03937007874016
144
2.0
145
0.0
146
1.0
147
0.625
148
0.0
 69
1
 70
0
 71
0
 72
0
 73
0
 74
0
 75
0
 76
0
 77
1
 78
8
 79
3
170
0
171
3
172
1
173
0
174
0
175
0
176
0
177
0
178
0
179
2
271
2
272
2
273
2
274
3
275
0
276
0
277
2
278
44
279
0
280
0
281
0
282
0
283
0
284
8
285
0
286
0
288
0
289
3
290
0
340
11
371
-2
372
-2
1001
ACAD_DSTYLE_DIMJAG
1070
388
1040
1.5
1001
ACAD_DSTYLE_DIMTALN
1070
392
1070
0
  0
ENDTAB
  0
TABLE
  2
BLOCK_RECORD
  5
1
330
0
100
AcDbSymbolTable
 70
3
  0
BLOCK_RECORD
  5
1F
102
{ACAD_XDICTIONARY
360
B13
102
}
330
1
100
AcDbSymbolTableRecord
100
AcDbBlockTableRecord
  2
*MODEL_SPACE
340
22
 70
0
280
1
281
0
  0
BLOCK_RECORD
  5
1C7
330
1
100
AcDbSymbolTableRecord
100
AcDbBlockTableRecord
  2
*PAPER_SPACE
340
1C8
 70
0
280
1
281
0
  0
BLOCK_RECORD
  5
1CC
330
1
100
AcDbSymbolTableRecord
100
AcDbBlockTableRecord
  2
*PAPER_SPACE0
340
1CD
 70
0
280
1
281
0
  0
ENDTAB
  0
ENDSEC
  0
SECTION
  2
BLOCKS
  0
BLOCK
  5
20
330
1F
100
AcDbEntity
  8
0
100
AcDbBlockBegin
  2
*MODEL_SPACE
 70
0
 10
0.0
 20
0.0
 30
0.0
  3
*MODEL_SPACE
  1

  0
ENDBLK
  5
21
330
1F
100
AcDbEntity
  8
0
100
AcDbBlockEnd
  0
BLOCK
  5
1C9
330
1C7
100
AcDbEntity
 67
1
  8
0
100
AcDbBlockBegin
  2
*PAPER_SPACE
 70
0
 10
0.0
 20
0.0
 30
0.0
  3
*PAPER_SPACE
  1

  0
ENDBLK
  5
1CA
330
1C7
100
AcDbEntity
 67
1
  8
0
100
AcDbBlockEnd
  0
BLOCK
  5
1CE
330
1CC
100
AcDbEntity
  8
0
100
AcDbBlockBegin
  2
*PAPER_SPACE0
 70
0
 10
0.0
 20
0.0
 30
0.0
  3
*PAPER_SPACE0
  1

  0
ENDBLK
  5
1CF
330
1CC
100
AcDbEntity
  8
0
100
AcDbBlockEnd
  0
ENDSEC
  0
SECTION
  2
ENTITIES
  0
LWPOLYLINE
  5
58A
330
1F
100
AcDbEntity
  8
地质分层
  6
ACAD_ISO05W100
 48
0.2
100
AcDbPolyline
 90
5
 70
128
 43
0.1
 10
1349.541765836017
 20
-1437.885657338699
 10
1349.337465886092
 20
-1438.83895385755
 10
1360.301222157082
 20
-1451.558743383735
 10
1367.751439024112
 20
-1461.63973431196
 10
1371.773208024679
 20
-1467.17441310687
  0
LWPOLYLINE
  5
58B
330
1F
100
AcDbEntity
  8
地质分层
  6
ACAD_ISO05W100
 48
0.2
100
AcDbPolyline
 90
6
 70
128
 43
0.1
 10
1330.674293037038
 20
-1425.214469672646
 10
1335.731661575148
 20
-1426.165049396455
 10
1338.906634451705
 20
-1427.120092408731
 10
1340.833739167079
 20
-1427.945568480529
 10
1342.873385625076
 20
-1428.732245551888
 10
1345.872456551839
 20
-1429.685119066513
  0
LWPOLYLINE
  5
58C
330
1F
100
AcDbEntity
  8
地质分层
  6
ACAD_ISO05W100
 48
0.2
100
AcDbPolyline
 90
5
 70
128
 43
0.1
 10
1333.083458765177
 20
-1435.657054067589
 10
1340.833739167079
 20
-1436.425568452105
 10
1345.025061086984
 20
-1437.005839644931
 10
1347.148458752665
 20
-1437.329813966993
 10
1349.541765836017
 20
-1437.8856573387
  0
LWPOLYLINE
  5
58D
330
1F
100
AcDbEntity
  8
地质分层
  6
ACAD_ISO05W100
 48
0.2
100
AcDbPolyline
 90
8
 70
128
 43
0.1
 10
1398.333333333372
 20
-1468.5
 10
1402.349536390626
 20
-1461.614095573313
 10
1411.633880173205
 20
-1450.132907356135
 10
1425.087516472093
 20
-1435.548813735135
 10
1430.747449263581
 20
-1433.345037190244
 10
1434.312843678403
 20
-1432.227537197061
 10
1439.166901093908
 20
-1431.77800047677
 10
1466.827696141321
 20
-1431.291958148591
  0
LWPOLYLINE
  5
58E
330
1F
100
AcDbEntity
  8
地质分层
  6
ACAD_ISO05W100
 48
0.2
100
AcDbPolyline
 90
8
 70
128
 43
0.1
 10
1425.087516472093
 20
-1435.548813735135
 10
1427.835861420375
 20
-1431.216887653805
 10
1433.161484582
 20
-1423.547850989271
 10
1437.19341992028
 20
-1418.591386155225
 10
1439.166901093908
 20
-1416.611333969049
 10
1440.661080803373
 20
-1415.869652838912
 10
1443.864075182006
 20
-1415.160157798324
 10
1455.78457594593
 20
-1414.15366951609
  0
LWPOLYLINE
  5
64C
330
1F
100
AcDbEntity
  8
开挖线
  6
Continuous
100
AcDbPolyline
 90
2
 70
128
 43
0.4
 10
1351.500000000025
 20
-1456.0
 10
1428.499999999974
 20
-1456.0
  0
LWPOLYLINE
  5
64D
330
1F
100
AcDbEntity
  8
开挖线
  6
Continuous
100
AcDbPolyline
 90
2
 70
128
 43
0.4
 10
1436.491406882035
 20
-1432.025779353328
 10
1462.816909468862
 20
-1375.613988095435
  0
LWPOLYLINE
  5
64E
330
1F
100
AcDbEntity
  8
超挖线
  6
ACAD_ISO02W100
 48
0.5
100
AcDbPolyline
 90
2
 70
128
 43
0.2
 10
1438.581747727663
 20
-1431.832191826936
 10
1464.931070137534
 20
-1375.369358091176
  0
LWPOLYLINE
  5
64F
330
1F
100
AcDbEntity
  8
开挖线
  6
Continuous
100
AcDbPolyline
 90
2
 70
128
 43
0.4
 10
1342.342494935026
 20
-1428.527484804444
 10
1320.699668737612
 20
-1382.150000095367
  0
LWPOLYLINE
  5
650
330
1F
100
AcDbEntity
  8
超挖线
  6
ACAD_ISO02W100
 48
0.5
100
AcDbPolyline
 90
2
 70
128
 43
0.2
 10
1339.880355612131
 20
-1427.537186255331
 10
1318.509293012282
 20
-1381.742052112535
  0
LWPOLYLINE
  5
651
330
1F
100
AcDbEntity
  8
开挖线
  6
Continuous
100
AcDbPolyline
 90
2
 70
128
 43
0.4
 10
1351.500000000025
 20
-1456.0
 10
1342.342494935026
 20
-1428.527484804444
  0
LWPOLYLINE
  5
652
330
1F
100
AcDbEntity
  8
超挖线
  6
ACAD_ISO02W100
 48
0.5
100
AcDbPolyline
 90
2
 70
128
 43
0.2
 10
1350.416654819126
 20
-1458.75
 10
1340.034374991757
 20
-1427.603160517891
  0
LWPOLYLINE
  5
653
330
1F
100
AcDbEntity
  8
开挖线
  6
Continuous
100
AcDbPolyline
 90
2
 70
128
 43
0.4
 10
1428.499999999974
 20
-1456.0
 10
1436.491406882035
 20
-1432.025779353328
  0
LWPOLYLINE
  5
654
330
1F
100
AcDbEntity
  8
超挖线
  6
ACAD_ISO02W100
 48
0.5
100
AcDbPolyline
 90
2
 70
128
 43
0.2
 10
1429.583345180829
 20
-1458.75
 10
1438.555126090749
 20
-1431.834657270238
  0
LWPOLYLINE
  5
655
330
1F
100
AcDbEntity
  8
超挖线
  6
ACAD_ISO02W100
 48
0.5
100
AcDbPolyline
 90
2
 70
128
 43
0.2
 10
1350.416654819126
 20
-1458.75
 10
1429.583345180829
 20
-1458.75
  0
TEXT
  5
656
330
1F
100
AcDbEntity
  8
地质分层
  6
Continuous
100
AcDbText
 10
1337.939136211468
 20
-1447.895236566754
 30
0.0
 40
3.0
  1
7级砂
  7
仿宋GB2312
 41
0.7
 72
1
 11
1341.5715686439
 21
-1446.395236566754
 31
0.0
100
AcDbText
 73
2
1001
SOUTH
1000
990440
  0
TEXT
  5
657
330
1F
100
AcDbEntity
  8
地质分层
  6
Continuous
100
AcDbText
 10
1392.134846999901
 20
-1444.456362836574
 30
0.0
 40
3.0
  1
1级淤泥
  7
仿宋体
 41
0.7
 72
1
 11
1397.220252405306
 21
-1442.956362836574
 31
0.0
100
AcDbText
 73
2
  0
TEXT
  5
658
330
1F
100
AcDbEntity
  8
地质分层
  6
Continuous
100
AcDbText
 10
1416.822523484056
 20
-1448.984149063242
 30
0.0
 40
3.0
  1
7级砂
  7
仿宋GB2312
 41
0.7
 72
1
 11
1420.454955916488
 21
-1447.484149063242
 31
0.0
100
AcDbText
 73
2
1001
SOUTH
1000
990440
  0
TEXT
  5
659
330
1F
100
AcDbEntity
  8
地质分层
  6
Continuous
100
AcDbText
 10
1442.148191363668
 20
-1427.804877385432
 30
0.0
 40
3.0
  1
3级淤泥
  7
仿宋体
 41
0.7
 72
1
 11
1447.233596769074
 21
-1426.304877385432
 31
0.0
100
AcDbText
 73
2
  0
TEXT
  5
65A
330
1F
100
AcDbEntity
  8
地质分层
  6
Continuous
100
AcDbText
 10
1333.76984278653
 20
-1433.668875309584
 30
0.0
 40
3.0
  1
6级砂
  7
仿宋GB2312
 41
0.7
 72
1
 11
1337.402275218963
 21
-1432.168875309584
 31
0.0
100
AcDbText
 73
2
1001
SOUTH
1000
990440
  0
TEXT
  5
65B
330
1F
100
AcDbEntity
  8
地质分层
  6
Continuous
100
AcDbText
 10
1327.935143614196
 20
-1395.385890970698
 30
0.0
 40
3.0
  1
1级淤泥
  7
仿宋体
 41
0.7
 72
1
 11
1333.020549019602
 21
-1393.885890970698
 31
0.0
100
AcDbText
 73
2
  0
LWPOLYLINE
  5
8B2
330
1F
100
AcDbEntity
  8
断面线
  6
Continuous
 62
5
100
AcDbPolyline
 90
253
 70
0
 10
1318.536335359765
 20
-1381.799999999999
 10
1319.403666666866
 20
-1381.850000381473
 10
1320.053666666865
 20
-1382.050000190738
 10
1320.353666666866
 20
-1382.200000047691
 10
1320.733666666866
 20
-1382.150000095367
 10
1321.743666666866
 20
-1381.900000333793
 10
1322.253666666866
 20
-1381.599999427799
 10
1322.903666666866
 20
-1381.000000000003
 10
1323.437000000198
 20
-1380.700000286102
 10
1324.153666666866
 20
-1380.299999475482
 10
1325.070333333532
 20
-1380.14999961853
 10
1325.103666666866
 20
-1380.099999666214
 10
1325.127000000199
 20
-1380.099999666214
 10
1326.053666666865
 20
-1380.099999666214
 10
1326.817000000199
 20
-1380.550000429161
 10
1327.003666666866
 20
-1380.700000286102
 10
1327.240333333532
 20
-1380.850000143051
 10
1327.953666666866
 20
-1381.149999856956
 10
1328.507000000199
 20
-1381.599999427799
 10
1328.903666666866
 20
-1381.850000381473
 10
1329.410333333532
 20
-1382.200000047691
 10
1330.197000000199
 20
-1382.799999475483
 10
1330.803666666865
 20
-1383.650001049049
 10
1331.577000000199
 20
-1384.900001049049
 10
1331.887000000198
 20
-1385.300000667579
 10
1332.980333333531
 20
-1386.450000762943
 10
1333.577000000199
 20
-1386.999999046329
 10
1333.747000000198
 20
-1387.250000000003
 10
1334.603666666866
 20
-1388.400000095367
 10
1335.270333333532
 20
-1388.799999713901
 10
1335.553666666865
 20
-1388.89999961853
 10
1335.917000000198
 20
-1388.85000085831
 10
1336.503666666866
 20
-1388.85000085831
 10
1336.960333333532
 20
-1388.699999809269
 10
1338.083666666866
 20
-1389.949999809269
 10
1338.650333333532
 20
-1391.799999237064
 10
1339.353666666866
 20
-1396.950000286102
 10
1340.253666666866
 20
-1404.099999427799
 10
1340.303666666865
 20
-1404.550000190738
 10
1340.340333333532
 20
-1404.800001144413
 10
1341.253666666865
 20
-1410.800000190738
 10
1342.030333333531
 20
-1415.099998474125
 10
1342.203666666866
 20
-1415.899997711181
 10
1342.423666666866
 20
-1416.850000381473
 10
1343.153666666865
 20
-1419.850002288822
 10
1343.720333333531
 20
-1421.999999046329
 10
1344.103666666866
 20
-1423.500000000004
 10
1344.593666666866
 20
-1425.600000381473
 10
1345.053666666865
 20
-1427.399998664859
 10
1345.410333333532
 20
-1428.399997711182
 10
1346.003666666865
 20
-1430.050002098087
 10
1346.760333333532
 20
-1431.94999790192
 10
1346.953666666866
 20
-1432.550002098087
 10
1347.103666666866
 20
-1432.900000572208
 10
1347.903666666866
 20
-1434.850002288822
 10
1348.793666666866
 20
-1436.799999237064
 10
1348.853666666866
 20
-1436.900001525882
 10
1348.930333333532
 20
-1436.999999046329
 10
1350.483666666866
 20
-1439.249998092651
 10
1350.753666666866
 20
-1439.649997711181
 10
1351.100333333532
 20
-1439.949999809269
 10
1351.703666666866
 20
-1440.549999237064
 10
1352.173666666866
 20
-1441.000000000004
 10
1352.653666666866
 20
-1441.599999427799
 10
1353.267000000198
 20
-1442.399998664859
 10
1353.863666666866
 20
-1442.950001716617
 10
1355.437000000198
 20
-1444.299999237064
 10
1355.553666666865
 20
-1444.350000381473
 10
1355.973666666866
 20
-1444.500003814701
 10
1357.247000000199
 20
-1444.900003433231
 10
1357.607000000198
 20
-1444.900003433231
 10
1358.353666666866
 20
-1444.699998855593
 10
1358.937000000199
 20
-1444.850002288822
 10
1359.303666666865
 20
-1444.95000457764
 10
1359.773666666866
 20
-1444.850002288822
 10
1360.627000000198
 20
-1444.800001144413
 10
1361.203666666866
 20
-1444.800001144413
 10
1361.943666666866
 20
-1444.649997711182
 10
1362.153666666866
 20
-1444.599996566776
 10
1362.317000000199
 20
-1444.500003814701
 10
1363.103666666866
 20
-1444.199996948246
 10
1364.007000000199
 20
-1443.500000000003
 10
1364.053666666866
 20
-1443.449998855594
 10
1364.113666666866
 20
-1443.449998855594
 10
1365.003666666865
 20
-1443.100000381473
 10
1365.697000000199
 20
-1442.64999961853
 10
1366.280333333532
 20
-1442.199998855594
 10
1366.903666666866
 20
-1441.599999427799
 10
1367.387000000199
 20
-1441.250000953681
 10
1368.450333333532
 20
-1440.299998283393
 10
1369.080333333532
 20
-1439.750000000003
 10
1369.753666666866
 20
-1439.200001716617
 10
1370.620333333532
 20
-1438.649998664859
 10
1370.703666666865
 20
-1438.600002288822
 10
1370.770333333531
 20
-1438.550001144412
 10
1371.653666666866
 20
-1437.849999427799
 10
1372.460333333531
 20
-1437.449999809269
 10
1372.603666666866
 20
-1437.39999866486
 10
1372.787000000198
 20
-1437.350002288822
 10
1373.553666666865
 20
-1437.050000190738
 10
1374.150333333532
 20
-1437.050000190738
 10
1374.503666666865
 20
-1436.999999046329
 10
1374.957000000199
 20
-1436.650000572208
 10
1375.453666666866
 20
-1436.300002098087
 10
1375.840333333532
 20
-1436.050001144413
 10
1377.127000000198
 20
-1435.549999237064
 10
1377.530333333531
 20
-1435.349999427799
 10
1378.963666666866
 20
-1434.550000190738
 10
1379.220333333532
 20
-1434.400001525882
 10
1379.253666666865
 20
-1434.400001525882
 10
1379.293666666866
 20
-1434.400001525882
 10
1380.203666666866
 20
-1434.099999427799
 10
1380.913666666866
 20
-1433.750000953681
 10
1381.463666666866
 20
-1433.500000000003
 10
1382.103666666866
 20
-1433.300000190738
 10
1382.603666666866
 20
-1433.150001525882
 10
1383.053666666866
 20
-1433.049999237064
 10
1383.633666666866
 20
-1432.900000572208
 10
1384.003666666866
 20
-1432.799998283393
 10
1384.293666666865
 20
-1432.750001907352
 10
1384.953666666866
 20
-1432.700000762943
 10
1385.800333333532
 20
-1432.64999961853
 10
1385.983666666866
 20
-1432.64999961853
 10
1386.630333333532
 20
-1432.550002098087
 10
1387.673666666866
 20
-1432.500000953681
 10
1387.803666666865
 20
-1432.500000953681
 10
1387.970333333532
 20
-1432.500000953681
 10
1389.363666666866
 20
-1432.500000953681
 10
1390.140333333532
 20
-1432.500000953681
 10
1390.653666666866
 20
-1432.500000953681
 10
1391.053666666866
 20
-1432.599998474125
 10
1391.603666666866
 20
-1432.700000762943
 10
1392.307000000198
 20
-1432.799998283393
 10
1392.553666666866
 20
-1432.849999427799
 10
1392.747000000199
 20
-1432.849999427799
 10
1394.293666666866
 20
-1432.700000762943
 10
1394.437000000199
 20
-1432.700000762943
 10
1394.477000000199
 20
-1432.700000762943
 10
1395.403666666866
 20
-1432.449999809269
 10
1396.127000000199
 20
-1432.350002288822
 10
1396.353666666866
 20
-1432.350002288822
 10
1396.647000000198
 20
-1432.250000000004
 10
1397.303666666865
 20
-1432.100001335148
 10
1397.817000000199
 20
-1432.050000190738
 10
1398.253666666866
 20
-1431.94999790192
 10
1398.813666666866
 20
-1431.799999237064
 10
1399.507000000198
 20
-1431.700001716617
 10
1400.983666666865
 20
-1431.700001716617
 10
1401.197000000199
 20
-1431.700001716617
 10
1401.957000000199
 20
-1431.650000572208
 10
1402.890333333532
 20
-1431.650000572208
 10
1403.003666666865
 20
-1431.650000572208
 10
1403.153666666866
 20
-1431.650000572208
 10
1403.953666666866
 20
-1431.700001716617
 10
1404.580333333532
 20
-1431.599999427799
 10
1404.903666666865
 20
-1431.549998283393
 10
1405.320333333532
 20
-1431.599999427799
 10
1406.270333333532
 20
-1431.549998283393
 10
1406.803666666865
 20
-1431.450000762943
 10
1407.490333333532
 20
-1431.39999961853
 10
1407.753666666866
 20
-1431.39999961853
 10
1407.960333333531
 20
-1431.349998474124
 10
1409.620333333531
 20
-1431.349998474124
 10
1409.650333333532
 20
-1431.349998474124
 10
1409.653666666866
 20
-1431.349998474124
 10
1409.660333333532
 20
-1431.349998474124
 10
1410.603666666865
 20
-1431.599999427799
 10
1411.340333333532
 20
-1431.599999427799
 10
1411.553666666866
 20
-1431.650000572208
 10
1411.827000000198
 20
-1431.599999427799
 10
1412.503666666865
 20
-1431.549998283393
 10
1413.030333333531
 20
-1431.349998474124
 10
1413.453666666866
 20
-1431.199999809269
 10
1413.997000000199
 20
-1431.199999809269
 10
1414.723666666866
 20
-1431.000000000003
 10
1415.353666666866
 20
-1430.69999790192
 10
1416.167000000198
 20
-1430.749999046329
 10
1416.303666666865
 20
-1430.800000190738
 10
1416.413666666866
 20
-1430.749999046329
 10
1417.253666666866
 20
-1430.600000381473
 10
1418.103666666866
 20
-1430.400000572208
 10
1418.203666666865
 20
-1430.349999427799
 10
1418.333666666866
 20
-1430.349999427799
 10
1419.793666666866
 20
-1430.000000953682
 10
1420.103666666866
 20
-1429.949999809269
 10
1420.503666666865
 20
-1429.649997711181
 10
1421.053666666866
 20
-1429.249998092651
 10
1421.483666666866
 20
-1428.849998474125
 10
1422.673666666866
 20
-1427.64999961853
 10
1422.953666666866
 20
-1427.350002288822
 10
1423.173666666866
 20
-1426.94999790192
 10
1423.903666666866
 20
-1425.450001716617
 10
1424.840333333532
 20
-1422.799998283393
 10
1424.853666666866
 20
-1422.750001907352
 10
1424.863666666866
 20
-1422.700000762943
 10
1425.803666666866
 20
-1419.850002288822
 10
1426.557000000198
 20
-1418.150001525882
 10
1426.753666666866
 20
-1417.599998474124
 10
1427.010333333531
 20
-1417.250000000003
 10
1427.703666666866
 20
-1416.050001144412
 10
1428.247000000198
 20
-1415.349999427799
 10
1429.180333333532
 20
-1413.449998855593
 10
1429.603666666866
 20
-1412.500000953681
 10
1429.937000000198
 20
-1411.749998092651
 10
1430.553666666865
 20
-1410.099998474125
 10
1431.347000000198
 20
-1408.399997711181
 10
1431.627000000198
 20
-1407.599998474125
 10
1432.453666666866
 20
-1405.099998474125
 10
1433.317000000198
 20
-1402.34999990464
 10
1433.517000000199
 20
-1401.699999332431
 10
1434.353666666866
 20
-1399.199999332432
 10
1435.007000000199
 20
-1396.899999141693
 10
1435.303666666866
 20
-1395.700000286102
 10
1435.687000000198
 20
-1393.99999952317
 10
1436.253666666865
 20
-1391.49999952317
 10
1436.700333333531
 20
-1389.599998950962
 10
1437.203666666866
 20
-1387.400001049049
 10
1437.853666666866
 20
-1384.150000572208
 10
1438.390333333532
 20
-1381.700000524525
 10
1440.023666666865
 20
-1377.34999990464
 10
1440.053666666865
 20
-1377.250000000003
 10
1440.080333333532
 20
-1377.250000000003
 10
1440.277000000199
 20
-1377.100000143051
 10
1441.770333333531
 20
-1376.000000000004
 10
1442.193666666866
 20
-1375.900000095367
 10
1442.907000000199
 20
-1375.750000238422
 10
1443.460333333532
 20
-1375.850000143051
 10
1443.857000000199
 20
-1375.900000095367
 10
1444.360333333532
 20
-1376.000000000004
 10
1444.807000000199
 20
-1376.04999995232
 10
1445.150333333532
 20
-1376.149999856956
 10
1446.530333333531
 20
-1376.199999809269
 10
1446.840333333532
 20
-1376.149999856956
 10
1447.657000000198
 20
-1376.04999995232
 10
1448.533666666866
 20
-1376.04999995232
 10
1448.700333333532
 20
-1376.04999995232
 10
1449.557000000199
 20
-1375.950000047691
 10
1450.223666666866
 20
-1376.000000000004
 10
1450.507000000199
 20
-1376.04999995232
 10
1450.867000000198
 20
-1376.09999990464
 10
1451.457000000199
 20
-1376.199999809269
 10
1451.913666666866
 20
-1376.199999809269
 10
1453.037000000199
 20
-1376.249999761581
 10
1453.603666666866
 20
-1376.249999761581
 10
1455.207000000199
 20
-1376.44999957085
 10
1455.293666666866
 20
-1376.44999957085
 10
1455.603666666866
 20
-1376.49999952317
 10
1456.983666666866
 20
-1376.650000572208
 10
1457.377000000199
 20
-1376.650000572208
 10
1458.673666666865
 20
-1376.44999957085
 10
1459.543666666865
 20
-1376.000000000004
 10
1460.367000000198
 20
-1375.750000238422
 10
1464.870103690891
 20
-1375.500000476841
  0
HATCH
  5
205F3C
330
1F
100
AcDbEntity
  8
开挖线
100
AcDbHatch
 10
0.0
 20
0.0
 30
0.0
210
0.0
220
0.0
230
1.0
  2
SOLID
 70
1
 71
1
 91
0
 75
0
 76
0
 98
1
 10
0.0
 20
0.0
  0
HATCH
  5
205F3D
330
1F
100
AcDbEntity
  8
开挖线
100
AcDbHatch
 10
0.0
 20
0.0
 30
0.0
210
0.0
220
0.0
230
1.0
  2
SOLID
 70
1
 71
1
 91
0
 75
0
 76
0
 98
1
 10
0.0
 20
0.0
  0
HATCH
  5
205F3E
330
1F
100
AcDbEntity
  8
开挖线
100
AcDbHatch
 10
0.0
 20
0.0
 30
0.0
210
0.0
220
0.0
230
1.0
  2
SOLID
 70
1
 71
1
 91
0
 75
0
 76
0
 98
1
 10
0.0
 20
0.0
  0
HATCH
  5
205F3F
330
1F
100
AcDbEntity
  8
开挖线
100
AcDbHatch
 10
0.0
 20
0.0
 30
0.0
210
0.0
220
0.0
230
1.0
  2
SOLID
 70
1
 71
1
 91
0
 75
0
 76
0
 98
1
 10
0.0
 20
0.0
  0
HATCH
  5
205F40
330
1F
100
AcDbEntity
  8
开挖线
100
AcDbHatch
 10
0.0
 20
0.0
 30
0.0
210
0.0
220
0.0
230
1.0
  2
SOLID
 70
1
 71
1
 91
0
 75
0
 76
0
 98
1
 10
0.0
 20
0.0
  0
HATCH
  5
205F41
330
1F
100
AcDbEntity
  8
开挖线
100
AcDbHatch
 10
0.0
 20
0.0
 30
0.0
210
0.0
220
0.0
230
1.0
  2
SOLID
 70
1
 71
1
 91
0
 75
0
 76
0
 98
1
 10
0.0
 20
0.0
  0
HATCH
  5
205F42
330
1F
100
AcDbEntity
  8
开挖线
100
AcDbHatch
 10
0.0
 20
0.0
 30
0.0
210
0.0
220
0.0
230
1.0
  2
SOLID
 70
1
 71
1
 91
0
 75
0
 76
0
 98
1
 10
0.0
 20
0.0
  0
HATCH
  5
205F43
330
1F
100
AcDbEntity
  8
开挖线
100
AcDbHatch
 10
0.0
 20
0.0
 30
0.0
210
0.0
220
0.0
230
1.0
  2
SOLID
 70
1
 71
1
 91
0
 75
0
 76
0
 98
1
 10
0.0
 20
0.0
  0
HATCH
  5
205F44
330
1F
100
AcDbEntity
  8
开挖线
100
AcDbHatch
 10
0.0
 20
0.0
 30
0.0
210
0.0
220
0.0
230
1.0
  2
SOLID
 70
1
 71
1
 91
0
 75
0
 76
0
 98
1
 10
0.0
 20
0.0
  0
HATCH
  5
205F45
330
1F
100
AcDbEntity
  8
开挖线
100
AcDbHatch
 10
0.0
 20
0.0
 30
0.0
210
0.0
220
0.0
230
1.0
  2
SOLID
 70
1
 71
1
 91
0
 75
0
 76
0
 98
1
 10
0.0
 20
0.0
  0
HATCH
  5
205F46
330
1F
100
AcDbEntity
  8
开挖线
100
AcDbHatch
 10
0.0
 20
0.0
 30
0.0
210
0.0
220
0.0
230
1.0
  2
SOLID
 70
1
 71
1
 91
0
 75
0
 76
0
 98
1
 10
0.0
 20
0.0
  0
HATCH
  5
205F47
330
1F
100
AcDbEntity
  8
开挖线
100
AcDbHatch
 10
0.0
 20
0.0
 30
0.0
210
0.0
220
0.0
230
1.0
  2
SOLID
 70
1
 71
1
 91
0
 75
0
 76
0
 98
1
 10
0.0
 20
0.0
  0
HATCH
  5
205F48
330
1F
100
AcDbEntity
  8
开挖线
100
AcDbHatch
 10
0.0
 20
0.0
 30
0.0
210
0.0
220
0.0
230
1.0
  2
SOLID
 70
1
 71
1
 91
0
 75
0
 76
0
 98
1
 10
0.0
 20
0.0
  0
HATCH
  5
205F49
330
1F
100
AcDbEntity
  8
开挖线
100
AcDbHatch
 10
0.0
 20
0.0
 30
0.0
210
0.0
220
0.0
230
1.0
  2
SOLID
 70
1
 71
1
 91
0
 75
0
 76
0
 98
1
 10
0.0
 20
0.0
  0
HATCH
  5
205F4A
330
1F
100
AcDbEntity
  8
开挖线
100
AcDbHatch
 10
0.0
 20
0.0
 30
0.0
210
0.0
220
0.0
230
1.0
  2
SOLID
 70
1
 71
1
 91
0
 75
0
 76
0
 98
1
 10
0.0
 20
0.0
  0
HATCH
  5
205F4B
330
1F
100
AcDbEntity
  8
开挖线
100
AcDbHatch
 10
0.0
 20
0.0
 30
0.0
210
0.0
220
0.0
230
1.0
  2
SOLID
 70
1
 71
1
 91
0
 75
0
 76
0
 98
1
 10
0.0
 20
0.0
  0
HATCH
  5
205F4C
330
1F
100
AcDbEntity
  8
开挖线
100
AcDbHatch
 10
0.0
 20
0.0
 30
0.0
210
0.0
220
0.0
230
1.0
  2
SOLID
 70
1
 71
1
 91
0
 75
0
 76
0
 98
1
 10
0.0
 20
0.0
  0
HATCH
  5
205F4D
330
1F
100
AcDbEntity
  8
开挖线
100
AcDbHatch
 10
0.0
 20
0.0
 30
0.0
210
0.0
220
0.0
230
1.0
  2
SOLID
 70
1
 71
1
 91
0
 75
0
 76
0
 98
1
 10
0.0
 20
0.0
  0
HATCH
  5
205F4E
330
1F
100
AcDbEntity
  8
开挖线
100
AcDbHatch
 10
0.0
 20
0.0
 30
0.0
210
0.0
220
0.0
230
1.0
  2
SOLID
 70
1
 71
1
 91
0
 75
0
 76
0
 98
1
 10
0.0
 20
0.0
  0
HATCH
  5
205F4F
330
1F
100
AcDbEntity
  8
开挖线
100
AcDbHatch
 10
0.0
 20
0.0
 30
0.0
210
0.0
220
0.0
230
1.0
  2
SOLID
 70
1
 71
1
 91
0
 75
0
 76
0
 98
1
 10
0.0
 20
0.0
  0
HATCH
  5
205F50
330
1F
100
AcDbEntity
  8
开挖线
100
AcDbHatch
 10
0.0
 20
0.0
 30
0.0
210
0.0
220
0.0
230
1.0
  2
SOLID
 70
1
 71
1
 91
0
 75
0
 76
0
 98
1
 10
0.0
 20
0.0
  0
HATCH
  5
205F51
330
1F
100
AcDbEntity
  8
开挖线
100
AcDbHatch
 10
0.0
 20
0.0
 30
0.0
210
0.0
220
0.0
230
1.0
  2
SOLID
 70
1
 71
1
 91
0
 75
0
 76
0
 98
1
 10
0.0
 20
0.0
  0
HATCH
  5
205F52
330
1F
100
AcDbEntity
  8
开挖线
100
AcDbHatch
 10
0.0
 20
0.0
 30
0.0
210
0.0
220
0.0
230
1.0
  2
SOLID
 70
1
 71
1
 91
0
 75
0
 76
0
 98
1
 10
0.0
 20
0.0
  0
HATCH
  5
205F53
330
1F
100
AcDbEntity
  8
开挖线
100
AcDbHatch
 10
0.0
 20
0.0
 30
0.0
210
0.0
220
0.0
230
1.0
  2
SOLID
 70
1
 71
1
 91
0
 75
0
 76
0
 98
1
 10
0.0
 20
0.0
  0
HATCH
  5
205F54
330
1F
100
AcDbEntity
  8
开挖线
100
AcDbHatch
 10
0.0
 20
0.0
 30
0.0
210
0.0
220
0.0
230
1.0
  2
SOLID
 70
1
 71
1
 91
0
 75
0
 76
0
 98
1
 10
0.0
 20
0.0
  0
HATCH
  5
205F55
330
1F
100
AcDbEntity
  8
开挖线
100
AcDbHatch
 10
0.0
 20
0.0
 30
0.0
210
0.0
220
0.0
230
1.0
  2
SOLID
 70
1
 71
1
 91
0
 75
0
 76
0
 98
1
 10
0.0
 20
0.0
  0
HATCH
  5
205F56
330
1F
100
AcDbEntity
  8
开挖线
100
AcDbHatch
 10
0.0
 20
0.0
 30
0.0
210
0.0
220
0.0
230
1.0
  2
SOLID
 70
1
 71
1
 91
0
 75
0
 76
0
 98
1
 10
0.0
 20
0.0
  0
HATCH
  5
205F57
330
1F
100
AcDbEntity
  8
开挖线
 62
1
100
AcDbHatch
 10
0.0
 20
0.0
 30
0.0
210
0.0
220
0.0
230
1.0
  2
SOLID
 70
1
 71
1
 91
0
 75
0
 76
0
 98
1
 10
0.0
 20
0.0
  0
LWPOLYLINE
  5
206279
330
1F
100
AcDbEntity
  8
超挖框
100
AcDbPolyline
 90
8
 70
0
 10
1318.509293012282
 20
-1381.742052112535
 10
1339.880355612131
 20
-1427.53718625533
 10
1340.034374991757
 20
-1427.603160517891
 10
1350.416654819126
 20
-1458.75
 10
1429.583345180829
 20
-1458.75
 10
1438.555126090748
 20
-1431.834657270239
 10
1438.581747727663
 20
-1431.832191826936
 10
1464.931070137534
 20
-1375.369358091176
  0
LWPOLYLINE
  5
2062BA
330
1F
100
AcDbEntity
  8
断面线
  6
Continuous
100
AcDbPolyline
 90
98
 70
0
 43
0.2
 10
1550.054142513811
 20
-1250.778478262578
 10
1550.054142513811
 20
-1250.778478262578
 10
1551.72080918044
 20
-1249.973478262413
 10
1553.387475847185
 20
-1251.228478262299
 10
1555.054142513812
 20
-1251.713478262634
 10
1556.72080918044
 20
-1254.148478262224
 10
1558.387475847185
 20
-1256.113478262543
 10
1560.054142513813
 20
-1257.568478262616
 10
1561.72080918044
 20
-1257.898478262224
 10
1563.387475847185
 20
-1257.233478262653
 10
1565.054142513812
 20
-1255.903478262578
 10
1566.72080918044
 20
-1255.118478262428
 10
1568.387475847185
 20
-1255.968478262523
 10
1570.054142513813
 20
-1256.368478262429
 10
1571.72080918044
 20
-1256.763478262448
 10
1573.387475847185
 20
-1257.943478262617
 10
1575.054142513812
 20
-1258.508478262558
 10
1576.72080918044
 20
-1257.45847826228
 10
1578.387475847185
 20
-1257.083478262281
 10
1580.054142513812
 20
-1256.718478262523
 10
1581.72080918044
 20
-1256.918478262244
 10
1583.387475847185
 20
-1259.538478262355
 10
1585.054142513812
 20
-1264.978478262299
 10
1586.72080918044
 20
-1271.453478262394
 10
1588.387475847184
 20
-1275.708478262281
 10
1590.054142513812
 20
-1279.188478262261
 10
1591.72080918044
 20
-1282.548478262598
 10
1593.387475847185
 20
-1285.778478262579
 10
1595.054142513812
 20
-1289.388478262448
 10
1596.72080918044
 20
-1292.898478262225
 10
1598.387475847184
 20
-1294.558478262374
 10
1600.054142513812
 20
-1295.678478262484
 10
1601.72080918044
 20
-1296.188478262263
 10
1603.387475847184
 20
-1296.36847826243
 10
1605.054142513813
 20
-1296.888478262449
 10
1606.720809180441
 20
-1297.063478262263
 10
1608.387475847185
 20
-1297.223478262412
 10
1610.054142513812
 20
-1296.588478262637
 10
1611.72080918044
 20
-1296.043478262242
 10
1613.387475847185
 20
-1295.958478262281
 10
1615.054142513812
 20
-1296.073478262504
 10
1616.72080918044
 20
-1296.268478262338
 10
1618.387475847185
 20
-1296.068478262616
 10
1620.054142513813
 20
-1296.218478262523
 10
1621.72080918044
 20
-1295.638478262448
 10
1623.387475847185
 20
-1295.283478262467
 10
1625.054142513812
 20
-1294.878478262672
 10
1626.72080918044
 20
-1294.533478262469
 10
1628.387475847184
 20
-1294.34847826241
 10
1630.054142513813
 20
-1293.83347826228
 10
1631.72080918044
 20
-1293.088478262636
 10
1633.387475847184
 20
-1292.603478262299
 10
1635.054142513812
 20
-1292.258478262562
 10
1636.72080918044
 20
-1291.808478262374
 10
1638.387475847185
 20
-1291.298478262598
 10
1640.054142513812
 20
-1290.878478262673
 10
1641.72080918044
 20
-1290.528478262578
 10
1643.387475847185
 20
-1290.263478262449
 10
1645.054142513813
 20
-1289.74347826243
 10
1646.72080918044
 20
-1289.583478262281
 10
1648.387475847185
 20
-1289.203478262393
 10
1650.054142513812
 20
-1289.388478262448
 10
1651.72080918044
 20
-1288.778478262579
 10
1653.387475847184
 20
-1287.933478262374
 10
1655.054142513813
 20
-1286.958478262281
 10
1656.720809180441
 20
-1286.033478262469
 10
1658.387475847185
 20
-1284.948478262504
 10
1660.054142513812
 20
-1283.878478262673
 10
1661.72080918044
 20
-1282.83347826228
 10
1663.387475847185
 20
-1281.183478262374
 10
1665.054142513812
 20
-1279.933478262374
 10
1666.72080918044
 20
-1276.268478262335
 10
1668.387475847185
 20
-1272.873478262319
 10
1670.054142513812
 20
-1270.168478262244
 10
1671.72080918044
 20
-1268.383478262559
 10
1673.387475847185
 20
-1266.633478262559
 10
1675.054142513813
 20
-1264.263478262449
 10
1676.72080918044
 20
-1263.253478262673
 10
1678.387475847184
 20
-1261.258478262561
 10
1680.054142513813
 20
-1259.378478262672
 10
1681.720809180441
 20
-1252.9784782623
 10
1683.387475847184
 20
-1247.348478262413
 10
1685.054142513812
 20
-1240.443478262616
 10
1686.72080918044
 20
-1236.883478262559
 10
1688.387475847185
 20
-1237.158478262467
 10
1690.054142513812
 20
-1236.998478262319
 10
1691.72080918044
 20
-1236.668478262241
 10
1693.387475847185
 20
-1236.708478262281
 10
1695.054142513813
 20
-1236.57847826239
 10
1696.72080918044
 20
-1236.028478262578
 10
1698.387475847185
 20
-1235.638478262448
 10
1700.054142513813
 20
-1235.173478262597
 10
1701.72080918044
 20
-1235.028478262579
 10
1703.387475847184
 20
-1234.673478262597
 10
1705.054142513812
 20
-1234.698478262504
 10
1706.72080918044
 20
-1235.488478262543
 10
1708.387475847185
 20
-1235.588478262636
 10
1710.054142513812
 20
-1236.038478262355
1001
SOUTH
1000
990300
  0
LWPOLYLINE
  5
2062BB
330
1F
100
AcDbEntity
  8
断面线
  6
Continuous
100
AcDbPolyline
 90
98
 70
0
 43
0.2
 10
1550.054142513812
 20
-1379.983478262653
 10
1550.054142513812
 20
-1379.983478262653
 10
1551.72080918044
 20
-1379.903478262578
 10
1553.387475847185
 20
-1383.348478262413
 10
1555.054142513812
 20
-1386.563478262263
 10
1556.72080918044
 20
-1388.388478262448
 10
1558.387475847185
 20
-1389.548478262597
 10
1560.054142513813
 20
-1389.1034782623
 10
1561.72080918044
 20
-1388.45847826228
 10
1563.387475847185
 20
-1387.608478262653
 10
1565.054142513812
 20
-1386.888478262447
 10
1566.72080918044
 20
-1385.943478262616
 10
1568.387475847185
 20
-1385.718478262523
 10
1570.054142513813
 20
-1386.423478262597
 10
1571.72080918044
 20
-1388.423478262597
 10
1573.387475847185
 20
-1390.153478262579
 10
1575.054142513812
 20
-1391.358478262654
 10
1576.72080918044
 20
-1392.298478262597
 10
1578.387475847185
 20
-1392.903478262579
 10
1580.054142513812
 20
-1393.063478262263
 10
1581.72080918044
 20
-1392.9784782623
 10
1583.387475847185
 20
-1398.378478262672
 10
1585.054142513812
 20
-1403.898478262224
 10
1586.72080918044
 20
-1407.298478262598
 10
1588.387475847184
 20
-1410.58347826228
 10
1590.054142513812
 20
-1413.778478262579
 10
1591.72080918044
 20
-1416.9784782623
 10
1593.387475847185
 20
-1420.163478262357
 10
1595.054142513812
 20
-1423.623478262319
 10
1596.72080918044
 20
-1426.758478262561
 10
1598.387475847184
 20
-1427.603478262299
 10
1600.054142513812
 20
-1428.483478262653
 10
1601.72080918044
 20
-1428.963478262634
 10
1603.387475847184
 20
-1429.283478262467
 10
1605.054142513813
 20
-1429.483478262656
 10
1606.720809180441
 20
-1429.533478262467
 10
1608.387475847185
 20
-1429.603478262299
 10
1610.054142513812
 20
-1429.403478262579
 10
1611.72080918044
 20
-1429.248478262318
 10
1613.387475847185
 20
-1429.498478262319
 10
1615.054142513812
 20
-1429.648478262224
 10
1616.72080918044
 20
-1429.563478262261
 10
1618.387475847185
 20
-1429.278478262578
 10
1620.054142513813
 20
-1428.848478262413
 10
1621.72080918044
 20
-1428.86847826243
 10
1623.387475847185
 20
-1428.908478262469
 10
1625.054142513812
 20
-1428.123478262318
 10
1626.72080918044
 20
-1427.563478262261
 10
1628.387475847184
 20
-1426.733478262653
 10
1630.054142513813
 20
-1426.303478262487
 10
1631.72080918044
 20
-1426.253478262672
 10
1633.387475847184
 20
-1426.053478262484
 10
1635.054142513812
 20
-1425.838478262636
 10
1636.72080918044
 20
-1425.248478262319
 10
1638.387475847185
 20
-1424.693478262616
 10
1640.054142513812
 20
-1424.303478262487
 10
1641.72080918044
 20
-1423.918478262244
 10
1643.387475847185
 20
-1423.638478262448
 10
1645.054142513813
 20
-1423.563478262263
 10
1646.72080918044
 20
-1423.493478262429
 10
1648.387475847185
 20
-1422.808478262374
 10
1650.054142513812
 20
-1421.743478262428
 10
1651.72080918044
 20
-1420.908478262468
 10
1653.387475847184
 20
-1420.328478262393
 10
1655.054142513813
 20
-1419.638478262448
 10
1656.720809180441
 20
-1418.838478262634
 10
1658.387475847185
 20
-1417.93847826226
 10
1660.054142513812
 20
-1416.793478262244
 10
1661.72080918044
 20
-1415.573478262506
 10
1663.387475847185
 20
-1414.403478262578
 10
1665.054142513812
 20
-1412.653478262578
 10
1666.72080918044
 20
-1410.148478262225
 10
1668.387475847185
 20
-1407.783478262467
 10
1670.054142513812
 20
-1404.838478262634
 10
1671.72080918044
 20
-1402.298478262598
 10
1673.387475847185
 20
-1400.363478262542
 10
1675.054142513813
 20
-1399.388478262449
 10
1676.72080918044
 20
-1398.563478262263
 10
1678.387475847184
 20
-1395.498478262319
 10
1680.054142513813
 20
-1391.23847826254
 10
1681.720809180441
 20
-1383.343478262523
 10
1683.387475847184
 20
-1377.24347826243
 10
1685.054142513812
 20
-1373.338478262634
 10
1686.72080918044
 20
-1371.768478262335
 10
1688.387475847185
 20
-1371.47347826241
 10
1690.054142513812
 20
-1370.698478262504
 10
1691.72080918044
 20
-1369.773478262225
 10
1693.387475847185
 20
-1369.863478262542
 10
1695.054142513813
 20
-1370.063478262261
 10
1696.72080918044
 20
-1370.578478262393
 10
1698.387475847185
 20
-1370.413478262355
 10
1700.054142513813
 20
-1369.403478262579
 10
1701.72080918044
 20
-1368.998478262319
 10
1703.387475847184
 20
-1368.903478262578
 10
1705.054142513812
 20
-1369.288478262355
 10
1706.72080918044
 20
-1369.693478262616
 10
1708.387475847185
 20
-1369.968478262523
 10
1710.054142513812
 20
-1369.828478262393
1001
SOUTH
1000
990300
  0
LWPOLYLINE
  5
2062BC
330
1F
100
AcDbEntity
  8
地质分层
  6
ACAD_ISO05W100
 48
0.2
100
AcDbPolyline
 90
6
 70
128
 43
0.1
 10
1566.004295603407
 20
-1278.104251592518
 10
1569.458970912417
 20
-1278.139286727277
 10
1572.761151156772
 20
-1278.84019077719
 10
1580.887881680892
 20
-1282.196603858476
 10
1586.232830010156
 20
-1283.67413331485
 10
1593.387475847185
 20
-1285.778478262579
  0
LWPOLYLINE
  5
2062BD
330
1F
100
AcDbEntity
  8
地质分层
  6
ACAD_ISO05W100
 48
0.2
100
AcDbPolyline
 90
9
 70
128
 43
0.1
 10
1608.387475847185
 20
-1297.223478262412
 10
1613.734823699027
 20
-1299.922314745937
 10
1621.941791985218
 20
-1301.821662031212
 10
1630.054142513813
 20
-1303.213478262634
 10
1643.536203755799
 20
-1302.088016308944
 10
1651.744966101518
 20
-1299.783650782522
 10
1666.410036304418
 20
-1294.990549010323
 10
1679.22104360772
 20
-1291.013478858495
 10
1704.196177553071
 20
-1287.555314822223
  0
LWPOLYLINE
  5
2062BE
330
1F
100
AcDbEntity
  8
地质分层
  6
ACAD_ISO05W100
 48
0.2
100
AcDbPolyline
 90
4
 70
128
 43
0.1
 10
1651.744966101518
 20
-1299.783650782522
 10
1655.606636642047
 20
-1295.068539100332
 10
1659.456261353835
 20
-1288.592408509558
 10
1661.72080918044
 20
-1282.83347826228
  0
LWPOLYLINE
  5
2062BF
330
1F
100
AcDbEntity
  8
地质分层
  6
ACAD_ISO05W100
 48
0.2
100
AcDbPolyline
 90
5
 70
128
 43
0.1
 10
1568.36271507471
 20
-1304.235327782208
 10
1580.887881680892
 20
-1303.946603977687
 10
1591.721029142767
 20
-1302.781403241312
 10
1601.906417993864
 20
-1301.669910230305
 10
1619.459856251056
 20
-1301.247265039112
  0
LWPOLYLINE
  5
2062C0
330
1F
100
AcDbEntity
  8
地质分层
  6
ACAD_ISO05W100
 48
0.2
100
AcDbPolyline
 90
5
 70
128
 43
0.1
 10
1643.536203755799
 20
-1302.088016308944
 10
1655.493952613824
 20
-1304.199319448889
 10
1664.792050853173
 20
-1306.072759527346
 10
1679.22104360772
 20
-1310.763478500869
 10
1689.311975786613
 20
-1313.491482904747
  0
LWPOLYLINE
  5
2062C1
330
1F
100
AcDbEntity
  8
地质分层
  6
ACAD_ISO05W100
 48
0.2
100
AcDbPolyline
 90
6
 70
128
 43
0.1
 10
1563.593677541392
 20
-1413.423497866008
 10
1572.579780275851
 20
-1414.54683704824
 10
1580.887881680892
 20
-1417.380228977749
 10
1584.937860715587
 20
-1418.384157519885
 10
1589.865288080799
 20
-1419.867378681533
 10
1593.959730086417
 20
-1421.351478063134
  0
LWPOLYLINE
  5
2062C2
330
1F
100
AcDbEntity
  8
地质分层
  6
ACAD_ISO05W100
 48
0.2
100
AcDbPolyline
 90
8
 70
128
 43
0.1
 10
1603.387475847184
 20
-1429.283478262467
 10
1610.635115893592
 20
-1432.54805045026
 10
1617.392740329529
 20
-1435.021114849118
 10
1630.054142513813
 20
-1435.938478262263
 10
1643.83470109807
 20
-1434.404811924885
 10
1662.222017782309
 20
-1429.753763530503
 10
1679.22104360772
 20
-1425.851478977693
 10
1712.577169618953
 20
-1422.891508167707
  0
LWPOLYLINE
  5
2062C3
330
1F
100
AcDbEntity
  8
地质分层
  6
ACAD_ISO05W100
 48
0.2
100
AcDbPolyline
 90
9
 70
128
 43
0.1
 10
1565.017391969019
 20
-1438.660406267835
 10
1580.887881680892
 20
-1438.880228739331
 10
1602.595593168668
 20
-1438.660406267835
 10
1630.054142513813
 20
-1438.438478262263
 10
1635.554142513813
 20
-1438.438478262263
 10
1646.088467093568
 20
-1438.898571356764
 10
1666.206196963007
 20
-1441.866456698723
 10
1679.22104360772
 20
-1444.851478739274
 10
1688.144128428341
 20
-1446.653316578925
  0
LWPOLYLINE
  5
2062C4
330
1F
100
AcDbEntity
  8
地质分层
  6
ACAD_ISO05W100
 48
0.2
100
AcDbPolyline
 90
4
 70
128
 43
0.1
 10
1646.088467093568
 20
-1438.898571356764
 10
1651.884304729325
 20
-1437.271048393665
 10
1657.584288324264
 20
-1433.920226342607
 10
1662.222017782309
 20
-1429.753763530503
  0
LWPOLYLINE
  5
2062C5
330
1F
100
AcDbEntity
  8
地质分层
  6
ACAD_ISO05W100
 48
0.2
100
AcDbPolyline
 90
4
 70
128
 43
0.1
 10
1596.72080918044
 20
-1426.758478262561
 10
1601.292337027413
 20
-1431.783418697869
 10
1606.327151673531
 20
-1435.617081286949
 10
1611.842332539998
 20
-1438.585671423101
  0
LWPOLYLINE
  5
2062C6
330
1F
100
AcDbEntity
  8
地质分层
  6
ACAD_ISO05W100
 48
0.2
100
AcDbPolyline
 90
4
 70
128
 43
0.1
 10
1651.210402494447
 20
-1432.539137627562
 10
1654.677340383327
 20
-1428.609029890604
 10
1659.025430759333
 20
-1422.872950284839
 10
1663.387475847185
 20
-1414.403478262578
  0
LWPOLYLINE
  5
2062C7
330
1F
100
AcDbEntity
  8
开挖线
  6
Continuous
100
AcDbPolyline
 90
2
 70
128
 43
0.4
 10
1591.287475847164
 20
-1316.888478262449
 10
1668.820809181996
 20
-1316.888478262449
  0
LWPOLYLINE
  5
2062C8
330
1F
100
AcDbEntity
  8
开挖线
  6
Continuous
100
AcDbPolyline
 90
2
 70
128
 43
0.4
 10
1588.534606427043
 20
-1303.124131161135
 10
1581.626856793158
 20
-1282.400882259057
  0
LWPOLYLINE
  5
2062C9
330
1F
100
AcDbEntity
  8
超挖线
  6
ACAD_ISO02W100
 48
0.5
100
AcDbPolyline
 90
2
 70
128
 43
0.2
 10
1586.603818995987
 20
-1303.331804410703
 10
1579.346558710935
 20
-1281.560023555549
  0
LWPOLYLINE
  5
2062CA
330
1F
100
AcDbEntity
  8
开挖线
  6
Continuous
100
AcDbPolyline
 90
2
 70
128
 43
0.4
 10
1668.820809181996
 20
-1316.888478262449
 10
1670.605945322162
 20
-1307.96279756116
  0
LWPOLYLINE
  5
2062CB
330
1F
100
AcDbEntity
  8
超挖线
  6
ACAD_ISO02W100
 48
0.5
100
AcDbPolyline
 90
2
 70
128
 43
0.2
 10
1669.554142481996
 20
-1319.88847826245
 10
1671.857880350233
 20
-1308.36978892152
  0
LWPOLYLINE
  5
2062CC
330
1F
100
AcDbEntity
  8
超挖线
  6
ACAD_ISO02W100
 48
0.5
100
AcDbPolyline
 90
2
 70
128
 43
0.2
 10
1590.554130667027
 20
-1319.88847826245
 10
1669.554142481997
 20
-1319.88847826245
  0
LWPOLYLINE
  5
2062CD
330
1F
100
AcDbEntity
  8
开挖线
  6
Continuous
100
AcDbPolyline
 90
2
 70
128
 43
0.4
 10
1670.605945322162
 20
-1307.96279756116
 10
1675.913446235766
 20
-1292.04029482002
  0
LWPOLYLINE
  5
2062CE
330
1F
100
AcDbEntity
  8
超挖线
  6
ACAD_ISO02W100
 48
0.5
100
AcDbPolyline
 90
2
 70
128
 43
0.2
 10
1672.410418532772
 20
-1308.549413471933
 10
1678.144308981925
 20
-1291.347742124476
  0
LWPOLYLINE
  5
2062CF
330
1F
100
AcDbEntity
  8
开挖线
  6
Continuous
100
AcDbPolyline
 90
2
 70
128
 43
0.4
 10
1591.287475847164
 20
-1316.888478262449
 10
1588.534606427043
 20
-1303.124131161135
  0
LWPOLYLINE
  5
2062D0
330
1F
100
AcDbEntity
  8
超挖线
  6
ACAD_ISO02W100
 48
0.5
100
AcDbPolyline
 90
2
 70
128
 43
0.2
 10
1590.554142547164
 20
-1319.88847826245
 10
1587.229351467772
 20
-1303.264522865861
  0
TEXT
  5
2062D1
330
1F
100
AcDbEntity
  8
地质分层
  6
Continuous
100
AcDbText
 10
1592.853460778107
 20
-1298.497643560655
 30
0.0
 40
3.0
  1
7级砂
  7
仿宋GB2312
 41
0.7
 72
1
 11
1596.485893210539
 21
-1296.997643560655
 31
0.0
100
AcDbText
 73
2
1001
SOUTH
1000
990440
  0
TEXT
  5
2062D2
330
1F
100
AcDbEntity
  8
地质分层
  6
Continuous
100
AcDbText
 10
1632.4713889595
 20
-1297.987874122303
 30
0.0
 40
3.0
  1
1级淤泥
  7
仿宋体
 41
0.7
 72
1
 11
1637.556794364905
 21
-1296.487874122303
 31
0.0
100
AcDbText
 73
2
  0
TEXT
  5
2062D3
330
1F
100
AcDbEntity
  8
地质分层
  6
Continuous
100
AcDbText
 10
1613.956565014661
 20
-1311.073701871219
 30
0.0
 40
3.0
  1
5级粘土
  7
仿宋体
 41
0.7
 72
1
 11
1619.041970420067
 21
-1309.573701871219
 31
0.0
100
AcDbText
 73
2
  0
TEXT
  5
2062D4
330
1F
100
AcDbEntity
  8
地质分层
  6
Continuous
100
AcDbText
 10
1669.676450897599
 20
-1278.914900870288
 30
0.0
 40
3.0
  1
2级淤泥
  7
仿宋体
 41
0.7
 72
1
 11
1674.761856303004
 21
-1277.414900870288
 31
0.0
100
AcDbText
 73
2
  0
TEXT
  5
2062D5
330
1F
100
AcDbEntity
  8
地质分层
  6
Continuous
100
AcDbText
 10
1563.786053487616
 20
-1273.922568421306
 30
0.0
 40
3.0
  1
1级淤泥
  7
仿宋体
 41
0.7
 72
1
 11
1568.871458893021
 21
-1272.422568421305
 31
0.0
100
AcDbText
 73
2
  0
LWPOLYLINE
  5
2062D6
330
1F
100
AcDbEntity
  8
开挖线
  6
Continuous
100
AcDbPolyline
 90
2
 70
128
 43
0.4
 10
1675.913446235766
 20
-1292.04029482002
 10
1702.609336572943
 20
-1234.839221927994
  0
LWPOLYLINE
  5
2062D7
330
1F
100
AcDbEntity
  8
超挖线
  6
ACAD_ISO02W100
 48
0.5
100
AcDbPolyline
 90
2
 70
128
 43
0.2
 10
1678.252279478164
 20
-1291.314223586259
 10
1704.675610354206
 20
-1234.692800280133
  0
LWPOLYLINE
  5
2062D8
330
1F
100
AcDbEntity
  8
开挖线
  6
Continuous
100
AcDbPolyline
 90
2
 70
128
 43
0.4
 10
1581.626856793158
 20
-1282.400882259057
 10
1569.406147647921
 20
-1256.212959494648
  0
LWPOLYLINE
  5
2062D9
330
1F
100
AcDbEntity
  8
超挖线
  6
ACAD_ISO02W100
 48
0.5
100
AcDbPolyline
 90
2
 70
128
 43
0.2
 10
1579.207691053198
 20
-1281.502669959093
 10
1566.949495638518
 20
-1255.235108356057
  0
TEXT
  5
2062DA
330
1F
100
AcDbEntity
  8
地质分层
  6
Continuous
100
AcDbText
 10
1657.049885879615
 20
-1301.992492492452
 30
0.0
 40
3.0
  1
7级砂
  7
仿宋GB2312
 41
0.7
 72
1
 11
1660.682318312048
 21
-1300.492492492452
 31
0.0
100
AcDbText
 73
2
1001
SOUTH
1000
990440
  0
LWPOLYLINE
  5
2062DB
330
1F
100
AcDbEntity
  8
开挖线
  6
Continuous
100
AcDbPolyline
 90
2
 70
128
 43
0.4
 10
1591.287475847164
 20
-1450.388478262448
 10
1668.820809181996
 20
-1450.388478262448
  0
LWPOLYLINE
  5
2062DC
330
1F
100
AcDbEntity
  8
开挖线
  6
Continuous
100
AcDbPolyline
 90
2
 70
128
 43
0.4
 10
1588.969458375185
 20
-1438.798390901955
 10
1581.914934703585
 20
-1417.634819886723
  0
LWPOLYLINE
  5
2062DD
330
1F
100
AcDbEntity
  8
超挖线
  6
ACAD_ISO02W100
 48
0.5
100
AcDbPolyline
 90
2
 70
128
 43
0.2
 10
1586.97617483572
 20
-1438.818575826297
 10
1579.694382359021
 20
-1416.973198396201
  0
LWPOLYLINE
  5
2062DE
330
1F
100
AcDbEntity
  8
开挖线
  6
Continuous
100
AcDbPolyline
 90
2
 70
128
 43
0.4
 10
1668.820809181996
 20
-1450.388478262448
 10
1670.335785040142
 20
-1442.813598971327
  0
LWPOLYLINE
  5
2062DF
330
1F
100
AcDbEntity
  8
超挖线
  6
ACAD_ISO02W100
 48
0.5
100
AcDbPolyline
 90
2
 70
128
 43
0.2
 10
1669.554142481997
 20
-1453.388478262448
 10
1671.610639456346
 20
-1443.105993390927
  0
LWPOLYLINE
  5
2062E0
330
1F
100
AcDbEntity
  8
超挖线
  6
ACAD_ISO02W100
 48
0.5
100
AcDbPolyline
 90
2
 70
128
 43
0.2
 10
1590.554130667027
 20
-1453.388478262448
 10
1669.554142481997
 20
-1453.388478262448
  0
LWPOLYLINE
  5
2062E1
330
1F
100
AcDbEntity
  8
开挖线
  6
Continuous
100
AcDbPolyline
 90
2
 70
128
 43
0.4
 10
1670.335785040142
 20
-1442.813598971327
 10
1675.72208558034
 20
-1426.654697350405
  0
LWPOLYLINE
  5
2062E2
330
1F
100
AcDbEntity
  8
超挖线
  6
ACAD_ISO02W100
 48
0.5
100
AcDbPolyline
 90
2
 70
128
 43
0.2
 10
1672.193752118097
 20
-1443.239733280067
 10
1677.887818834832
 20
-1426.15753312986
  0
LWPOLYLINE
  5
2062E3
330
1F
100
AcDbEntity
  8
开挖线
  6
Continuous
100
AcDbPolyline
 90
2
 70
128
 43
0.4
 10
1591.287475847164
 20
-1450.388478262448
 10
1588.969458375185
 20
-1438.798390901955
  0
LWPOLYLINE
  5
2062E4
330
1F
100
AcDbEntity
  8
超挖线
  6
ACAD_ISO02W100
 48
0.5
100
AcDbPolyline
 90
2
 70
128
 43
0.2
 10
1590.554142547164
 20
-1453.388478262448
 10
1587.638820008684
 20
-1438.811865570372
  0
TEXT
  5
2062E5
330
1F
100
AcDbEntity
  8
地质分层
  6
Continuous
100
AcDbText
 10
1591.263731989831
 20
-1434.507119749656
 30
0.0
 40
3.0
  1
7级砂
  7
仿宋GB2312
 41
0.7
 72
1
 11
1594.896164422263
 21
-1433.007119749656
 31
0.0
100
AcDbText
 73
2
1001
SOUTH
1000
990440
  0
TEXT
  5
2062E6
330
1F
100
AcDbEntity
  8
地质分层
  6
Continuous
100
AcDbText
 10
1638.844397600994
 20
-1438.080774807866
 30
0.0
 40
3.0
  1
6级碎石
  7
仿宋GB2312
 41
0.7
 72
1
 11
1643.9298030064
 21
-1436.580774807866
 31
0.0
100
AcDbText
 73
2
1001
SOUTH
1000
990440
  0
TEXT
  5
2062E7
330
1F
100
AcDbEntity
  8
地质分层
  6
Continuous
100
AcDbText
 10
1632.471388959501
 20
-1431.487874122304
 30
0.0
 40
3.0
  1
1级淤泥
  7
仿宋体
 41
0.7
 72
1
 11
1637.556794364906
 21
-1429.987874122304
 31
0.0
100
AcDbText
 73
2
  0
TEXT
  5
2062E8
330
1F
100
AcDbEntity
  8
地质分层
  6
Continuous
100
AcDbText
 10
1613.956565014662
 20
-1444.573701871216
 30
0.0
 40
3.0
  1
5级粘土
  7
仿宋体
 41
0.7
 72
1
 11
1619.041970420067
 21
-1443.073701871217
 31
0.0
100
AcDbText
 73
2
  0
TEXT
  5
2062E9
330
1F
100
AcDbEntity
  8
地质分层
  6
Continuous
100
AcDbText
 10
1669.807041378038
 20
-1411.750109441334
 30
0.0
 40
3.0
  1
2级淤泥
  7
仿宋体
 41
0.7
 72
1
 11
1674.892446783443
 21
-1410.250109441334
 31
0.0
100
AcDbText
 73
2
  0
TEXT
  5
2062EA
330
1F
100
AcDbEntity
  8
地质分层
  6
Continuous
100
AcDbText
 10
1563.368627622927
 20
-1408.385252131769
 30
0.0
 40
3.0
  1
1级淤泥
  7
仿宋体
 41
0.7
 72
1
 11
1568.454033028332
 21
-1406.885252131769
 31
0.0
100
AcDbText
 73
2
  0
LWPOLYLINE
  5
2062EB
330
1F
100
AcDbEntity
  8
开挖线
  6
Continuous
100
AcDbPolyline
 90
2
 70
128
 43
0.4
 10
1675.72208558034
 20
-1426.654697350405
 10
1702.653120639325
 20
-1368.94533650931
  0
LWPOLYLINE
  5
2062EC
330
1F
100
AcDbEntity
  8
超挖线
  6
ACAD_ISO02W100
 48
0.5
100
AcDbPolyline
 90
2
 70
128
 43
0.2
 10
1677.962047493581
 20
-1426.140493250554
 10
1704.547593775242
 20
-1369.171465503812
  0
LWPOLYLINE
  5
2062ED
330
1F
100
AcDbEntity
  8
开挖线
  6
Continuous
100
AcDbPolyline
 90
2
 70
128
 43
0.4
 10
1581.914934703585
 20
-1417.634819886723
 10
1567.107837540419
 20
-1385.891229434
  0
LWPOLYLINE
  5
2062EE
330
1F
100
AcDbEntity
  8
超挖线
  6
ACAD_ISO02W100
 48
0.5
100
AcDbPolyline
 90
2
 70
128
 43
0.2
 10
1579.589483098431
 20
-1416.937423589913
 10
1565.459408552005
 20
-1386.658692418828
  0
TEXT
  5
2062EF
330
1F
100
AcDbEntity
  8
地质分层
  6
Continuous
100
AcDbText
 10
1657.452448025188
 20
-1438.198606864122
 30
0.0
 40
3.0
  1
7级砂
  7
仿宋GB2312
 41
0.7
 72
1
 11
1661.084880457621
 21
-1436.698606864122
 31
0.0
100
AcDbText
 73
2
1001
SOUTH
1000
990440
  0
LWPOLYLINE
  5
2062F0
330
1F
100
AcDbEntity
  8
超挖框
100
AcDbPolyline
 90
12
 70
0
 10
1566.826999314623
 20
-1254.958071893478
 10
1579.207691053198
 20
-1281.502669959092
 10
1579.346558710935
 20
-1281.560023555549
 10
1586.603818995987
 20
-1303.331804410703
 10
1587.229351467772
 20
-1303.264522865861
 10
1590.554130667027
 20
-1319.88847826245
 10
1669.554142481996
 20
-1319.88847826245
 10
1671.857880350233
 20
-1308.369788921521
 10
1672.410418532772
 20
-1308.549413471933
 10
1678.144308981925
 20
-1291.347742124476
 10
1678.252279478164
 20
-1291.314223586259
 10
1704.776954970392
 20
-1234.465843255683
  0
LWPOLYLINE
  5
2062F1
330
1F
100
AcDbEntity
  8
超挖框
100
AcDbPolyline
 90
12
 70
0
 10
1565.376011231267
 20
-1386.476465130891
 10
1579.589483098429
 20
-1416.937423589913
 10
1579.69438235902
 20
-1416.973198396199
 10
1586.976174835856
 20
-1438.818575826297
 10
1587.638820008684
 20
-1438.811865570372
 10
1590.554130667027
 20
-1453.388478262448
 10
1669.554142481997
 20
-1453.388478262448
 10
1671.610639456347
 20
-1443.105993390926
 10
1672.193752118097
 20
-1443.239733280067
 10
1677.887818834832
 20
-1426.15753312986
 10
1677.962047493582
 20
-1426.140493250553
 10
1704.652937247095
 20
-1368.933213518395
  0
HATCH
  5
2062F7
330
1F
100
AcDbEntity
  8
AA_填充算量层
 62
7
420
16711680
100
AcDbHatch
 10
0.0
 20
0.0
 30
0.0
210
0.0
220
0.0
230
1.0
  2
ANSI31
 70
0
 71
0
 91
1
 92
3
 72
0
 73
1
 93
7
 10
1702.6093365729428
 20
-1234.8392219279942
 10
1703.387475847184
 20
-1234.673478262597
 10
1704.6710915580109
 20
-1234.6927324981882
 10
1678.252279478164
 20
-1291.314223586259
 10
1678.225466663444
 20
-1291.3225474005064
 10
1675.9134462357656
 20
-1292.0402948200217
 10
1675.913446235766
 20
-1292.04029482002
 97
0
 75
1
 76
1
 52
0.0
 41
9.166492849423143
 77
0
 78
1
 53
45.0
 43
0.0
 44
0.0
 45
-20.5793633802
 46
20.5793633802
 79
0
 98
0
  0
MTEXT
  5
2062F8
330
1F
100
AcDbEntity
  8
AA_填充算量层_标注
420
16711680
100
AcDbMText
 10
1690.429165806914
 20
-1263.0767227571266
 30
0.0
 40
3.0
 71
5
  1
{\fArial|b1;1\PS=113.749}
  0
HATCH
  5
2062F9
330
1F
100
AcDbEntity
  8
AA_填充算量层
 62
7
420
51200
100
AcDbHatch
 10
0.0
 20
0.0
 30
0.0
210
0.0
220
0.0
230
1.0
  2
ANSI31
 70
0
 71
0
 91
1
 92
3
 72
0
 73
1
 93
32
 10
1661.72080918044
 20
-1282.83347826228
 10
1663.387475847185
 20
-1281.183478262374
 10
1665.054142513812
 20
-1279.933478262374
 10
1666.72080918044
 20
-1276.268478262335
 10
1668.387475847185
 20
-1272.873478262319
 10
1670.054142513812
 20
-1270.168478262244
 10
1671.72080918044
 20
-1268.383478262559
 10
1673.387475847185
 20
-1266.633478262559
 10
1675.054142513813
 20
-1264.263478262449
 10
1676.72080918044
 20
-1263.253478262673
 10
1678.387475847184
 20
-1261.258478262561
 10
1680.054142513813
 20
-1259.378478262672
 10
1681.720809180441
 20
-1252.9784782623
 10
1683.387475847184
 20
-1247.348478262413
 10
1685.054142513812
 20
-1240.443478262616
 10
1686.72080918044
 20
-1236.883478262559
 10
1688.387475847185
 20
-1237.158478262467
 10
1690.054142513812
 20
-1236.998478262319
 10
1691.72080918044
 20
-1236.668478262241
 10
1693.387475847185
 20
-1236.708478262281
 10
1695.054142513813
 20
-1236.57847826239
 10
1696.72080918044
 20
-1236.028478262578
 10
1698.387475847185
 20
-1235.638478262448
 10
1700.054142513813
 20
-1235.173478262597
 10
1701.72080918044
 20
-1235.028478262579
 10
1702.6093365729428
 20
-1234.8392219279942
 10
1675.913446235766
 20
-1292.04029482002
 10
1675.9134462357656
 20
-1292.0402948200217
 10
1666.410036304418
 20
-1294.990549010323
 10
1651.744966101518
 20
-1299.783650782522
 10
1655.606636642047
 20
-1295.068539100332
 10
1659.456261353835
 20
-1288.592408509558
 97
0
 75
1
 76
1
 52
0.0
 41
9.166492849423143
 77
0
 78
1
 53
45.0
 43
0.0
 44
0.0
 45
-20.5793633802
 46
20.5793633802
 79
0
 98
0
  0
MTEXT
  5
2062FA
330
1F
100
AcDbEntity
  8
AA_填充算量层_标注
420
51200
100
AcDbMText
 10
1679.9583258518992
 20
-1267.508478262559
 30
0.0
 40
3.0
 71
5
  1
{\fArial|b1;2\PS=903.71}
  0
HATCH
  5
2062FB
330
1F
100
AcDbEntity
  8
AA_填充算量层
 62
7
420
255
100
AcDbHatch
 10
0.0
 20
0.0
 30
0.0
210
0.0
220
0.0
230
1.0
  2
ANSI31
 70
0
 71
0
 91
1
 92
3
 72
0
 73
1
 93
22
 10
1566.9583084628898
 20
-1255.2396028964852
 10
1568.387475847185
 20
-1255.968478262523
 10
1570.054142513813
 20
-1256.368478262429
 10
1571.72080918044
 20
-1256.763478262448
 10
1573.387475847185
 20
-1257.943478262617
 10
1575.054142513812
 20
-1258.508478262558
 10
1576.72080918044
 20
-1257.45847826228
 10
1578.387475847185
 20
-1257.083478262281
 10
1580.054142513812
 20
-1256.718478262523
 10
1581.72080918044
 20
-1256.918478262244
 10
1583.387475847185
 20
-1259.538478262355
 10
1585.054142513812
 20
-1264.978478262299
 10
1586.72080918044
 20
-1271.453478262394
 10
1588.387475847184
 20
-1275.708478262281
 10
1590.054142513812
 20
-1279.188478262261
 10
1591.72080918044
 20
-1282.548478262598
 10
1593.387475847185
 20
-1285.778478262579
 10
1586.232830010156
 20
-1283.67413331485
 10
1581.6268567931586
 20
-1282.400882259059
 10
1580.887881680892
 20
-1282.196603858476
 10
1579.346558710935
 20
-1281.560023555549
 10
1579.207691053198
 20
-1281.502669959092
 97
0
 75
1
 76
1
 52
0.0
 41
9.166492849423143
 77
0
 78
1
 53
45.0
 43
0.0
 44
0.0
 45
-20.5793633802
 46
20.5793633802
 79
0
 98
0
  0
MTEXT
  5
2062FC
330
1F
100
AcDbEntity
  8
AA_填充算量层_标注
420
255
100
AcDbMText
 10
1579.4490540673423
 20
-1268.2159782623464
 30
0.0
 40
3.0
 71
5
  1
{\fArial|b1;3\PS=341.611}
  0
HATCH
  5
2062FD
330
1F
100
AcDbEntity
  8
AA_填充算量层
 62
7
420
16776960
100
AcDbHatch
 10
0.0
 20
0.0
 30
0.0
210
0.0
220
0.0
230
1.0
  2
ANSI31
 70
0
 71
0
 91
1
 92
3
 72
0
 73
1
 93
7
 10
1579.346558710935
 20
-1281.560023555549
 10
1580.887881680892
 20
-1282.196603858476
 10
1581.6268567931586
 20
-1282.400882259059
 10
1588.534606427043
 20
-1303.124131161135
 10
1588.5346064270434
 20
-1303.1241311611368
 10
1587.1845460261902
 20
-1303.2693420870253
 10
1586.603818995987
 20
-1303.331804410703
 97
0
 75
1
 76
1
 52
0.0
 41
9.166492849423143
 77
0
 78
1
 53
45.0
 43
0.0
 44
0.0
 45
-20.5793633802
 46
20.5793633802
 79
0
 98
0
  0
MTEXT
  5
2062FE
330
1F
100
AcDbEntity
  8
AA_填充算量层_标注
420
16776960
100
AcDbMText
 10
1584.080725686276
 20
-1292.762506710097
 30
0.0
 40
3.0
 71
5
  1
{\fArial|b1;4\PS=42.418}
  0
HATCH
  5
2062FF
330
1F
100
AcDbEntity
  8
AA_填充算量层
 62
7
420
16711935
100
AcDbHatch
 10
0.0
 20
0.0
 30
0.0
210
0.0
220
0.0
230
1.0
  2
ANSI31
 70
0
 71
0
 91
1
 92
3
 72
0
 73
1
 93
40
 10
1608.387475847185
 20
-1297.223478262412
 10
1610.054142513812
 20
-1296.588478262637
 10
1611.72080918044
 20
-1296.043478262242
 10
1613.387475847185
 20
-1295.958478262281
 10
1615.054142513812
 20
-1296.073478262504
 10
1616.72080918044
 20
-1296.268478262338
 10
1618.387475847185
 20
-1296.068478262616
 10
1620.054142513813
 20
-1296.218478262523
 10
1621.72080918044
 20
-1295.638478262448
 10
1623.387475847185
 20
-1295.283478262467
 10
1625.054142513812
 20
-1294.878478262672
 10
1626.72080918044
 20
-1294.533478262469
 10
1628.387475847184
 20
-1294.34847826241
 10
1630.054142513813
 20
-1293.83347826228
 10
1631.72080918044
 20
-1293.088478262636
 10
1633.387475847184
 20
-1292.603478262299
 10
1635.054142513812
 20
-1292.258478262562
 10
1636.72080918044
 20
-1291.808478262374
 10
1638.387475847185
 20
-1291.298478262598
 10
1640.054142513812
 20
-1290.878478262673
 10
1641.72080918044
 20
-1290.528478262578
 10
1643.387475847185
 20
-1290.263478262449
 10
1645.054142513813
 20
-1289.74347826243
 10
1646.72080918044
 20
-1289.583478262281
 10
1648.387475847185
 20
-1289.203478262393
 10
1650.054142513812
 20
-1289.388478262448
 10
1651.72080918044
 20
-1288.778478262579
 10
1653.387475847184
 20
-1287.933478262374
 10
1655.054142513813
 20
-1286.958478262281
 10
1656.720809180441
 20
-1286.033478262469
 10
1658.387475847185
 20
-1284.948478262504
 10
1660.054142513812
 20
-1283.878478262673
 10
1661.72080918044
 20
-1282.83347826228
 10
1659.456261353835
 20
-1288.592408509558
 10
1655.606636642047
 20
-1295.068539100332
 10
1651.744966101518
 20
-1299.783650782522
 10
1643.536203755799
 20
-1302.088016308944
 10
1630.054142513813
 20
-1303.213478262634
 10
1621.941791985218
 20
-1301.821662031212
 10
1613.734823699027
 20
-1299.922314745937
 97
0
 75
1
 76
1
 52
0.0
 41
9.166492849423143
 77
0
 78
1
 53
45.0
 43
0.0
 44
0.0
 45
-20.5793633802
 46
20.5793633802
 79
0
 98
0
  0
MTEXT
  5
206300
330
1F
100
AcDbEntity
  8
AA_填充算量层_标注
420
16711935
100
AcDbMText
 10
1644.7409711555374
 20
-1292.8459782624675
 30
0.0
 40
3.0
 71
5
  1
{\fArial|b1;5\PS=421.39}
  0
HATCH
  5
206301
330
1F
100
AcDbEntity
  8
AA_填充算量层
 62
7
420
65535
100
AcDbHatch
 10
0.0
 20
0.0
 30
0.0
210
0.0
220
0.0
230
1.0
  2
ANSI31
 70
0
 71
0
 91
1
 92
3
 72
0
 73
1
 93
23
 10
1593.387475847185
 20
-1285.778478262579
 10
1595.054142513812
 20
-1289.388478262448
 10
1596.72080918044
 20
-1292.898478262225
 10
1598.387475847184
 20
-1294.558478262374
 10
1600.054142513812
 20
-1295.678478262484
 10
1601.72080918044
 20
-1296.188478262263
 10
1603.387475847184
 20
-1296.36847826243
 10
1605.054142513813
 20
-1296.888478262449
 10
1606.720809180441
 20
-1297.063478262263
 10
1608.387475847185
 20
-1297.223478262412
 10
1613.734823699027
 20
-1299.922314745937
 10
1621.941791985218
 20
-1301.821662031212
 10
1630.054142513813
 20
-1303.213478262634
 10
1643.536203755799
 20
-1302.088016308944
 10
1655.493952613824
 20
-1304.199319448889
 10
1664.792050853173
 20
-1306.072759527346
 10
1670.6059453221615
 20
-1307.9627975611618
 10
1668.820809181996
 20
-1316.888478262449
 10
1591.287475847164
 20
-1316.888478262449
 10
1588.5346064270434
 20
-1303.1241311611368
 10
1588.534606427043
 20
-1303.124131161135
 10
1581.6268567931586
 20
-1282.400882259059
 10
1586.232830010156
 20
-1283.67413331485
 97
0
 75
1
 76
1
 52
0.0
 41
9.166492849423143
 77
0
 78
1
 53
45.0
 43
0.0
 44
0.0
 45
-20.5793633802
 46
20.5793633802
 79
0
 98
0
  0
MTEXT
  5
206302
330
1F
100
AcDbEntity
  8
AA_填充算量层_标注
420
65535
100
AcDbMText
 10
1599.0393389905964
 20
-1298.5728965041744
 30
0.0
 40
3.0
 71
5
  1
{\fArial|b1;6\PS=1397.17}
  0
HATCH
  5
206303
330
1F
100
AcDbEntity
  8
AA_填充算量层
 62
7
420
16744448
100
AcDbHatch
 10
0.0
 20
0.0
 30
0.0
210
0.0
220
0.0
230
1.0
  2
ANSI31
 70
0
 71
0
 91
1
 92
3
 72
0
 73
1
 93
9
 10
1675.9134462357656
 20
-1292.0402948200217
 10
1678.225466663444
 20
-1291.3225474005064
 10
1678.144308981925
 20
-1291.347742124476
 10
1672.410418532772
 20
-1308.549413471933
 10
1671.857880350233
 20
-1308.369788921521
 10
1671.857880350233
 20
-1308.3697889215214
 10
1671.8578803502328
 20
-1308.3697889215214
 10
1670.6059453221615
 20
-1307.9627975611618
 10
1670.605945322162
 20
-1307.96279756116
 97
0
 75
1
 76
1
 52
0.0
 41
9.166492849423143
 77
0
 78
1
 53
45.0
 43
0.0
 44
0.0
 45
-20.5793633802
 46
20.5793633802
 79
0
 98
0
  0
MTEXT
  5
206304
330
1F
100
AcDbEntity
  8
AA_填充算量层_标注
420
16744448
100
AcDbMText
 10
1674.2597017027583
 20
-1300.001546190591
 30
0.0
 40
3.0
 71
5
  1
{\fArial|b1;7\PS=33.124}
  0
HATCH
  5
206305
330
1F
100
AcDbEntity
  8
AA_填充算量层
 62
7
420
8388863
100
AcDbHatch
 10
0.0
 20
0.0
 30
0.0
210
0.0
220
0.0
230
1.0
  2
ANSI31
 70
0
 71
0
 91
1
 92
3
 72
0
 73
1
 93
8
 10
1643.536203755799
 20
-1302.088016308944
 10
1651.744966101518
 20
-1299.783650782522
 10
1666.410036304418
 20
-1294.990549010323
 10
1675.9134462357656
 20
-1292.0402948200217
 10
1670.605945322162
 20
-1307.96279756116
 10
1670.6059453221615
 20
-1307.9627975611618
 10
1664.792050853173
 20
-1306.072759527346
 10
1655.493952613824
 20
-1304.199319448889
 97
0
 75
1
 76
1
 52
0.0
 41
9.166492849423143
 77
0
 78
1
 53
45.0
 43
0.0
 44
0.0
 45
-20.5793633802
 46
20.5793633802
 79
0
 98
0
  0
MTEXT
  5
206306
330
1F
100
AcDbEntity
  8
AA_填充算量层_标注
420
8388863
100
AcDbMText
 10
1660.294425794624
 20
-1300.935833545733
 30
0.0
 40
3.0
 71
5
  1
{\fArial|b1;8\PS=218.417}
  0
HATCH
  5
206307
330
1F
100
AcDbEntity
  8
AA_填充算量层
 62
7
420
33023
100
AcDbHatch
 10
0.0
 20
0.0
 30
0.0
210
0.0
220
0.0
230
1.0
  2
ANSI31
 70
0
 71
0
 91
1
 92
3
 72
0
 73
1
 93
9
 10
1587.1845460261902
 20
-1303.2693420870253
 10
1588.5346064270434
 20
-1303.1241311611368
 10
1591.287475847164
 20
-1316.888478262449
 10
1668.820809181996
 20
-1316.888478262449
 10
1670.6059453221615
 20
-1307.9627975611618
 10
1671.8578803502328
 20
-1308.3697889215214
 10
1669.554142481996
 20
-1319.88847826245
 10
1590.554142547164
 20
-1319.88847826245
 10
1587.229351467772
 20
-1303.264522865861
 97
0
 75
1
 76
1
 52
0.0
 41
9.166492849423143
 77
0
 78
1
 53
45.0
 43
0.0
 44
0.0
 45
-20.5793633802
 46
20.5793633802
 79
0
 98
0
  0
MTEXT
  5
206308
330
1F
100
AcDbEntity
  8
AA_填充算量层_标注
420
33023
100
AcDbMText
 10
1589.768940263077
 20
-1312.6291335919852
 30
0.0
 40
3.0
 71
5
  1
{\fArial|b1;9\PS=268.688}
  0
HATCH
  5
206309
330
1F
100
AcDbEntity
  8
AA_填充算量层
 62
7
420
16711808
100
AcDbHatch
 10
0.0
 20
0.0
 30
0.0
210
0.0
220
0.0
230
1.0
  2
ANSI31
 70
0
 71
0
 91
1
 92
3
 72
0
 73
1
 93
4
 10
1446.4644925659113
 20
-1414.9405957448791
 10
1444.38245562945
 20
-1415.116389180174
 10
1462.8169094688617
 20
-1375.6139880954356
 10
1464.8701036908908
 20
-1375.500000476841
 97
0
 75
1
 76
1
 52
0.0
 41
9.166492849423143
 77
0
 78
1
 53
45.0
 43
0.0
 44
0.0
 45
-20.5793633802
 46
20.5793633802
 79
0
 98
0
  0
MTEXT
  5
20630A
330
1F
100
AcDbEntity
  8
AA_填充算量层_标注
420
16711808
100
AcDbMText
 10
1454.6407010173934
 20
-1395.2772919201575
 30
0.0
 40
3.0
 71
5
  1
{\fArial|b1;10\PS=78.943}
  0
HATCH
  5
20630B
330
1F
100
AcDbEntity
  8
AA_填充算量层
 62
7
420
8453888
100
AcDbHatch
 10
0.0
 20
0.0
 30
0.0
210
0.0
220
0.0
230
1.0
  2
ANSI31
 70
0
 71
0
 91
1
 92
3
 72
0
 73
1
 93
36
 10
1663.387475847185
 20
-1414.403478262578
 10
1665.054142513812
 20
-1412.653478262578
 10
1666.72080918044
 20
-1410.148478262225
 10
1668.387475847185
 20
-1407.783478262467
 10
1670.054142513812
 20
-1404.838478262634
 10
1671.72080918044
 20
-1402.298478262598
 10
1673.387475847185
 20
-1400.363478262542
 10
1675.054142513813
 20
-1399.388478262449
 10
1676.72080918044
 20
-1398.563478262263
 10
1678.387475847184
 20
-1395.498478262319
 10
1680.054142513813
 20
-1391.23847826254
 10
1681.720809180441
 20
-1383.343478262523
 10
1683.387475847184
 20
-1377.24347826243
 10
1685.054142513812
 20
-1373.338478262634
 10
1686.72080918044
 20
-1371.768478262335
 10
1688.387475847185
 20
-1371.47347826241
 10
1690.054142513812
 20
-1370.698478262504
 10
1691.72080918044
 20
-1369.773478262225
 10
1693.387475847185
 20
-1369.863478262542
 10
1695.054142513813
 20
-1370.063478262261
 10
1696.72080918044
 20
-1370.578478262393
 10
1698.387475847185
 20
-1370.413478262355
 10
1700.054142513813
 20
-1369.403478262579
 10
1701.72080918044
 20
-1368.998478262319
 10
1703.387475847184
 20
-1368.903478262578
 10
1704.5423432005655
 20
-1369.1702526210609
 10
1677.9620474963529
 20
-1426.1404932446142
 10
1677.9620474935816
 20
-1426.1404932505525
 10
1677.907039117183
 20
-1426.1531209352033
 10
1677.887818834832
 20
-1426.15753312986
 10
1677.887818834832
 20
-1426.1575331298602
 10
1675.72208558034
 20
-1426.6546973504048
 10
1662.222017782309
 20
-1429.753763530503
 10
1651.2104024946036
 20
-1432.5391376273844
 10
1654.677340383327
 20
-1428.609029890604
 10
1659.025430759333
 20
-1422.872950284839
 97
0
 75
1
 76
1
 52
0.0
 41
9.166492849423143
 77
0
 78
1
 53
45.0
 43
0.0
 44
0.0
 45
-20.5793633802
 46
20.5793633802
 79
0
 98
0
  0
MTEXT
  5
20630C
330
1F
100
AcDbEntity
  8
AA_填充算量层_标注
420
8453888
100
AcDbMText
 10
1681.045715324771
 20
-1401.3309782625702
 30
0.0
 40
3.0
 71
5
  1
{\fArial|b1;11\PS=1038.095}
  0
HATCH
  5
20630D
330
1F
100
AcDbEntity
  8
AA_填充算量层
 62
7
420
65408
100
AcDbHatch
 10
0.0
 20
0.0
 30
0.0
210
0.0
220
0.0
230
1.0
  2
ANSI31
 70
0
 71
0
 91
1
 92
3
 72
0
 73
1
 93
51
 10
1345.8724565518382
 20
-1429.6851190665127
 10
1342.873385625076
 20
-1428.732245551888
 10
1342.342494935026
 20
-1428.5274848044442
 10
1342.342494935026
 20
-1428.527484804444
 10
1320.7016355581986
 20
-1382.1542147109099
 10
1320.733666666866
 20
-1382.150000095367
 10
1321.743666666866
 20
-1381.900000333793
 10
1322.253666666866
 20
-1381.599999427799
 10
1322.903666666866
 20
-1381.000000000003
 10
1323.437000000198
 20
-1380.700000286102
 10
1324.153666666866
 20
-1380.299999475482
 10
1325.070333333532
 20
-1380.14999961853
 10
1325.103666666866
 20
-1380.099999666214
 10
1325.127000000199
 20
-1380.099999666214
 10
1326.053666666865
 20
-1380.099999666214
 10
1326.817000000199
 20
-1380.550000429161
 10
1327.003666666866
 20
-1380.700000286102
 10
1327.240333333532
 20
-1380.850000143051
 10
1327.953666666866
 20
-1381.149999856956
 10
1328.507000000199
 20
-1381.599999427799
 10
1328.903666666866
 20
-1381.850000381473
 10
1329.410333333532
 20
-1382.200000047691
 10
1330.197000000199
 20
-1382.799999475483
 10
1330.803666666865
 20
-1383.650001049049
 10
1331.577000000199
 20
-1384.900001049049
 10
1331.887000000198
 20
-1385.300000667579
 10
1332.980333333531
 20
-1386.450000762943
 10
1333.577000000199
 20
-1386.999999046329
 10
1333.747000000198
 20
-1387.250000000003
 10
1334.603666666866
 20
-1388.400000095367
 10
1335.270333333532
 20
-1388.799999713901
 10
1335.553666666865
 20
-1388.89999961853
 10
1335.917000000198
 20
-1388.85000085831
 10
1336.503666666866
 20
-1388.85000085831
 10
1336.960333333532
 20
-1388.699999809269
 10
1338.083666666866
 20
-1389.949999809269
 10
1338.650333333532
 20
-1391.799999237064
 10
1339.353666666866
 20
-1396.950000286102
 10
1340.253666666866
 20
-1404.099999427799
 10
1340.303666666865
 20
-1404.550000190738
 10
1340.340333333532
 20
-1404.800001144413
 10
1341.253666666865
 20
-1410.800000190738
 10
1342.030333333531
 20
-1415.099998474125
 10
1342.203666666866
 20
-1415.899997711181
 10
1342.423666666866
 20
-1416.850000381473
 10
1343.153666666865
 20
-1419.850002288822
 10
1343.720333333531
 20
-1421.999999046329
 10
1344.103666666866
 20
-1423.500000000004
 10
1344.593666666866
 20
-1425.600000381473
 10
1345.053666666865
 20
-1427.399998664859
 10
1345.410333333532
 20
-1428.399997711182
 97
0
 75
1
 76
1
 52
0.0
 41
9.166492849423143
 77
0
 78
1
 53
45.0
 43
0.0
 44
0.0
 45
-20.5793633802
 46
20.5793633802
 79
0
 98
0
  0
MTEXT
  5
20630E
330
1F
100
AcDbEntity
  8
AA_填充算量层_标注
420
65408
100
AcDbMText
 10
1336.7333345023776
 20
-1407.8000006675757
 30
0.0
 40
3.0
 71
5
  1
{\fArial|b1;12\PS=402.248}
  0
HATCH
  5
20630F
330
1F
100
AcDbEntity
  8
AA_填充算量层
 62
7
420
8421376
100
AcDbHatch
 10
0.0
 20
0.0
 30
0.0
210
0.0
220
0.0
230
1.0
  2
ANSI31
 70
0
 71
0
 91
1
 92
3
 72
0
 73
1
 93
32
 10
1565.4606993129548
 20
-1386.657960557369
 10
1566.72080918044
 20
-1385.943478262616
 10
1568.387475847185
 20
-1385.718478262523
 10
1570.054142513813
 20
-1386.423478262597
 10
1571.72080918044
 20
-1388.423478262597
 10
1573.387475847185
 20
-1390.153478262579
 10
1575.054142513812
 20
-1391.358478262654
 10
1576.72080918044
 20
-1392.298478262597
 10
1578.387475847185
 20
-1392.903478262579
 10
1580.054142513812
 20
-1393.063478262263
 10
1581.72080918044
 20
-1392.9784782623
 10
1583.387475847185
 20
-1398.378478262672
 10
1585.054142513812
 20
-1403.898478262224
 10
1586.72080918044
 20
-1407.298478262598
 10
1588.387475847184
 20
-1410.58347826228
 10
1590.054142513812
 20
-1413.778478262579
 10
1591.72080918044
 20
-1416.9784782623
 10
1593.387475847185
 20
-1420.163478262357
 10
1595.054142513812
 20
-1423.623478262319
 10
1596.72080918044
 20
-1426.758478262561
 10
1601.292337027413
 20
-1431.783418697869
 10
1606.327151673531
 20
-1435.617081286949
 10
1611.8423325396784
 20
-1438.585671422929
 10
1602.595593168668
 20
-1438.660406267835
 10
1588.9694583751852
 20
-1438.7983909019558
 10
1588.969458375185
 20
-1438.798390901955
 10
1581.914934703585
 20
-1417.634819886723
 10
1580.887881680892
 20
-1417.380228977749
 10
1579.6943823590202
 20
-1416.9731983961997
 10
1579.69438235902
 20
-1416.973198396199
 10
1579.589483098429
 20
-1416.937423589913
 10
1579.589483080716
 20
-1416.9374235519524
 97
0
 75
1
 76
1
 52
0.0
 41
9.166492849423143
 77
0
 78
1
 53
45.0
 43
0.0
 44
0.0
 45
-20.5793633802
 46
20.5793633802
 79
0
 98
0
  0
MTEXT
  5
206310
330
1F
100
AcDbEntity
  8
AA_填充算量层_标注
420
8421376
100
AcDbMText
 10
1583.2954371009114
 20
-1412.1809782624296
 30
0.0
 40
3.0
 71
5
  1
{\fArial|b1;13\PS=634.779}
  0
HATCH
  5
206311
330
1F
100
AcDbEntity
  8
AA_填充算量层
 62
7
420
32896
100
AcDbHatch
 10
0.0
 20
0.0
 30
0.0
210
0.0
220
0.0
230
1.0
  2
ANSI31
 70
0
 71
0
 91
1
 92
3
 72
0
 73
1
 93
222
 10
1363.5834714110383
 20
-1456.0
 10
1360.301222157082
 20
-1451.558743383735
 10
1349.337465886092
 20
-1438.83895385755
 10
1349.5417658360168
 20
-1437.8856573387
 10
1347.148458752665
 20
-1437.329813966993
 10
1345.1763051637513
 20
-1437.0289154907928
 10
1342.342494935026
 20
-1428.5274848044442
 10
1342.873385625076
 20
-1428.732245551888
 10
1345.8724565518382
 20
-1429.6851190665127
 10
1346.003666666865
 20
-1430.050002098087
 10
1346.760333333532
 20
-1431.94999790192
 10
1346.953666666866
 20
-1432.550002098087
 10
1347.103666666866
 20
-1432.900000572208
 10
1347.903666666866
 20
-1434.850002288822
 10
1348.793666666866
 20
-1436.799999237064
 10
1348.853666666866
 20
-1436.900001525882
 10
1348.930333333532
 20
-1436.999999046329
 10
1350.483666666866
 20
-1439.249998092651
 10
1350.753666666866
 20
-1439.649997711181
 10
1351.100333333532
 20
-1439.949999809269
 10
1351.703666666866
 20
-1440.549999237064
 10
1352.173666666866
 20
-1441.000000000004
 10
1352.653666666866
 20
-1441.599999427799
 10
1353.267000000198
 20
-1442.399998664859
 10
1353.863666666866
 20
-1442.950001716617
 10
1355.437000000198
 20
-1444.299999237064
 10
1355.553666666865
 20
-1444.350000381473
 10
1355.973666666866
 20
-1444.500003814701
 10
1357.247000000199
 20
-1444.900003433231
 10
1357.607000000198
 20
-1444.900003433231
 10
1358.353666666866
 20
-1444.699998855593
 10
1358.937000000199
 20
-1444.850002288822
 10
1359.303666666865
 20
-1444.95000457764
 10
1359.773666666866
 20
-1444.850002288822
 10
1360.627000000198
 20
-1444.800001144413
 10
1361.203666666866
 20
-1444.800001144413
 10
1361.943666666866
 20
-1444.649997711182
 10
1362.153666666866
 20
-1444.599996566776
 10
1362.317000000199
 20
-1444.500003814701
 10
1363.103666666866
 20
-1444.199996948246
 10
1364.007000000199
 20
-1443.500000000003
 10
1364.053666666866
 20
-1443.449998855594
 10
1364.113666666866
 20
-1443.449998855594
 10
1365.003666666865
 20
-1443.100000381473
 10
1365.697000000199
 20
-1442.64999961853
 10
1366.280333333532
 20
-1442.199998855594
 10
1366.903666666866
 20
-1441.599999427799
 10
1367.387000000199
 20
-1441.250000953681
 10
1368.450333333532
 20
-1440.299998283393
 10
1369.080333333532
 20
-1439.750000000003
 10
1369.753666666866
 20
-1439.200001716617
 10
1370.620333333532
 20
-1438.649998664859
 10
1370.703666666865
 20
-1438.600002288822
 10
1370.770333333531
 20
-1438.550001144412
 10
1371.653666666866
 20
-1437.849999427799
 10
1372.460333333531
 20
-1437.449999809269
 10
1372.603666666866
 20
-1437.39999866486
 10
1372.787000000198
 20
-1437.350002288822
 10
1373.553666666865
 20
-1437.050000190738
 10
1374.150333333532
 20
-1437.050000190738
 10
1374.503666666865
 20
-1436.999999046329
 10
1374.957000000199
 20
-1436.650000572208
 10
1375.453666666866
 20
-1436.300002098087
 10
1375.840333333532
 20
-1436.050001144413
 10
1377.127000000198
 20
-1435.549999237064
 10
1377.530333333531
 20
-1435.349999427799
 10
1378.963666666866
 20
-1434.550000190738
 10
1379.220333333532
 20
-1434.400001525882
 10
1379.253666666865
 20
-1434.400001525882
 10
1379.293666666866
 20
-1434.400001525882
 10
1380.203666666866
 20
-1434.099999427799
 10
1380.913666666866
 20
-1433.750000953681
 10
1381.463666666866
 20
-1433.500000000003
 10
1382.103666666866
 20
-1433.300000190738
 10
1382.603666666866
 20
-1433.150001525882
 10
1383.053666666866
 20
-1433.049999237064
 10
1383.633666666866
 20
-1432.900000572208
 10
1384.003666666866
 20
-1432.799998283393
 10
1384.293666666865
 20
-1432.750001907352
 10
1384.953666666866
 20
-1432.700000762943
 10
1385.800333333532
 20
-1432.64999961853
 10
1385.983666666866
 20
-1432.64999961853
 10
1386.630333333532
 20
-1432.550002098087
 10
1387.673666666866
 20
-1432.500000953681
 10
1387.803666666865
 20
-1432.500000953681
 10
1387.970333333532
 20
-1432.500000953681
 10
1389.363666666866
 20
-1432.500000953681
 10
1390.140333333532
 20
-1432.500000953681
 10
1390.653666666866
 20
-1432.500000953681
 10
1391.053666666866
 20
-1432.599998474125
 10
1391.603666666866
 20
-1432.700000762943
 10
1392.307000000198
 20
-1432.799998283393
 10
1392.553666666866
 20
-1432.849999427799
 10
1392.747000000199
 20
-1432.849999427799
 10
1394.293666666866
 20
-1432.700000762943
 10
1394.437000000199
 20
-1432.700000762943
 10
1394.477000000199
 20
-1432.700000762943
 10
1395.403666666866
 20
-1432.449999809269
 10
1396.127000000199
 20
-1432.350002288822
 10
1396.353666666866
 20
-1432.350002288822
 10
1396.647000000198
 20
-1432.250000000004
 10
1397.303666666865
 20
-1432.100001335148
 10
1397.817000000199
 20
-1432.050000190738
 10
1398.253666666866
 20
-1431.94999790192
 10
1398.813666666866
 20
-1431.799999237064
 10
1399.507000000198
 20
-1431.700001716617
 10
1400.983666666865
 20
-1431.700001716617
 10
1401.197000000199
 20
-1431.700001716617
 10
1401.957000000199
 20
-1431.650000572208
 10
1402.890333333532
 20
-1431.650000572208
 10
1403.003666666865
 20
-1431.650000572208
 10
1403.153666666866
 20
-1431.650000572208
 10
1403.953666666866
 20
-1431.700001716617
 10
1404.580333333532
 20
-1431.599999427799
 10
1404.903666666865
 20
-1431.549998283393
 10
1405.320333333532
 20
-1431.599999427799
 10
1406.270333333532
 20
-1431.549998283393
 10
1406.803666666865
 20
-1431.450000762943
 10
1407.490333333532
 20
-1431.39999961853
 10
1407.753666666866
 20
-1431.39999961853
 10
1407.960333333531
 20
-1431.349998474124
 10
1409.620333333531
 20
-1431.349998474124
 10
1409.650333333532
 20
-1431.349998474124
 10
1409.653666666866
 20
-1431.349998474124
 10
1409.660333333532
 20
-1431.349998474124
 10
1410.603666666865
 20
-1431.599999427799
 10
1411.340333333532
 20
-1431.599999427799
 10
1411.553666666866
 20
-1431.650000572208
 10
1411.827000000198
 20
-1431.599999427799
 10
1412.503666666865
 20
-1431.549998283393
 10
1413.030333333531
 20
-1431.349998474124
 10
1413.453666666866
 20
-1431.199999809269
 10
1413.997000000199
 20
-1431.199999809269
 10
1414.723666666866
 20
-1431.000000000003
 10
1415.353666666866
 20
-1430.69999790192
 10
1416.167000000198
 20
-1430.749999046329
 10
1416.303666666865
 20
-1430.800000190738
 10
1416.413666666866
 20
-1430.749999046329
 10
1417.253666666866
 20
-1430.600000381473
 10
1418.103666666866
 20
-1430.400000572208
 10
1418.203666666865
 20
-1430.349999427799
 10
1418.333666666866
 20
-1430.349999427799
 10
1419.793666666866
 20
-1430.000000953682
 10
1420.103666666866
 20
-1429.949999809269
 10
1420.503666666865
 20
-1429.649997711181
 10
1421.053666666866
 20
-1429.249998092651
 10
1421.483666666866
 20
-1428.849998474125
 10
1422.673666666866
 20
-1427.64999961853
 10
1422.953666666866
 20
-1427.350002288822
 10
1423.173666666866
 20
-1426.94999790192
 10
1423.903666666866
 20
-1425.450001716617
 10
1424.840333333532
 20
-1422.799998283393
 10
1424.853666666866
 20
-1422.750001907352
 10
1424.863666666866
 20
-1422.700000762943
 10
1425.803666666866
 20
-1419.850002288822
 10
1426.557000000198
 20
-1418.150001525882
 10
1426.753666666866
 20
-1417.599998474124
 10
1427.010333333531
 20
-1417.250000000003
 10
1427.703666666866
 20
-1416.050001144412
 10
1428.247000000198
 20
-1415.349999427799
 10
1429.180333333532
 20
-1413.449998855593
 10
1429.603666666866
 20
-1412.500000953681
 10
1429.937000000198
 20
-1411.749998092651
 10
1430.553666666865
 20
-1410.099998474125
 10
1431.347000000198
 20
-1408.399997711181
 10
1431.627000000198
 20
-1407.599998474125
 10
1432.453666666866
 20
-1405.099998474125
 10
1433.317000000198
 20
-1402.34999990464
 10
1433.517000000199
 20
-1401.699999332431
 10
1434.353666666866
 20
-1399.199999332432
 10
1435.007000000199
 20
-1396.899999141693
 10
1435.303666666866
 20
-1395.700000286102
 10
1435.687000000198
 20
-1393.99999952317
 10
1436.253666666865
 20
-1391.49999952317
 10
1436.700333333531
 20
-1389.599998950962
 10
1437.203666666866
 20
-1387.400001049049
 10
1437.853666666866
 20
-1384.150000572208
 10
1438.390333333532
 20
-1381.700000524525
 10
1440.023666666865
 20
-1377.34999990464
 10
1440.053666666865
 20
-1377.250000000003
 10
1440.080333333532
 20
-1377.250000000003
 10
1440.277000000199
 20
-1377.100000143051
 10
1441.770333333531
 20
-1376.000000000004
 10
1442.193666666866
 20
-1375.900000095367
 10
1442.907000000199
 20
-1375.750000238422
 10
1443.460333333532
 20
-1375.850000143051
 10
1443.857000000199
 20
-1375.900000095367
 10
1444.360333333532
 20
-1376.000000000004
 10
1444.807000000199
 20
-1376.04999995232
 10
1445.150333333532
 20
-1376.149999856956
 10
1446.530333333531
 20
-1376.199999809269
 10
1446.840333333532
 20
-1376.149999856956
 10
1447.657000000198
 20
-1376.04999995232
 10
1448.533666666866
 20
-1376.04999995232
 10
1448.700333333532
 20
-1376.04999995232
 10
1449.557000000199
 20
-1375.950000047691
 10
1450.223666666866
 20
-1376.000000000004
 10
1450.507000000199
 20
-1376.04999995232
 10
1450.867000000198
 20
-1376.09999990464
 10
1451.457000000199
 20
-1376.199999809269
 10
1451.913666666866
 20
-1376.199999809269
 10
1453.037000000199
 20
-1376.249999761581
 10
1453.603666666866
 20
-1376.249999761581
 10
1455.207000000199
 20
-1376.44999957085
 10
1455.293666666866
 20
-1376.44999957085
 10
1455.603666666866
 20
-1376.49999952317
 10
1456.983666666866
 20
-1376.650000572208
 10
1457.377000000199
 20
-1376.650000572208
 10
1458.673666666865
 20
-1376.44999957085
 10
1459.543666666865
 20
-1376.000000000004
 10
1460.367000000198
 20
-1375.750000238422
 10
1462.8169094688617
 20
-1375.6139880954356
 10
1444.38245562945
 20
-1415.116389180174
 10
1443.864075182006
 20
-1415.160157798324
 10
1440.661080803373
 20
-1415.869652838912
 10
1439.166901093908
 20
-1416.611333969049
 10
1437.19341992028
 20
-1418.591386155225
 10
1433.161484582
 20
-1423.547850989271
 10
1427.835861420375
 20
-1431.216887653805
 10
1425.087516472093
 20
-1435.548813735135
 10
1411.633880173205
 20
-1450.132907356135
 10
1406.889414349678
 20
-1456.0
 97
0
 75
1
 76
1
 52
0.0
 41
9.166492849423143
 77
0
 78
1
 53
45.0
 43
0.0
 44
0.0
 45
-20.5793633802
 46
20.5793633802
 79
0
 98
0
  0
MTEXT
  5
206312
330
1F
100
AcDbEntity
  8
AA_填充算量层_标注
420
32896
100
AcDbMText
 10
1434.9396931310655
 20
-1415.6098261333555
 30
0.0
 40
3.0
 71
5
  1
{\fArial|b1;14\PS=2151.182}
  0
HATCH
  5
206313
330
1F
100
AcDbEntity
  8
AA_填充算量层
 62
7
420
8388736
100
AcDbHatch
 10
0.0
 20
0.0
 30
0.0
210
0.0
220
0.0
230
1.0
  2
ANSI31
 70
0
 71
0
 91
1
 92
3
 72
0
 73
1
 93
7
 10
1438.555126090748
 20
-1431.834657270239
 10
1436.491406882035
 20
-1432.0257793533283
 10
1436.491406882035
 20
-1432.025779353328
 10
1444.38245562945
 20
-1415.116389180174
 10
1446.4644925659113
 20
-1414.9405957448791
 10
1438.581747727663
 20
-1431.832191826936
 10
1438.5551260907487
 20
-1431.834657270239
 97
0
 75
1
 76
1
 52
0.0
 41
9.166492849423143
 77
0
 78
1
 53
45.0
 43
0.0
 44
0.0
 45
-20.5793633802
 46
20.5793633802
 79
0
 98
0
  0
MTEXT
  5
206314
330
1F
100
AcDbEntity
  8
AA_填充算量层_标注
420
8388736
100
AcDbMText
 10
1441.4821016785595
 20
-1423.474290503555
 30
0.0
 40
3.0
 71
5
  1
{\fArial|b1;15\PS=33.801}
  0
HATCH
  5
206315
330
1F
100
AcDbEntity
  8
AA_填充算量层
 62
7
420
13132850
100
AcDbHatch
 10
0.0
 20
0.0
 30
0.0
210
0.0
220
0.0
230
1.0
  2
ANSI31
 70
0
 71
0
 91
1
 92
3
 72
0
 73
1
 93
44
 10
1603.387475847184
 20
-1429.283478262467
 10
1605.054142513813
 20
-1429.483478262656
 10
1606.720809180441
 20
-1429.533478262467
 10
1608.387475847185
 20
-1429.603478262299
 10
1610.054142513812
 20
-1429.403478262579
 10
1611.72080918044
 20
-1429.248478262318
 10
1613.387475847185
 20
-1429.498478262319
 10
1615.054142513812
 20
-1429.648478262224
 10
1616.72080918044
 20
-1429.563478262261
 10
1618.387475847185
 20
-1429.278478262578
 10
1620.054142513813
 20
-1428.848478262413
 10
1621.72080918044
 20
-1428.86847826243
 10
1623.387475847185
 20
-1428.908478262469
 10
1625.054142513812
 20
-1428.123478262318
 10
1626.72080918044
 20
-1427.563478262261
 10
1628.387475847184
 20
-1426.733478262653
 10
1630.054142513813
 20
-1426.303478262487
 10
1631.72080918044
 20
-1426.253478262672
 10
1633.387475847184
 20
-1426.053478262484
 10
1635.054142513812
 20
-1425.838478262636
 10
1636.72080918044
 20
-1425.248478262319
 10
1638.387475847185
 20
-1424.693478262616
 10
1640.054142513812
 20
-1424.303478262487
 10
1641.72080918044
 20
-1423.918478262244
 10
1643.387475847185
 20
-1423.638478262448
 10
1645.054142513813
 20
-1423.563478262263
 10
1646.72080918044
 20
-1423.493478262429
 10
1648.387475847185
 20
-1422.808478262374
 10
1650.054142513812
 20
-1421.743478262428
 10
1651.72080918044
 20
-1420.908478262468
 10
1653.387475847184
 20
-1420.328478262393
 10
1655.054142513813
 20
-1419.638478262448
 10
1656.720809180441
 20
-1418.838478262634
 10
1658.387475847185
 20
-1417.93847826226
 10
1660.054142513812
 20
-1416.793478262244
 10
1661.72080918044
 20
-1415.573478262506
 10
1663.387475847185
 20
-1414.403478262578
 10
1659.025430759333
 20
-1422.872950284839
 10
1654.677340383327
 20
-1428.609029890604
 10
1651.2104024946036
 20
-1432.5391376273844
 10
1643.83470109807
 20
-1434.404811924885
 10
1630.054142513813
 20
-1435.938478262263
 10
1617.392740329529
 20
-1435.021114849118
 10
1610.635115893592
 20
-1432.54805045026
 97
0
 75
1
 76
1
 52
0.0
 41
9.166492849423143
 77
0
 78
1
 53
45.0
 43
0.0
 44
0.0
 45
-20.5793633802
 46
20.5793633802
 79
0
 98
0
  0
MTEXT
  5
206316
330
1F
100
AcDbEntity
  8
AA_填充算量层_标注
420
13132850
100
AcDbMText
 10
1647.494608057727
 20
-1424.9709782624675
 30
0.0
 40
3.0
 71
5
  1
{\fArial|b1;16\PS=425.664}
  0
HATCH
  5
206317
330
1F
100
AcDbEntity
  8
AA_填充算量层
 62
7
420
3328100
100
AcDbHatch
 10
0.0
 20
0.0
 30
0.0
210
0.0
220
0.0
230
1.0
  2
ANSI31
 70
0
 71
0
 91
1
 92
3
 72
0
 73
1
 93
12
 10
1436.491406882035
 20
-1432.0257793533283
 10
1434.312843678403
 20
-1432.227537197061
 10
1430.747449263581
 20
-1433.345037190244
 10
1425.087516472093
 20
-1435.548813735135
 10
1427.835861420375
 20
-1431.216887653805
 10
1433.161484582
 20
-1423.547850989271
 10
1437.19341992028
 20
-1418.591386155225
 10
1439.166901093908
 20
-1416.611333969049
 10
1440.661080803373
 20
-1415.869652838912
 10
1443.864075182006
 20
-1415.160157798324
 10
1444.38245562945
 20
-1415.116389180174
 10
1436.491406882035
 20
-1432.025779353328
 97
0
 75
1
 76
1
 52
0.0
 41
9.166492849423143
 77
0
 78
1
 53
45.0
 43
0.0
 44
0.0
 45
-20.5793633802
 46
20.5793633802
 79
0
 98
0
  0
MTEXT
  5
206318
330
1F
100
AcDbEntity
  8
AA_填充算量层_标注
420
3328100
100
AcDbMText
 10
1434.5785022823543
 20
-1427.3823693215381
 30
0.0
 40
3.0
 71
5
  1
{\fArial|b1;17\PS=128.783}
  0
HATCH
  5
206319
330
1F
100
AcDbEntity
  8
AA_填充算量层
 62
7
420
6566600
100
AcDbHatch
 10
0.0
 20
0.0
 30
0.0
210
0.0
220
0.0
230
1.0
  2
ANSI31
 70
0
 71
0
 91
1
 92
3
 72
0
 73
1
 93
9
 10
1579.6943823590202
 20
-1416.9731983961997
 10
1580.887881680892
 20
-1417.380228977749
 10
1581.914934703585
 20
-1417.634819886723
 10
1588.969458375185
 20
-1438.798390901955
 10
1588.9694583751852
 20
-1438.7983909019558
 10
1587.6388200086842
 20
-1438.811865570373
 10
1587.638820008684
 20
-1438.811865570372
 10
1586.976174835856
 20
-1438.818575826297
 10
1579.7065389407844
 20
-1417.0096681414914
 97
0
 75
1
 76
1
 52
0.0
 41
9.166492849423143
 77
0
 78
1
 53
45.0
 43
0.0
 44
0.0
 45
-20.5793633802
 46
20.5793633802
 79
0
 98
0
  0
MTEXT
  5
20631A
330
1F
100
AcDbEntity
  8
AA_填充算量层_标注
420
6566600
100
AcDbMText
 10
1584.4421906155944
 20
-1428.216605394339
 30
0.0
 40
3.0
 71
5
  1
{\fArial|b1;18\PS=42.952}
  0
HATCH
  5
20631B
330
1F
100
AcDbEntity
  8
AA_填充算量层
 62
7
420
16711680
100
AcDbHatch
 10
0.0
 20
0.0
 30
0.0
210
0.0
220
0.0
230
1.0
  2
ANSI31
 70
0
 71
0
 91
1
 92
3
 72
0
 73
1
 93
6
 10
1340.034374991757
 20
-1427.6031605178912
 10
1340.833739167079
 20
-1427.945568480529
 10
1342.342494935026
 20
-1428.5274848044442
 10
1345.1763051637513
 20
-1437.0289154907928
 10
1345.025061086984
 20
-1437.005839644931
 10
1343.078783330977
 20
-1436.736385535552
 97
0
 75
1
 76
1
 52
0.0
 41
9.166492849423143
 77
0
 78
1
 53
45.0
 43
0.0
 44
0.0
 45
-20.5793633802
 46
20.5793633802
 79
0
 98
0
  0
MTEXT
  5
20631C
330
1F
100
AcDbEntity
  8
AA_填充算量层_标注
420
16711680
100
AcDbMText
 10
1342.7106391329876
 20
-1432.631935169998
 30
0.0
 40
3.0
 71
5
  1
{\fArial|b1;19\PS=17.607}
  0
HATCH
  5
20631D
330
1F
100
AcDbEntity
  8
AA_填充算量层
 62
7
420
51200
100
AcDbHatch
 10
0.0
 20
0.0
 30
0.0
210
0.0
220
0.0
230
1.0
  2
ANSI31
 70
0
 71
0
 91
1
 92
3
 72
0
 73
1
 93
19
 10
1596.72080918044
 20
-1426.758478262561
 10
1598.387475847184
 20
-1427.603478262299
 10
1600.054142513812
 20
-1428.483478262653
 10
1601.72080918044
 20
-1428.963478262634
 10
1603.387475847184
 20
-1429.283478262467
 10
1610.635115893592
 20
-1432.54805045026
 10
1617.392740329529
 20
-1435.021114849118
 10
1630.054142513813
 20
-1435.938478262263
 10
1643.83470109807
 20
-1434.404811924885
 10
1651.2104024946036
 20
-1432.5391376273844
 10
1662.222017782309
 20
-1429.753763530503
 10
1657.584288324264
 20
-1433.920226342607
 10
1651.884304729325
 20
-1437.271048393665
 10
1646.088467093568
 20
-1438.898571356764
 10
1635.554142513813
 20
-1438.438478262263
 10
1630.054142513813
 20
-1438.438478262263
 10
1611.8423325396784
 20
-1438.585671422929
 10
1606.327151673531
 20
-1435.617081286949
 10
1601.292337027413
 20
-1431.783418697869
 97
0
 75
1
 76
1
 52
0.0
 41
9.166492849423143
 77
0
 78
1
 53
45.0
 43
0.0
 44
0.0
 45
-20.5793633802
 46
20.5793633802
 79
0
 98
0
  0
MTEXT
  5
20631E
330
1F
100
AcDbEntity
  8
AA_填充算量层_标注
420
51200
100
AcDbMText
 10
1653.4053932179734
 20
-1433.2341383964335
 30
0.0
 40
3.0
 71
5
  1
{\fArial|b1;20\PS=234.937}
  0
HATCH
  5
20631F
330
1F
100
AcDbEntity
  8
AA_填充算量层
 62
7
420
255
100
AcDbHatch
 10
0.0
 20
0.0
 30
0.0
210
0.0
220
0.0
230
1.0
  2
ANSI31
 70
0
 71
0
 91
1
 92
3
 72
0
 73
1
 93
5
 10
1675.72208558034
 20
-1426.6546973504048
 10
1677.887818834832
 20
-1426.1575331298602
 10
1672.1937521180973
 20
-1443.2397332800663
 10
1670.3357850401426
 20
-1442.8135989713253
 10
1675.72208558034
 20
-1426.654697350405
 97
0
 75
1
 76
1
 52
0.0
 41
9.166492849423143
 77
0
 78
1
 53
45.0
 43
0.0
 44
0.0
 45
-20.5793633802
 46
20.5793633802
 79
0
 98
0
  0
MTEXT
  5
206320
330
1F
100
AcDbEntity
  8
AA_填充算量层_标注
420
255
100
AcDbMText
 10
1674.0289412340362
 20
-1434.734148160865
 30
0.0
 40
3.0
 71
5
  1
{\fArial|b1;21\PS=33.241}
  0
HATCH
  5
206321
330
1F
100
AcDbEntity
  8
AA_填充算量层
 62
7
420
16776960
100
AcDbHatch
 10
0.0
 20
0.0
 30
0.0
210
0.0
220
0.0
230
1.0
  2
ANSI31
 70
0
 71
0
 91
1
 92
3
 72
0
 73
1
 93
8
 10
1662.222017782309
 20
-1429.753763530503
 10
1675.72208558034
 20
-1426.6546973504048
 10
1675.72208558034
 20
-1426.654697350405
 10
1670.3357850401426
 20
-1442.8135989713253
 10
1666.206196963007
 20
-1441.866456698723
 10
1646.088467093568
 20
-1438.898571356764
 10
1651.884304729325
 20
-1437.271048393665
 10
1657.584288324264
 20
-1433.920226342607
 97
0
 75
1
 76
1
 52
0.0
 41
9.166492849423143
 77
0
 78
1
 53
45.0
 43
0.0
 44
0.0
 45
-20.5793633802
 46
20.5793633802
 79
0
 98
0
  0
MTEXT
  5
206322
330
1F
100
AcDbEntity
  8
AA_填充算量层_标注
420
16776960
100
AcDbMText
 10
1663.7380343839757
 20
-1435.595637368136
 30
0.0
 40
3.0
 71
5
  1
{\fArial|b1;22\PS=222.302}
  0
HATCH
  5
206323
330
1F
100
AcDbEntity
  8
AA_填充算量层
 62
7
420
16711935
100
AcDbHatch
 10
0.0
 20
0.0
 30
0.0
210
0.0
220
0.0
230
1.0
  2
ANSI31
 70
0
 71
0
 91
1
 92
3
 72
0
 73
1
 93
7
 10
1406.889414349678
 20
-1456.0
 10
1411.633880173205
 20
-1450.132907356135
 10
1425.087516472093
 20
-1435.548813735135
 10
1430.747449263581
 20
-1433.345037190244
 10
1434.312843678403
 20
-1432.227537197061
 10
1436.491406882035
 20
-1432.0257793533283
 10
1428.499999999974
 20
-1456.0
 97
0
 75
1
 76
1
 52
0.0
 41
9.166492849423143
 77
0
 78
1
 53
45.0
 43
0.0
 44
0.0
 45
-20.5793633802
 46
20.5793633802
 79
0
 98
0
  0
MTEXT
  5
206324
330
1F
100
AcDbEntity
  8
AA_填充算量层_标注
420
16711935
100
AcDbMText
 10
1425.6235390703278
 20
-1442.840860545635
 30
0.0
 40
3.0
 71
5
  1
{\fArial|b1;23\PS=351.927}
  0
HATCH
  5
206325
330
1F
100
AcDbEntity
  8
AA_填充算量层
 62
7
420
65535
100
AcDbHatch
 10
0.0
 20
0.0
 30
0.0
210
0.0
220
0.0
230
1.0
  2
ANSI31
 70
0
 71
0
 91
1
 92
3
 72
0
 73
1
 93
6
 10
1404.665607464961
 20
-1458.75
 10
1406.889414349678
 20
-1456.0
 10
1428.499999999974
 20
-1456.0
 10
1436.491406882035
 20
-1432.0257793533283
 10
1438.555126090748
 20
-1431.834657270239
 10
1429.583345180829
 20
-1458.75
 97
0
 75
1
 76
1
 52
0.0
 41
9.166492849423143
 77
0
 78
1
 53
45.0
 43
0.0
 44
0.0
 45
-20.5793633802
 46
20.5793633802
 79
0
 98
0
  0
MTEXT
  5
206326
330
1F
100
AcDbEntity
  8
AA_填充算量层_标注
420
65535
100
AcDbMText
 10
1433.4957093648056
 20
-1444.0128896766641
 30
0.0
 40
3.0
 71
5
  1
{\fArial|b1;24\PS=114.866}
  0
HATCH
  5
206327
330
1F
100
AcDbEntity
  8
AA_填充算量层
 62
7
420
16744448
100
AcDbHatch
 10
0.0
 20
0.0
 30
0.0
210
0.0
220
0.0
230
1.0
  2
ANSI31
 70
0
 71
0
 91
1
 92
3
 72
0
 73
1
 93
7
 10
1349.5417658360168
 20
-1437.8856573387
 10
1349.337465886092
 20
-1438.83895385755
 10
1360.301222157082
 20
-1451.558743383735
 10
1363.5834714110383
 20
-1456.0
 10
1351.500000000025
 20
-1456.0
 10
1345.1763051637513
 20
-1437.0289154907928
 10
1347.148458752665
 20
-1437.329813966993
 97
0
 75
1
 76
1
 52
0.0
 41
9.166492849423143
 77
0
 78
1
 53
45.0
 43
0.0
 44
0.0
 45
-20.5793633802
 46
20.5793633802
 79
0
 98
0
  0
MTEXT
  5
206328
330
1F
100
AcDbEntity
  8
AA_填充算量层_标注
420
16744448
100
AcDbMText
 10
1351.359480114283
 20
-1445.1988486206424
 30
0.0
 40
3.0
 71
5
  1
{\fArial|b1;25\PS=143.258}
  0
HATCH
  5
206329
330
1F
100
AcDbEntity
  8
AA_填充算量层
 62
7
420
8388863
100
AcDbHatch
 10
0.0
 20
0.0
 30
0.0
210
0.0
220
0.0
230
1.0
  2
ANSI31
 70
0
 71
0
 91
1
 92
3
 72
0
 73
1
 93
7
 10
1363.5834714110383
 20
-1456.0
 10
1365.6158208626155
 20
-1458.75
 10
1350.416654819126
 20
-1458.75
 10
1343.078783330977
 20
-1436.736385535552
 10
1345.025061086984
 20
-1437.005839644931
 10
1345.1763051637513
 20
-1437.0289154907928
 10
1351.500000000025
 20
-1456.0
 97
0
 75
1
 76
1
 52
0.0
 41
9.166492849423143
 77
0
 78
1
 53
45.0
 43
0.0
 44
0.0
 45
-20.5793633802
 46
20.5793633802
 79
0
 98
0
  0
MTEXT
  5
20632A
330
1F
100
AcDbEntity
  8
AA_填充算量层_标注
420
8388863
100
AcDbMText
 10
1347.3381466580731
 20
-1446.5144577453964
 30
0.0
 40
3.0
 71
5
  1
{\fArial|b1;26\PS=78.501}
  0
HATCH
  5
20632B
330
1F
100
AcDbEntity
  8
AA_填充算量层
 62
7
420
33023
100
AcDbHatch
 10
0.0
 20
0.0
 30
0.0
210
0.0
220
0.0
230
1.0
  2
ANSI31
 70
0
 71
0
 91
1
 92
3
 72
0
 73
1
 93
11
 10
1588.9694583751852
 20
-1438.7983909019558
 10
1602.595593168668
 20
-1438.660406267835
 10
1611.8423325396784
 20
-1438.585671422929
 10
1630.054142513813
 20
-1438.438478262263
 10
1635.554142513813
 20
-1438.438478262263
 10
1646.088467093568
 20
-1438.898571356764
 10
1666.206196963007
 20
-1441.866456698723
 10
1670.3357850401426
 20
-1442.8135989713253
 10
1670.335785040142
 20
-1442.813598971327
 10
1668.820809181996
 20
-1450.388478262448
 10
1591.287475847164
 20
-1450.388478262448
 97
0
 75
1
 76
1
 52
0.0
 41
9.166492849423143
 77
0
 78
1
 53
45.0
 43
0.0
 44
0.0
 45
-20.5793633802
 46
20.5793633802
 79
0
 98
0
  0
MTEXT
  5
20632C
330
1F
100
AcDbEntity
  8
AA_填充算量层_标注
420
33023
100
AcDbMText
 10
1630.0541425145798
 20
-1446.6010386168875
 30
0.0
 40
3.0
 71
5
  1
{\fArial|b1;27\PS=888.501}
  0
HATCH
  5
20632D
330
1F
100
AcDbEntity
  8
AA_填充算量层
 62
7
420
16711808
100
AcDbHatch
 10
0.0
 20
0.0
 30
0.0
210
0.0
220
0.0
230
1.0
  2
ANSI31
 70
0
 71
0
 91
1
 92
3
 72
0
 73
1
 93
11
 10
1587.6388200086842
 20
-1438.811865570373
 10
1588.9694583751852
 20
-1438.7983909019558
 10
1591.287475847164
 20
-1450.388478262448
 10
1668.820809181996
 20
-1450.388478262448
 10
1670.335785040142
 20
-1442.813598971327
 10
1670.3357850401426
 20
-1442.8135989713253
 10
1672.1937521180973
 20
-1443.2397332800663
 10
1672.193752118097
 20
-1443.239733280067
 10
1671.610639456347
 20
-1443.105993390926
 10
1669.554142481997
 20
-1453.388478262448
 10
1590.554142547164
 20
-1453.388478262448
 97
0
 75
1
 76
1
 52
0.0
 41
9.166492849423143
 77
0
 78
1
 53
45.0
 43
0.0
 44
0.0
 45
-20.5793633802
 46
20.5793633802
 79
0
 98
0
  0
MTEXT
  5
20632E
330
1F
100
AcDbEntity
  8
AA_填充算量层_标注
420
16711808
100
AcDbMText
 10
1670.2023503302307
 20
-1446.8141057712573
 30
0.0
 40
3.0
 71
5
  1
{\fArial|b1;28\PS=264.149}
  0
HATCH
  5
20632F
330
1F
100
AcDbEntity
  8
AA_填充算量层
 62
7
420
8453888
100
AcDbHatch
 10
0.0
 20
0.0
 30
0.0
210
0.0
220
0.0
230
1.0
  2
ANSI31
 70
0
 71
0
 91
1
 92
3
 72
0
 73
1
 93
4
 10
1365.6158208626155
 20
-1458.75
 10
1363.5834714110383
 20
-1456.0
 10
1406.889414349678
 20
-1456.0
 10
1404.665607464961
 20
-1458.75
 97
0
 75
1
 76
1
 52
0.0
 41
9.166492849423143
 77
0
 78
1
 53
45.0
 43
0.0
 44
0.0
 45
-20.5793633802
 46
20.5793633802
 79
0
 98
0
  0
MTEXT
  5
206330
330
1F
100
AcDbEntity
  8
AA_填充算量层_标注
420
8453888
100
AcDbMText
 10
1385.1885785220732
 20
-1457.375
 30
0.0
 40
3.0
 71
5
  1
{\fArial|b1;29\PS=113.239}
  0
ENDSEC
  0
SECTION
  2
OBJECTS
  0
DICTIONARY
  5
C
330
0
100
AcDbDictionary
281
1
  3
ACAD_CIP_PREVIOUS_PRODUCT_INFO
350
164
  3
ACAD_COLOR
350
6C
  3
ACAD_DATALINK
350
229
  3
ACAD_DETAILVIEWSTYLE
350
1D7
  3
ACAD_GROUP
350
D
  3
ACAD_LAYOUT
350
1A
  3
ACAD_MATERIAL
350
6B
  3
ACAD_MLEADERSTYLE
350
DE
  3
ACAD_MLINESTYLE
350
17
  3
ACAD_PLOTSETTINGS
350
19
  3
ACAD_PLOTSTYLENAME
350
E
  3
ACAD_SCALELIST
350
B7
  3
ACAD_SECTIONVIEWSTYLE
350
1D5
  3
ACAD_TABLESTYLE
350
92
  3
ACAD_VISUALSTYLE
350
145
  3
ACDB_RECOMPOSE_DATA
350
205F3A
  3
AcDbVariableDictionary
350
59
  3
EZDXF_META
350
206332
  0
DICTIONARY
  5
FA
330
2
100
AcDbDictionary
280
1
281
1
  3
ACAD_LAYERSTATES
360
FB
  0
DICTIONARY
  5
B13
330
1F
100
AcDbDictionary
280
1
281
1
  3
ACAD_SORTENTS
360
B14
  0
XRECORD
  5
164
102
{ACAD_REACTORS
330
C
102
}
330
C
100
AcDbXrecord
280
1
300
ACD
300
2013
300
ACD_F_S
  0
DICTIONARY
  5
6C
102
{ACAD_REACTORS
330
C
102
}
330
C
100
AcDbDictionary
281
1
  0
DICTIONARY
  5
229
102
{ACAD_REACTORS
330
C
102
}
330
C
100
AcDbDictionary
280
1
281
1
  0
DICTIONARY
  5
1D7
102
{ACAD_REACTORS
330
C
102
}
330
C
100
AcDbDictionary
281
1
  3
Metric50
350
1D8
  0
DICTIONARY
  5
D
102
{ACAD_REACTORS
330
C
102
}
330
C
100
AcDbDictionary
281
1
  0
DICTIONARY
  5
1A
102
{ACAD_REACTORS
330
C
102
}
330
C
100
AcDbDictionary
281
1
  3
Model
350
22
  3
布局1
350
1C8
  3
布局2
350
1CD
  0
DICTIONARY
  5
6B
102
{ACAD_REACTORS
330
C
102
}
330
C
100
AcDbDictionary
281
1
  3
ByBlock
350
135
  3
ByLayer
350
12D
  3
Global
350
13D
  0
DICTIONARY
  5
DE
102
{ACAD_REACTORS
330
C
102
}
330
C
100
AcDbDictionary
281
1
  3
Annotative
350
228
  3
Standard
350
E1
  0
DICTIONARY
  5
17
102
{ACAD_REACTORS
330
C
102
}
330
C
100
AcDbDictionary
281
1
  3
Standard
350
18
  0
DICTIONARY
  5
19
102
{ACAD_REACTORS
330
C
102
}
330
C
100
AcDbDictionary
281
1
  0
ACDBDICTIONARYWDFLT
  5
E
102
{ACAD_REACTORS
330
C
102
}
330
C
100
AcDbDictionary
281
1
  3
Normal
350
F
100
AcDbDictionaryWithDefault
340
F
  0
DICTIONARY
  5
B7
102
{ACAD_REACTORS
330
C
102
}
330
C
100
AcDbDictionary
281
1
  3
A0
350
B8
  3
A1
350
204
  3
A2
350
205
  3
A3
350
206
  3
A4
350
207
  3
A5
350
208
  3
A6
350
209
  3
A7
350
20A
  3
A8
350
20B
  3
A9
350
20C
  3
B0
350
20D
  3
B1
350
20E
  3
B2
350
20F
  3
B3
350
210
  3
B4
350
211
  3
B5
350
212
  3
B6
350
213
  0
DICTIONARY
  5
1D5
102
{ACAD_REACTORS
330
C
102
}
330
C
100
AcDbDictionary
281
1
  3
Metric50
350
1D6
  0
DICTIONARY
  5
92
102
{ACAD_REACTORS
330
C
102
}
330
C
100
AcDbDictionary
281
1
  3
Standard
350
93
  0
DICTIONARY
  5
145
102
{ACAD_REACTORS
330
C
102
}
330
C
100
AcDbDictionary
281
1
  3
2dWireframe
350
14B
  3
Basic
350
14A
  3
Brighten
350
151
  3
ColorChange
350
155
  3
Conceptual
350
14E
  3
Dim
350
150
  3
EdgeColorOff
350
15D
  3
Facepattern
350
154
  3
Flat
350
146
  3
FlatWithEdges
350
147
  3
Gouraud
350
148
  3
GouraudWithEdges
350
149
  3
Hidden
350
14D
  3
JitterOff
350
15B
  3
Linepattern
350
153
  3
OverhangOff
350
15C
  3
Realistic
350
14F
  3
Shaded
350
15A
  3
Shaded with edges
350
159
  3
Shades of Gray
350
156
  3
Sketchy
350
157
  3
Thicken
350
152
  3
Wireframe
350
14C
  3
X-Ray
350
158
  0
XRECORD
  5
205F3A
102
{ACAD_REACTORS
330
C
102
}
330
C
100
AcDbXrecord
280
1
 90
1
330
93
  0
DICTIONARY
  5
59
102
{ACAD_REACTORS
330
C
102
}
330
C
100
AcDbDictionary
281
1
  3
CANNOSCALE
350
924
  3
CMLEADERSTYLE
350
E9
  3
CTABLESTYLE
350
98
  3
CVIEWDETAILSTYLE
350
1EE
  3
CVIEWSECTIONSTYLE
350
1EF
  3
DGNFRAME
350
22F
  3
DIMASSOC
350
43
  3
DWFFRAME
350
22E
  3
HIDETEXT
350
5E
  3
HPCOLOR
350
B15
  3
MSLTSCALE
350
921
  3
PROJECTNAME
350
B6
  0
DICTIONARY
  5
FB
102
{ACAD_REACTORS
330
FA
102
}
330
FA
100
AcDbDictionary
281
1
  0
SORTENTSTABLE
  5
B14
102
{ACAD_REACTORS
330
B13
102
}
330
B13
100
AcDbSortentsTable
330
1F
331
205F4F
  5
205F59
331
205F57
  5
205FB2
331
58B
  5
6FD
331
205F50
  5
205FAB
331
58A
  5
596
331
205F4E
  5
205F57
331
205F56
  5
205FB1
331
58C
  5
6FE
331
58D
  5
700
331
205F4D
  5
205F56
331
205F55
  5
205FB0
331
205F52
  5
205FAD
331
205F4A
  5
205F53
331
64F
  5
705
331
205F3C
  5
205F45
331
64E
  5
704
331
205F3D
  5
205F46
331
205F40
  5
205F49
331
205F48
  5
205F51
331
205F4B
  5
205F54
331
205F43
  5
205F4C
331
205F45
  5
205F4E
331
58E
  5
701
331
205F54
  5
205FAF
331
205F44
  5
205F4D
331
205F4C
  5
205F55
331
658
  5
205F40
331
653
  5
709
331
65B
  5
205F43
331
655
  5
205F3D
331
8B2
  5
205F44
331
205F3F
  5
205F48
331
650
  5
706
331
205F46
  5
205F4F
331
651
  5
707
331
205F3E
  5
205F47
331
205F47
  5
205F50
331
64C
  5
702
331
205F42
  5
205F4B
331
64D
  5
703
331
656
  5
205F3E
331
659
  5
205F41
331
205F41
  5
205F4A
331
652
  5
708
331
65A
  5
205F42
331
654
  5
238F
331
657
  5
205F3F
331
205F51
  5
205FAC
331
205F49
  5
205F52
331
205F53
  5
205FAE
  0
ACDBDETAILVIEWSTYLE
  5
1D8
102
{ACAD_REACTORS
330
1D7
102
}
330
1D7
100
AcDbModelDocViewStyle
 70
0
  3
Metric50
290
1
300
Metric50
 90
0
100
AcDbDetailViewStyle
 70
0
 71
0
 90
3
 71
1
340
11
 62
256
 40
5.0
340
0
 62
256
 40
5.0
300

 40
0.0
280
1
 71
2
340
16
 90
25
 62
256
 71
3
340
11
 62
256
 40
5.0
 90
0
 40
15.0
 90
1
300
%<\AcVar ViewDetailId>% (%<\AcVar ViewScale \f "%sn">%)
 71
4
340
16
 90
25
 62
256
340
16
 90
25
 62
256
280
0
  0
LAYOUT
  5
22
102
{ACAD_REACTORS
330
1A
102
}
330
1A
100
AcDbPlotSettings
  1

  2
none_device
  4
none_user_media
  6

 40
6.349999904632567
 41
6.349999904632567
 42
6.350006103515625
 43
6.350006103515625
 44
215.8999938964844
 45
279.3999938964844
 46
0.0
 47
81.57875845973331
 48
0.0
 49
0.0
140
0.0
141
0.0
142
1.0
143
3.583704046179819
 70
11445
 72
1
 73
0
 74
0
  7

 75
0
 76
0
 77
2
 78
300
147
0.2790408993359779
148
154.1043093895605
149
1.549288692994196
100
AcDbLayout
  1
Model
 70
1
 71
0
 10
0.0
 20
0.0
 11
420.0
 21
297.0
 12
0.0
 22
0.0
 32
0.0
 14
1e+20
 24
1e+20
 34
1e+20
 15
-1e+20
 25
-1e+20
 35
-1e+20
146
0.0
 13
0.0
 23
0.0
 33
0.0
 16
1.0
 26
0.0
 36
0.0
 17
0.0
 27
1.0
 37
0.0
 76
0
330
1F
331
1BA
1001
ACAD_PSEXT
1000
无
1000
无
1000
不可用
1000
在选择新的绘图仪配置名称之前，不能打印该布局。
1070
0
  0
LAYOUT
  5
1C8
102
{ACAD_REACTORS
330
1A
102
}
330
1A
100
AcDbPlotSettings
  1

  2
Microsoft XPS Document Writer#:1
  4

  6

 40
0.0
 41
0.0
 42
0.0
 43
0.0
 44
0.0
 45
0.0
 46
0.0
 47
0.0
 48
0.0
 49
0.0
140
0.0
141
0.0
142
1.0
143
1.0
 70
688
 72
0
 73
0
 74
5
  7

 75
16
 76
0
 77
2
 78
300
147
1.0
148
0.0
149
0.0
100
AcDbLayout
  1
布局1
 70
1
 71
1
 10
0.0
 20
0.0
 11
12.0
 21
9.0
 12
0.0
 22
0.0
 32
0.0
 14
0.0
 24
0.0
 34
0.0
 15
0.0
 25
0.0
 35
0.0
146
0.0
 13
0.0
 23
0.0
 33
0.0
 16
1.0
 26
0.0
 36
0.0
 17
0.0
 27
1.0
 37
0.0
 76
0
330
1C7
  0
LAYOUT
  5
1CD
102
{ACAD_REACTORS
330
1A
102
}
330
1A
100
AcDbPlotSettings
  1

  2
Microsoft XPS Document Writer#:1
  4

  6

 40
0.0
 41
0.0
 42
0.0
 43
0.0
 44
0.0
 45
0.0
 46
0.0
 47
0.0
 48
0.0
 49
0.0
140
0.0
141
0.0
142
1.0
143
1.0
 70
688
 72
0
 73
0
 74
5
  7

 75
16
 76
0
 77
2
 78
300
147
1.0
148
0.0
149
0.0
100
AcDbLayout
  1
布局2
 70
1
 71
2
 10
0.0
 20
0.0
 11
12.0
 21
9.0
 12
0.0
 22
0.0
 32
0.0
 14
0.0
 24
0.0
 34
0.0
 15
0.0
 25
0.0
 35
0.0
146
0.0
 13
0.0
 23
0.0
 33
0.0
 16
1.0
 26
0.0
 36
0.0
 17
0.0
 27
1.0
 37
0.0
 76
0
330
1CC
  0
MATERIAL
  5
135
102
{ACAD_REACTORS
330
6B
102
}
330
6B
100
AcDbMaterial
  1
ByBlock
  2

 70
0
 40
1.0
 71
0
 41
1.0
 91
-1023410177
 42
1.0
 72
0
  3

 73
2
 74
1
 75
1
 44
0.5
 73
0
 45
1.0
 46
1.0
 77
0
  4

 78
2
 79
1
170
1
 48
1.0
171
0
  6

172
2
173
1
174
1
140
1.0
141
1.0
175
0
  7

176
2
177
1
178
1
143
1.0
179
0
  8

270
2
271
1
272
1
145
1.0
146
1.0
273
1
  9

274
2
275
1
276
1
 42
1.0
 72
1
  3

 73
1
 74
1
 75
1
 94
127
  0
MATERIAL
  5
12D
102
{ACAD_REACTORS
330
6B
102
}
330
6B
100
AcDbMaterial
  1
ByLayer
  2

 70
0
 40
1.0
 71
0
 41
1.0
 91
-1023410177
 42
1.0
 72
0
  3

 73
2
 74
1
 75
1
 44
0.5
 73
0
 45
1.0
 46
1.0
 77
0
  4

 78
2
 79
1
170
1
 48
1.0
171
0
  6

172
2
173
1
174
1
140
1.0
141
1.0
175
0
  7

176
2
177
1
178
1
143
1.0
179
0
  8

270
2
271
1
272
1
145
1.0
146
1.0
273
1
  9

274
2
275
1
276
1
 42
1.0
 72
1
  3

 73
1
 74
1
 75
1
 94
127
  0
MATERIAL
  5
13D
102
{ACAD_REACTORS
330
6B
102
}
330
6B
100
AcDbMaterial
  1
Global
  2

 70
0
 40
1.0
 71
0
 41
1.0
 91
-1023410177
 42
1.0
 72
0
  3

 73
2
 74
1
 75
1
 44
0.5
 73
0
 45
1.0
 46
1.0
 77
0
  4

 78
2
 79
1
170
1
 48
1.0
171
0
  6

172
2
173
1
174
1
140
1.0
141
1.0
175
0
  7

176
2
177
1
178
1
143
1.0
179
0
  8

270
2
271
1
272
1
145
1.0
146
1.0
273
1
  9

274
2
275
1
276
1
 42
1.0
 72
1
  3

 73
1
 74
1
 75
1
 94
127
  0
MLEADERSTYLE
  5
228
102
{ACAD_REACTORS
330
DE
102
}
330
DE
100
AcDbMLeaderStyle
179
2
170
2
171
1
172
0
 90
2
 40
0.0
 41
0.0
173
1
 91
-1056964608
340
14
 92
-2
290
1
 42
2.0
291
1
 43
8.0
  3
Standard
 44
4.0
300

342
11
174
1
175
1
176
0
178
1
 93
-1056964608
 45
4.0
292
0
297
0
 46
0.18
293
1
 94
-1056964608
 47
1.0
 49
1.0
140
1.0
294
1
141
0.0
177
0
142
1.0
295
0
296
1
143
3.75
271
0
272
9
273
9
298
0
  0
MLEADERSTYLE
  5
E1
102
{ACAD_REACTORS
330
DE
102
}
330
DE
100
AcDbMLeaderStyle
179
2
170
2
171
1
172
0
 90
2
 40
0.0
 41
0.0
173
1
 91
-1056964608
340
14
 92
-2
290
1
 42
2.0
291
1
 43
8.0
  3
Standard
 44
4.0
300

342
11
174
1
175
1
176
0
178
1
 93
-1056964608
 45
4.0
292
0
297
0
 46
0.18
293
1
 94
-1056964608
 47
1.0
 49
1.0
140
1.0
294
1
141
0.0
177
0
142
1.0
295
0
296
0
143
3.75
271
0
272
9
273
9
298
0
  0
MLINESTYLE
  5
18
102
{ACAD_REACTORS
330
17
102
}
330
17
100
AcDbMlineStyle
  2
STANDARD
 70
0
  3

 62
256
 51
90.0
 52
90.0
 71
2
 49
0.5
 62
256
  6
BYLAYER
 49
-0.5
 62
256
  6
BYLAYER
  0
ACDBPLACEHOLDER
  5
F
102
{ACAD_REACTORS
330
E
102
}
330
E
  0
SCALE
  5
B8
102
{ACAD_REACTORS
330
B7
102
}
330
B7
100
AcDbScale
 70
0
300
1:1
140
1.0
141
1.0
290
1
  0
SCALE
  5
204
102
{ACAD_REACTORS
330
B7
102
}
330
B7
100
AcDbScale
 70
0
300
1:2
140
1.0
141
2.0
290
0
  0
SCALE
  5
205
102
{ACAD_REACTORS
330
B7
102
}
330
B7
100
AcDbScale
 70
0
300
1:4
140
1.0
141
4.0
290
0
  0
SCALE
  5
206
102
{ACAD_REACTORS
330
B7
102
}
330
B7
100
AcDbScale
 70
0
300
1:5
140
1.0
141
5.0
290
0
  0
SCALE
  5
207
102
{ACAD_REACTORS
330
B7
102
}
330
B7
100
AcDbScale
 70
0
300
1:8
140
1.0
141
8.0
290
0
  0
SCALE
  5
208
102
{ACAD_REACTORS
330
B7
102
}
330
B7
100
AcDbScale
 70
0
300
1:10
140
1.0
141
10.0
290
0
  0
SCALE
  5
209
102
{ACAD_REACTORS
330
B7
102
}
330
B7
100
AcDbScale
 70
0
300
1:16
140
1.0
141
16.0
290
0
  0
SCALE
  5
20A
102
{ACAD_REACTORS
330
B7
102
}
330
B7
100
AcDbScale
 70
0
300
1:20
140
1.0
141
20.0
290
0
  0
SCALE
  5
20B
102
{ACAD_REACTORS
330
B7
102
}
330
B7
100
AcDbScale
 70
0
300
1:30
140
1.0
141
30.0
290
0
  0
SCALE
  5
20C
102
{ACAD_REACTORS
330
B7
102
}
330
B7
100
AcDbScale
 70
0
300
1:40
140
1.0
141
40.0
290
0
  0
SCALE
  5
20D
102
{ACAD_REACTORS
330
B7
102
}
330
B7
100
AcDbScale
 70
0
300
1:50
140
1.0
141
50.0
290
0
  0
SCALE
  5
20E
102
{ACAD_REACTORS
330
B7
102
}
330
B7
100
AcDbScale
 70
0
300
1:100
140
1.0
141
100.0
290
0
  0
SCALE
  5
20F
102
{ACAD_REACTORS
330
B7
102
}
330
B7
100
AcDbScale
 70
0
300
2:1
140
2.0
141
1.0
290
0
  0
SCALE
  5
210
102
{ACAD_REACTORS
330
B7
102
}
330
B7
100
AcDbScale
 70
0
300
4:1
140
4.0
141
1.0
290
0
  0
SCALE
  5
211
102
{ACAD_REACTORS
330
B7
102
}
330
B7
100
AcDbScale
 70
0
300
8:1
140
8.0
141
1.0
290
0
  0
SCALE
  5
212
102
{ACAD_REACTORS
330
B7
102
}
330
B7
100
AcDbScale
 70
0
300
10:1
140
10.0
141
1.0
290
0
  0
SCALE
  5
213
102
{ACAD_REACTORS
330
B7
102
}
330
B7
100
AcDbScale
 70
0
300
100:1
140
100.0
141
1.0
290
0
  0
ACDBSECTIONVIEWSTYLE
  5
1D6
102
{ACAD_REACTORS
330
1D5
102
}
330
1D5
100
AcDbModelDocViewStyle
 70
0
  3
Metric50
290
1
300
Metric50
 90
0
100
AcDbSectionViewStyle
 70
0
 71
0
 90
102
 71
1
340
11
 62
256
 40
5.0
340
0
340
0
 62
256
 40
5.0
300
I, O, Q, S, X, Z
 40
10.0
 90
0
 40
2.5
 90
0
 71
2
340
16
 90
25
 62
256
340
16
 90
50
 62
256
 40
5.0
 40
2.5
 40
5.0
 71
3
340
11
 62
256
 40
5.0
 90
0
 40
15.0
 90
1
300
%<\AcVar ViewSectionStartId>%-%<\AcVar ViewSectionEndId>% (%<\AcVar ViewScale \f "%sn">%)
 71
4
 62
256
 62
257
300
ANSI31
 40
1.0
 90
0
290
0
290
0
 90
6
 40
0.0
 40
1.570796326794896
 40
0.2617993877991494
 40
1.308996938995747
 40
-0.2617993877991494
 40
1.832595714594044
  0
TABLESTYLE
  5
93
102
{ACAD_XDICTIONARY
360
22B
102
}
102
{ACAD_REACTORS
330
92
102
}
330
92
100
AcDbTableStyle
280
0
  3
Standard
 70
0
 71
0
 40
1.5
 41
1.5
280
0
281
0
  7
Standard
140
4.5
170
2
 62
0
 63
7
283
0
 90
512
 91
0
  1

274
-2
284
1
 64
0
275
-2
285
1
 65
0
276
-2
286
1
 66
0
277
-2
287
1
 67
0
278
-2
288
1
 68
0
279
-2
289
1
 69
0
  7
Standard
140
6.0
170
5
 62
0
 63
7
283
0
 90
512
 91
0
  1

274
-2
284
1
 64
0
275
-2
285
1
 65
0
276
-2
286
1
 66
0
277
-2
287
1
 67
0
278
-2
288
1
 68
0
279
-2
289
1
 69
0
  7
Standard
140
4.5
170
5
 62
0
 63
7
283
0
 90
512
 91
0
  1

274
-2
284
1
 64
0
275
-2
285
1
 65
0
276
-2
286
1
 66
0
277
-2
287
1
 67
0
278
-2
288
1
 68
0
279
-2
289
1
 69
0
1001
ACAD
1000
AcRTDxfName
1000
TABLESTYLE
  0
VISUALSTYLE
  5
14B
102
{ACAD_REACTORS
330
145
102
}
330
145
100
AcDbVisualStyle
  2
2dWireframe
 70
4
177
3
291
0
 70
58
 90
0
176
1
 90
2
176
1
 90
0
176
1
 90
0
176
1
 40
0.6
176
1
 40
30.0
176
1
 62
7
176
1
 90
1
176
1
 90
4
176
1
 62
7
176
1
 62
257
176
1
 90
1
176
1
 90
1
176
1
 40
1.0
176
1
 90
0
176
1
 62
257
176
1
 40
1.0
176
1
 90
1
176
1
 90
6
176
1
 90
2
176
1
 62
7
176
1
 90
5
176
1
 90
0
176
1
 90
0
176
1
290
0
176
1
 90
1
176
1
 40
0.0
176
1
 90
0
176
1
290
1
176
1
290
1
176
1
290
0
176
1
290
0
176
1
290
0
176
1
290
0
176
1
290
0
176
1
290
0
176
1
290
0
176
1
 90
50
176
1
 40
0.0
176
1
 40
1.0
176
1
 90
0
176
1
 62
18
420
0
176
1
 90
50
176
1
 90
3
176
1
 62
5
420
255
176
1
290
0
176
1
 90
50
176
1
 90
50
176
1
 90
50
176
1
290
0
176
1
 90
50
176
1
 62
256
176
0
 40
1.0
176
0
 90
0
176
1
  1
strokes_ogs.tif
176
1
290
0
176
1
 40
1.0
176
1
 40
1.0
176
1
  0
VISUALSTYLE
  5
14A
102
{ACAD_REACTORS
330
145
102
}
330
145
100
AcDbVisualStyle
  2
Basic
 70
7
177
3
291
1
 70
58
 90
1
176
1
 90
0
176
1
 90
1
176
1
 90
0
176
1
 40
0.6
176
1
 40
30.0
176
1
 62
7
176
1
 90
0
176
1
 90
4
176
1
 62
7
176
1
 62
257
176
1
 90
1
176
1
 90
1
176
1
 40
1.0
176
1
 90
8
176
1
 62
7
176
1
 40
1.0
176
1
 90
1
176
1
 90
6
176
1
 90
2
176
1
 62
7
176
1
 90
5
176
1
 90
0
176
1
 90
0
176
1
290
0
176
1
 90
1
176
1
 40
0.0
176
1
 90
0
176
1
290
0
176
1
290
1
176
1
290
1
176
1
290
0
176
1
290
0
176
1
290
0
176
1
290
0
176
1
290
0
176
1
290
0
176
1
 90
50
176
1
 40
0.0
176
1
 40
1.0
176
1
 90
0
176
1
 62
18
420
0
176
1
 90
50
176
1
 90
3
176
1
 62
5
420
255
176
1
290
0
176
1
 90
50
176
1
 90
50
176
1
 90
50
176
1
290
0
176
1
 90
50
176
1
 62
256
176
0
 40
1.0
176
0
 90
0
176
1
  1
strokes_ogs.tif
176
1
290
0
176
1
 40
1.0
176
1
 40
1.0
176
1
  0
VISUALSTYLE
  5
151
102
{ACAD_REACTORS
330
145
102
}
330
145
100
AcDbVisualStyle
  2
Brighten
 70
12
177
3
291
1
 70
58
 90
2
176
1
 90
2
176
1
 90
0
176
1
 90
0
176
1
 40
0.6
176
1
 40
30.0
176
1
 62
7
176
1
 90
1
176
1
 90
4
176
1
 62
7
176
1
 62
257
176
1
 90
1
176
1
 90
1
176
1
 40
1.0
176
1
 90
8
176
1
 62
7
176
1
 40
1.0
176
1
 90
1
176
1
 90
6
176
1
 90
2
176
1
 62
7
176
1
 90
5
176
1
 90
0
176
1
 90
0
176
1
290
0
176
1
 90
1
176
1
 40
50.0
176
1
 90
0
176
1
290
0
176
1
290
1
176
1
290
1
176
1
290
0
176
1
290
0
176
1
290
0
176
1
290
0
176
1
290
0
176
1
290
0
176
1
 90
50
176
1
 40
0.0
176
1
 40
1.0
176
1
 90
0
176
1
 62
18
420
0
176
1
 90
50
176
1
 90
3
176
1
 62
5
420
255
176
1
290
0
176
1
 90
50
176
1
 90
50
176
1
 90
50
176
1
290
0
176
1
 90
50
176
1
 62
256
176
0
 40
1.0
176
0
 90
0
176
1
  1
strokes_ogs.tif
176
1
290
0
176
1
 40
1.0
176
1
 40
1.0
176
1
  0
VISUALSTYLE
  5
155
102
{ACAD_REACTORS
330
145
102
}
330
145
100
AcDbVisualStyle
  2
ColorChange
 70
16
177
3
291
1
 70
58
 90
2
176
1
 90
2
176
1
 90
3
176
1
 90
0
176
1
 40
0.6
176
1
 40
30.0
176
1
 62
8
176
1
 90
1
176
1
 90
4
176
1
 62
7
176
1
 62
257
176
1
 90
1
176
1
 90
1
176
1
 40
1.0
176
1
 90
8
176
1
 62
8
176
1
 40
1.0
176
1
 90
1
176
1
 90
6
176
1
 90
2
176
1
 62
7
176
1
 90
5
176
1
 90
0
176
1
 90
0
176
1
290
0
176
1
 90
1
176
1
 40
0.0
176
1
 90
0
176
1
290
0
176
1
290
1
176
1
290
1
176
1
290
0
176
1
290
0
176
1
290
0
176
1
290
0
176
1
290
0
176
1
290
0
176
1
 90
50
176
1
 40
0.0
176
1
 40
1.0
176
1
 90
0
176
1
 62
18
420
0
176
1
 90
50
176
1
 90
3
176
1
 62
5
420
255
176
1
290
0
176
1
 90
50
176
1
 90
50
176
1
 90
50
176
1
290
0
176
1
 90
50
176
1
 62
256
176
0
 40
1.0
176
0
 90
0
176
1
  1
strokes_ogs.tif
176
1
290
0
176
1
 40
1.0
176
1
 40
1.0
176
1
  0
VISUALSTYLE
  5
14E
102
{ACAD_REACTORS
330
145
102
}
330
145
100
AcDbVisualStyle
  2
Conceptual
 70
9
177
3
291
0
 70
58
 90
3
176
1
 90
2
176
1
 90
0
176
1
 90
0
176
1
 40
0.6
176
1
 40
30.0
176
1
 62
7
176
1
 90
2
176
1
 90
2
176
1
 62
7
176
1
 62
257
176
1
 90
1
176
1
 90
1
176
1
 40
179.0
176
1
 90
8
176
1
 62
7
176
1
 40
1.0
176
1
 90
1
176
1
 90
6
176
1
 90
2
176
1
 62
7
176
1
 90
3
176
1
 90
0
176
1
 90
0
176
1
290
0
176
1
 90
1
176
1
 40
0.0
176
1
 90
0
176
1
290
0
176
1
290
1
176
1
290
1
176
1
290
0
176
1
290
0
176
1
290
0
176
1
290
0
176
1
290
0
176
1
290
0
176
1
 90
50
176
1
 40
0.0
176
1
 40
1.0
176
1
 90
0
176
1
 62
18
420
0
176
1
 90
50
176
1
 90
3
176
1
 62
5
420
255
176
1
290
0
176
1
 90
50
176
1
 90
50
176
1
 90
50
176
1
290
0
176
1
 90
50
176
1
 62
256
176
0
 40
1.0
176
0
 90
0
176
1
  1
strokes_ogs.tif
176
1
290
0
176
1
 40
1.0
176
1
 40
1.0
176
1
  0
VISUALSTYLE
  5
150
102
{ACAD_REACTORS
330
145
102
}
330
145
100
AcDbVisualStyle
  2
Dim
 70
11
177
3
291
1
 70
58
 90
2
176
1
 90
2
176
1
 90
0
176
1
 90
0
176
1
 40
0.6
176
1
 40
30.0
176
1
 62
7
176
1
 90
1
176
1
 90
4
176
1
 62
7
176
1
 62
257
176
1
 90
1
176
1
 90
1
176
1
 40
1.0
176
1
 90
8
176
1
 62
7
176
1
 40
1.0
176
1
 90
1
176
1
 90
6
176
1
 90
2
176
1
 62
7
176
1
 90
5
176
1
 90
0
176
1
 90
0
176
1
290
0
176
1
 90
1
176
1
 40
-50.0
176
1
 90
0
176
1
290
0
176
1
290
1
176
1
290
1
176
1
290
0
176
1
290
0
176
1
290
0
176
1
290
0
176
1
290
0
176
1
290
0
176
1
 90
50
176
1
 40
0.0
176
1
 40
1.0
176
1
 90
0
176
1
 62
18
420
0
176
1
 90
50
176
1
 90
3
176
1
 62
5
420
255
176
1
290
0
176
1
 90
50
176
1
 90
50
176
1
 90
50
176
1
290
0
176
1
 90
50
176
1
 62
256
176
0
 40
1.0
176
0
 90
0
176
1
  1
strokes_ogs.tif
176
1
290
0
176
1
 40
1.0
176
1
 40
1.0
176
1
  0
VISUALSTYLE
  5
15D
102
{ACAD_REACTORS
330
145
102
}
330
145
100
AcDbVisualStyle
  2
EdgeColorOff
 70
22
177
3
291
1
 70
58
 90
2
176
0
 90
2
176
0
 90
0
176
0
 90
0
176
0
 40
0.6
176
0
 40
30.0
176
0
 62
7
176
0
 90
1
176
0
 90
4
176
0
 62
7
176
0
 62
257
176
0
 90
1
176
0
 90
1
176
0
 40
1.0
176
0
 90
8
176
2
 62
7
176
0
 40
1.0
176
0
 90
1
176
0
 90
6
176
0
 90
2
176
0
 62
7
176
0
 90
5
176
0
 90
0
176
0
 90
0
176
0
290
0
176
0
 90
1
176
0
 40
0.0
176
0
 90
0
176
0
290
0
176
1
290
1
176
1
290
1
176
1
290
0
176
1
290
0
176
1
290
0
176
1
290
0
176
1
290
0
176
1
290
0
176
1
 90
50
176
1
 40
0.0
176
1
 40
1.0
176
1
 90
0
176
1
 62
18
420
0
176
1
 90
50
176
1
 90
3
176
1
 62
5
420
255
176
1
290
0
176
1
 90
50
176
1
 90
50
176
1
 90
50
176
1
290
0
176
1
 90
50
176
1
 62
256
176
0
 40
1.0
176
0
 90
0
176
1
  1
strokes_ogs.tif
176
1
290
0
176
1
 40
1.0
176
1
 40
1.0
176
1
  0
VISUALSTYLE
  5
154
102
{ACAD_REACTORS
330
145
102
}
330
145
100
AcDbVisualStyle
  2
Facepattern
 70
15
177
3
291
1
 70
58
 90
2
176
1
 90
2
176
1
 90
0
176
1
 90
0
176
1
 40
0.6
176
1
 40
30.0
176
1
 62
7
176
1
 90
1
176
1
 90
4
176
1
 62
7
176
1
 62
257
176
1
 90
1
176
1
 90
1
176
1
 40
1.0
176
1
 90
8
176
1
 62
7
176
1
 40
1.0
176
1
 90
1
176
1
 90
6
176
1
 90
2
176
1
 62
7
176
1
 90
5
176
1
 90
0
176
1
 90
0
176
1
290
0
176
1
 90
1
176
1
 40
0.0
176
1
 90
0
176
1
290
0
176
1
290
1
176
1
290
1
176
1
290
0
176
1
290
0
176
1
290
0
176
1
290
0
176
1
290
0
176
1
290
0
176
1
 90
50
176
1
 40
0.0
176
1
 40
1.0
176
1
 90
0
176
1
 62
18
420
0
176
1
 90
50
176
1
 90
3
176
1
 62
5
420
255
176
1
290
0
176
1
 90
50
176
1
 90
50
176
1
 90
50
176
1
290
0
176
1
 90
50
176
1
 62
256
176
0
 40
1.0
176
0
 90
0
176
1
  1
strokes_ogs.tif
176
1
290
0
176
1
 40
1.0
176
1
 40
1.0
176
1
  0
VISUALSTYLE
  5
146
102
{ACAD_REACTORS
330
145
102
}
330
145
100
AcDbVisualStyle
  2
Flat
 70
0
177
3
291
1
 70
58
 90
2
176
1
 90
1
176
1
 90
1
176
1
 90
2
176
1
 40
0.6
176
1
 40
30.0
176
1
 62
7
176
1
 90
0
176
1
 90
0
176
1
 62
7
176
1
 62
257
176
1
 90
1
176
1
 90
1
176
1
 40
1.0
176
1
 90
8
176
1
 62
7
176
1
 40
1.0
176
1
 90
1
176
1
 90
6
176
1
 90
2
176
1
 62
7
176
1
 90
5
176
1
 90
0
176
1
 90
0
176
1
290
0
176
1
 90
13
176
1
 40
0.0
176
1
 90
0
176
1
290
0
176
1
290
1
176
1
290
1
176
1
290
0
176
1
290
0
176
1
290
0
176
1
290
0
176
1
290
0
176
1
290
0
176
1
 90
50
176
1
 40
0.0
176
1
 40
1.0
176
1
 90
0
176
1
 62
18
420
0
176
1
 90
50
176
1
 90
3
176
1
 62
5
420
255
176
1
290
0
176
1
 90
50
176
1
 90
50
176
1
 90
50
176
1
290
0
176
1
 90
50
176
1
 62
256
176
0
 40
1.0
176
0
 90
0
176
1
  1
strokes_ogs.tif
176
1
290
0
176
1
 40
1.0
176
1
 40
1.0
176
1
  0
VISUALSTYLE
  5
147
102
{ACAD_REACTORS
330
145
102
}
330
145
100
AcDbVisualStyle
  2
FlatWithEdges
 70
1
177
3
291
1
 70
58
 90
2
176
1
 90
1
176
1
 90
1
176
1
 90
2
176
1
 40
0.6
176
1
 40
30.0
176
1
 62
7
176
1
 90
1
176
1
 90
0
176
1
 62
7
176
1
 62
257
176
1
 90
1
176
1
 90
1
176
1
 40
1.0
176
1
 90
0
176
1
 62
257
176
1
 40
1.0
176
1
 90
1
176
1
 90
6
176
1
 90
2
176
1
 62
7
176
1
 90
5
176
1
 90
0
176
1
 90
0
176
1
290
0
176
1
 90
13
176
1
 40
0.0
176
1
 90
0
176
1
290
0
176
1
290
1
176
1
290
1
176
1
290
0
176
1
290
0
176
1
290
0
176
1
290
0
176
1
290
0
176
1
290
0
176
1
 90
50
176
1
 40
0.0
176
1
 40
1.0
176
1
 90
0
176
1
 62
18
420
0
176
1
 90
50
176
1
 90
3
176
1
 62
5
420
255
176
1
290
0
176
1
 90
50
176
1
 90
50
176
1
 90
50
176
1
290
0
176
1
 90
50
176
1
 62
256
176
0
 40
1.0
176
0
 90
0
176
1
  1
strokes_ogs.tif
176
1
290
0
176
1
 40
1.0
176
1
 40
1.0
176
1
  0
VISUALSTYLE
  5
148
102
{ACAD_REACTORS
330
145
102
}
330
145
100
AcDbVisualStyle
  2
Gouraud
 70
2
177
3
291
1
 70
58
 90
2
176
1
 90
2
176
1
 90
1
176
1
 90
2
176
1
 40
0.6
176
1
 40
30.0
176
1
 62
7
176
1
 90
0
176
1
 90
0
176
1
 62
7
176
1
 62
257
176
1
 90
1
176
1
 90
1
176
1
 40
1.0
176
1
 90
0
176
1
 62
7
176
1
 40
1.0
176
1
 90
1
176
1
 90
6
176
1
 90
2
176
1
 62
7
176
1
 90
5
176
1
 90
0
176
1
 90
0
176
1
290
0
176
1
 90
13
176
1
 40
0.0
176
1
 90
0
176
1
290
0
176
1
290
1
176
1
290
1
176
1
290
0
176
1
290
0
176
1
290
0
176
1
290
0
176
1
290
0
176
1
290
0
176
1
 90
50
176
1
 40
0.0
176
1
 40
1.0
176
1
 90
0
176
1
 62
18
420
0
176
1
 90
50
176
1
 90
3
176
1
 62
5
420
255
176
1
290
0
176
1
 90
50
176
1
 90
50
176
1
 90
50
176
1
290
0
176
1
 90
50
176
1
 62
256
176
0
 40
1.0
176
0
 90
0
176
1
  1
strokes_ogs.tif
176
1
290
0
176
1
 40
1.0
176
1
 40
1.0
176
1
  0
VISUALSTYLE
  5
149
102
{ACAD_REACTORS
330
145
102
}
330
145
100
AcDbVisualStyle
  2
GouraudWithEdges
 70
3
177
3
291
1
 70
58
 90
2
176
1
 90
2
176
1
 90
1
176
1
 90
2
176
1
 40
0.6
176
1
 40
30.0
176
1
 62
7
176
1
 90
1
176
1
 90
0
176
1
 62
7
176
1
 62
257
176
1
 90
1
176
1
 90
1
176
1
 40
1.0
176
1
 90
0
176
1
 62
257
176
1
 40
1.0
176
1
 90
1
176
1
 90
6
176
1
 90
2
176
1
 62
7
176
1
 90
5
176
1
 90
0
176
1
 90
0
176
1
290
0
176
1
 90
13
176
1
 40
0.0
176
1
 90
0
176
1
290
0
176
1
290
1
176
1
290
1
176
1
290
0
176
1
290
0
176
1
290
0
176
1
290
0
176
1
290
0
176
1
290
0
176
1
 90
50
176
1
 40
0.0
176
1
 40
1.0
176
1
 90
0
176
1
 62
18
420
0
176
1
 90
50
176
1
 90
3
176
1
 62
5
420
255
176
1
290
0
176
1
 90
50
176
1
 90
50
176
1
 90
50
176
1
290
0
176
1
 90
50
176
1
 62
256
176
0
 40
1.0
176
0
 90
0
176
1
  1
strokes_ogs.tif
176
1
290
0
176
1
 40
1.0
176
1
 40
1.0
176
1
  0
VISUALSTYLE
  5
14D
102
{ACAD_REACTORS
330
145
102
}
330
145
100
AcDbVisualStyle
  2
Hidden
 70
6
177
3
291
0
 70
58
 90
1
176
1
 90
2
176
1
 90
2
176
1
 90
0
176
1
 40
0.6
176
1
 40
30.0
176
1
 62
7
176
1
 90
2
176
1
 90
2
176
1
 62
7
176
1
 62
257
176
1
 90
2
176
1
 90
1
176
1
 40
40.0
176
1
 90
0
176
1
 62
257
176
1
 40
1.0
176
1
 90
1
176
1
 90
6
176
1
 90
2
176
1
 62
7
176
1
 90
3
176
1
 90
0
176
1
 90
0
176
1
290
0
176
1
 90
1
176
1
 40
0.0
176
1
 90
0
176
1
290
0
176
1
290
1
176
1
290
1
176
1
290
0
176
1
290
0
176
1
290
0
176
1
290
0
176
1
290
0
176
1
290
0
176
1
 90
50
176
1
 40
0.0
176
1
 40
1.0
176
1
 90
0
176
1
 62
18
420
0
176
1
 90
50
176
1
 90
3
176
1
 62
5
420
255
176
1
290
0
176
1
 90
50
176
1
 90
50
176
1
 90
50
176
1
290
0
176
1
 90
50
176
1
 62
256
176
0
 40
1.0
176
0
 90
0
176
1
  1
strokes_ogs.tif
176
1
290
0
176
1
 40
1.0
176
1
 40
1.0
176
1
  0
VISUALSTYLE
  5
15B
102
{ACAD_REACTORS
330
145
102
}
330
145
100
AcDbVisualStyle
  2
JitterOff
 70
20
177
3
291
1
 70
58
 90
2
176
0
 90
2
176
0
 90
0
176
0
 90
0
176
0
 40
0.6
176
0
 40
30.0
176
0
 62
7
176
0
 90
1
176
0
 90
4
176
0
 62
7
176
0
 62
257
176
0
 90
1
176
0
 90
1
176
0
 40
1.0
176
0
 90
10
176
2
 62
7
176
0
 40
1.0
176
0
 90
1
176
0
 90
6
176
0
 90
2
176
0
 62
7
176
0
 90
5
176
0
 90
0
176
0
 90
0
176
0
290
0
176
0
 90
1
176
0
 40
0.0
176
0
 90
0
176
0
290
0
176
1
290
1
176
1
290
1
176
1
290
0
176
1
290
0
176
1
290
0
176
1
290
0
176
1
290
0
176
1
290
0
176
1
 90
50
176
1
 40
0.0
176
1
 40
1.0
176
1
 90
0
176
1
 62
18
420
0
176
1
 90
50
176
1
 90
3
176
1
 62
5
420
255
176
1
290
0
176
1
 90
50
176
1
 90
50
176
1
 90
50
176
1
290
0
176
1
 90
50
176
1
 62
256
176
0
 40
1.0
176
0
 90
0
176
1
  1
strokes_ogs.tif
176
1
290
0
176
1
 40
1.0
176
1
 40
1.0
176
1
  0
VISUALSTYLE
  5
153
102
{ACAD_REACTORS
330
145
102
}
330
145
100
AcDbVisualStyle
  2
Linepattern
 70
14
177
3
291
1
 70
58
 90
2
176
1
 90
2
176
1
 90
0
176
1
 90
0
176
1
 40
0.6
176
1
 40
30.0
176
1
 62
7
176
1
 90
1
176
1
 90
4
176
1
 62
7
176
1
 62
257
176
1
 90
7
176
1
 90
7
176
1
 40
1.0
176
1
 90
8
176
1
 62
7
176
1
 40
1.0
176
1
 90
1
176
1
 90
6
176
1
 90
2
176
1
 62
7
176
1
 90
5
176
1
 90
0
176
1
 90
0
176
1
290
0
176
1
 90
1
176
1
 40
0.0
176
1
 90
0
176
1
290
0
176
1
290
1
176
1
290
1
176
1
290
0
176
1
290
0
176
1
290
0
176
1
290
0
176
1
290
0
176
1
290
0
176
1
 90
50
176
1
 40
0.0
176
1
 40
1.0
176
1
 90
0
176
1
 62
18
420
0
176
1
 90
50
176
1
 90
3
176
1
 62
5
420
255
176
1
290
0
176
1
 90
50
176
1
 90
50
176
1
 90
50
176
1
290
0
176
1
 90
50
176
1
 62
256
176
0
 40
1.0
176
0
 90
0
176
1
  1
strokes_ogs.tif
176
1
290
0
176
1
 40
1.0
176
1
 40
1.0
176
1
  0
VISUALSTYLE
  5
15C
102
{ACAD_REACTORS
330
145
102
}
330
145
100
AcDbVisualStyle
  2
OverhangOff
 70
21
177
3
291
1
 70
58
 90
2
176
0
 90
2
176
0
 90
0
176
0
 90
0
176
0
 40
0.6
176
0
 40
30.0
176
0
 62
7
176
0
 90
1
176
0
 90
4
176
0
 62
7
176
0
 62
257
176
0
 90
1
176
0
 90
1
176
0
 40
1.0
176
0
 90
9
176
2
 62
7
176
0
 40
1.0
176
0
 90
1
176
0
 90
6
176
0
 90
2
176
0
 62
7
176
0
 90
5
176
0
 90
0
176
0
 90
0
176
0
290
0
176
0
 90
1
176
0
 40
0.0
176
0
 90
0
176
0
290
0
176
1
290
1
176
1
290
1
176
1
290
0
176
1
290
0
176
1
290
0
176
1
290
0
176
1
290
0
176
1
290
0
176
1
 90
50
176
1
 40
0.0
176
1
 40
1.0
176
1
 90
0
176
1
 62
18
420
0
176
1
 90
50
176
1
 90
3
176
1
 62
5
420
255
176
1
290
0
176
1
 90
50
176
1
 90
50
176
1
 90
50
176
1
290
0
176
1
 90
50
176
1
 62
256
176
0
 40
1.0
176
0
 90
0
176
1
  1
strokes_ogs.tif
176
1
290
0
176
1
 40
1.0
176
1
 40
1.0
176
1
  0
VISUALSTYLE
  5
14F
102
{ACAD_REACTORS
330
145
102
}
330
145
100
AcDbVisualStyle
  2
Realistic
 70
8
177
3
291
0
 70
58
 90
2
176
1
 90
3
176
1
 90
0
176
1
 90
2
176
1
 40
0.6
176
1
 40
30.0
176
1
 62
7
176
1
 90
0
176
1
 90
0
176
1
 62
7
176
1
 62
257
176
1
 90
1
176
1
 90
1
176
1
 40
1.0
176
1
 90
8
176
1
 62
257
176
1
 40
1.0
176
1
 90
1
176
1
 90
6
176
1
 90
2
176
1
 62
7
176
1
 90
3
176
1
 90
0
176
1
 90
0
176
1
290
0
176
1
 90
13
176
1
 40
0.0
176
1
 90
0
176
1
290
0
176
1
290
1
176
1
290
1
176
1
290
0
176
1
290
0
176
1
290
0
176
1
290
0
176
1
290
0
176
1
290
0
176
1
 90
50
176
1
 40
0.0
176
1
 40
1.0
176
1
 90
0
176
1
 62
18
420
0
176
1
 90
50
176
1
 90
3
176
1
 62
5
420
255
176
1
290
0
176
1
 90
50
176
1
 90
50
176
1
 90
50
176
1
290
0
176
1
 90
50
176
1
 62
256
176
0
 40
1.0
176
0
 90
0
176
1
  1
strokes_ogs.tif
176
1
290
0
176
1
 40
1.0
176
1
 40
1.0
176
1
  0
VISUALSTYLE
  5
15A
102
{ACAD_REACTORS
330
145
102
}
330
145
100
AcDbVisualStyle
  2
Shaded
 70
27
177
3
291
0
 70
58
 90
2
176
1
 90
2
176
1
 90
1
176
1
 90
2
176
1
 40
0.6
176
1
 40
30.0
176
1
 62
7
176
1
 90
0
176
1
 90
4
176
1
 62
7
176
1
 62
257
176
1
 90
1
176
1
 90
1
176
1
 40
1.0
176
1
 90
8
176
1
 62
257
176
1
 40
1.0
176
1
 90
1
176
1
 90
6
176
1
 90
2
176
1
 62
8
176
1
 90
3
176
1
 90
0
176
1
 90
0
176
1
290
0
176
1
 90
5
176
1
 40
0.0
176
1
 90
0
176
1
290
0
176
1
290
1
176
1
290
1
176
1
290
0
176
1
290
0
176
1
290
0
176
1
290
0
176
1
290
0
176
1
290
0
176
1
 90
50
176
1
 40
0.0
176
1
 40
1.0
176
1
 90
0
176
1
 62
18
420
0
176
1
 90
50
176
1
 90
3
176
1
 62
5
420
255
176
1
290
0
176
1
 90
50
176
1
 90
50
176
1
 90
50
176
1
290
0
176
1
 90
50
176
1
 62
256
176
0
 40
1.0
176
0
 90
0
176
1
  1
strokes_ogs.tif
176
1
290
0
176
1
 40
1.0
176
1
 40
1.0
176
1
  0
VISUALSTYLE
  5
159
102
{ACAD_REACTORS
330
145
102
}
330
145
100
AcDbVisualStyle
  2
Shaded with edges
 70
26
177
3
291
0
 70
58
 90
2
176
1
 90
2
176
1
 90
1
176
1
 90
2
176
1
 40
0.6
176
1
 40
30.0
176
1
 62
7
176
1
 90
1
176
1
 90
10
176
1
 62
7
176
1
 62
257
176
1
 90
2
176
1
 90
1
176
1
 40
1.0
176
1
 90
8
176
1
 62
257
176
1
 40
1.0
176
1
 90
1
176
1
 90
6
176
1
 90
2
176
1
 62
7
176
1
 90
3
176
1
 90
0
176
1
 90
0
176
1
290
0
176
1
 90
5
176
1
 40
0.0
176
1
 90
0
176
1
290
0
176
1
290
1
176
1
290
1
176
1
290
0
176
1
290
0
176
1
290
0
176
1
290
0
176
1
290
0
176
1
290
0
176
1
 90
50
176
1
 40
0.0
176
1
 40
1.0
176
1
 90
0
176
1
 62
18
420
0
176
1
 90
50
176
1
 90
3
176
1
 62
5
420
255
176
1
290
0
176
1
 90
50
176
1
 90
50
176
1
 90
50
176
1
290
0
176
1
 90
50
176
1
 62
256
176
0
 40
1.0
176
0
 90
0
176
1
  1
strokes_ogs.tif
176
1
290
0
176
1
 40
1.0
176
1
 40
1.0
176
1
  0
VISUALSTYLE
  5
156
102
{ACAD_REACTORS
330
145
102
}
330
145
100
AcDbVisualStyle
  2
Shades of Gray
 70
23
177
3
291
0
 70
58
 90
2
176
1
 90
2
176
1
 90
3
176
1
 90
0
176
1
 40
0.6
176
1
 40
30.0
176
1
 62
7
176
1
 90
2
176
1
 90
2
176
1
 62
7
176
1
 62
7
176
1
 90
1
176
1
 90
1
176
1
 40
40.0
176
1
 90
8
176
1
 62
7
176
1
 40
1.0
176
1
 90
1
176
1
 90
6
176
1
 90
2
176
1
 62
7
176
1
 90
3
176
1
 90
0
176
1
 90
0
176
1
290
0
176
1
 90
1
176
1
 40
0.0
176
1
 90
0
176
1
290
0
176
1
290
1
176
1
290
1
176
1
290
0
176
1
290
0
176
1
290
0
176
1
290
0
176
1
290
0
176
1
290
0
176
1
 90
50
176
1
 40
0.0
176
1
 40
1.0
176
1
 90
0
176
1
 62
18
420
0
176
1
 90
50
176
1
 90
3
176
1
 62
5
420
255
176
1
290
0
176
1
 90
50
176
1
 90
50
176
1
 90
50
176
1
290
0
176
1
 90
50
176
1
 62
256
176
0
 40
1.0
176
0
 90
0
176
1
  1
strokes_ogs.tif
176
1
290
0
176
1
 40
1.0
176
1
 40
1.0
176
1
  0
VISUALSTYLE
  5
157
102
{ACAD_REACTORS
330
145
102
}
330
145
100
AcDbVisualStyle
  2
Sketchy
 70
24
177
3
291
0
 70
58
 90
1
176
1
 90
2
176
1
 90
2
176
1
 90
0
176
1
 40
0.6
176
1
 40
30.0
176
1
 62
7
176
1
 90
2
176
1
 90
2
176
1
 62
7
176
1
 62
7
176
1
 90
1
176
1
 90
1
176
1
 40
40.0
176
1
 90
11
176
1
 62
7
176
1
 40
1.0
176
1
 90
1
176
1
 90
6
176
1
 90
2
176
1
 62
7
176
1
 90
6
176
1
 90
0
176
1
 90
0
176
1
290
0
176
1
 90
1
176
1
 40
0.0
176
1
 90
0
176
1
290
0
176
1
290
1
176
1
290
1
176
1
290
0
176
1
290
0
176
1
290
0
176
1
290
0
176
1
290
0
176
1
290
0
176
1
 90
50
176
1
 40
0.0
176
1
 40
1.0
176
1
 90
0
176
1
 62
18
420
0
176
1
 90
50
176
1
 90
3
176
1
 62
5
420
255
176
1
290
0
176
1
 90
50
176
1
 90
50
176
1
 90
50
176
1
290
0
176
1
 90
50
176
1
 62
256
176
0
 40
1.0
176
0
 90
0
176
1
  1
strokes_ogs.tif
176
1
290
0
176
1
 40
1.0
176
1
 40
1.0
176
1
  0
VISUALSTYLE
  5
152
102
{ACAD_REACTORS
330
145
102
}
330
145
100
AcDbVisualStyle
  2
Thicken
 70
13
177
3
291
1
 70
58
 90
2
176
1
 90
2
176
1
 90
0
176
1
 90
0
176
1
 40
0.6
176
1
 40
30.0
176
1
 62
7
176
1
 90
1
176
1
 90
4
176
1
 62
7
176
1
 62
257
176
1
 90
1
176
1
 90
1
176
1
 40
1.0
176
1
 90
12
176
1
 62
7
176
1
 40
1.0
176
1
 90
1
176
1
 90
6
176
1
 90
2
176
1
 62
7
176
1
 90
5
176
1
 90
0
176
1
 90
0
176
1
290
0
176
1
 90
1
176
1
 40
0.0
176
1
 90
0
176
1
290
0
176
1
290
1
176
1
290
1
176
1
290
0
176
1
290
0
176
1
290
0
176
1
290
0
176
1
290
0
176
1
290
0
176
1
 90
50
176
1
 40
0.0
176
1
 40
1.0
176
1
 90
0
176
1
 62
18
420
0
176
1
 90
50
176
1
 90
3
176
1
 62
5
420
255
176
1
290
0
176
1
 90
50
176
1
 90
50
176
1
 90
50
176
1
290
0
176
1
 90
50
176
1
 62
256
176
0
 40
1.0
176
0
 90
0
176
1
  1
strokes_ogs.tif
176
1
290
0
176
1
 40
1.0
176
1
 40
1.0
176
1
  0
VISUALSTYLE
  5
14C
102
{ACAD_REACTORS
330
145
102
}
330
145
100
AcDbVisualStyle
  2
Wireframe
 70
5
177
3
291
0
 70
58
 90
0
176
1
 90
2
176
1
 90
0
176
1
 90
0
176
1
 40
0.6
176
1
 40
30.0
176
1
 62
7
176
1
 90
1
176
1
 90
4
176
1
 62
7
176
1
 62
257
176
1
 90
1
176
1
 90
1
176
1
 40
1.0
176
1
 90
0
176
1
 62
257
176
1
 40
1.0
176
1
 90
1
176
1
 90
6
176
1
 90
2
176
1
 62
7
176
1
 90
3
176
1
 90
0
176
1
 90
0
176
1
290
0
176
1
 90
1
176
1
 40
0.0
176
1
 90
0
176
1
290
0
176
1
290
1
176
1
290
1
176
1
290
0
176
1
290
0
176
1
290
0
176
1
290
0
176
1
290
0
176
1
290
0
176
1
 90
50
176
1
 40
0.0
176
1
 40
1.0
176
1
 90
0
176
1
 62
18
420
0
176
1
 90
50
176
1
 90
3
176
1
 62
5
420
255
176
1
290
0
176
1
 90
50
176
1
 90
50
176
1
 90
50
176
1
290
0
176
1
 90
50
176
1
 62
256
176
0
 40
1.0
176
0
 90
0
176
1
  1
strokes_ogs.tif
176
1
290
0
176
1
 40
1.0
176
1
 40
1.0
176
1
  0
VISUALSTYLE
  5
158
102
{ACAD_REACTORS
330
145
102
}
330
145
100
AcDbVisualStyle
  2
X-Ray
 70
25
177
3
291
0
 70
58
 90
2
176
1
 90
2
176
1
 90
1
176
1
 90
1
176
1
 40
0.5
176
1
 40
30.0
176
1
 62
7
176
1
 90
1
176
1
 90
0
176
1
 62
7
176
1
 62
257
176
1
 90
1
176
1
 90
1
176
1
 40
1.0
176
1
 90
8
176
1
 62
7
176
1
 40
1.0
176
1
 90
1
176
1
 90
6
176
1
 90
2
176
1
 62
7
176
1
 90
3
176
1
 90
0
176
1
 90
0
176
1
290
0
176
1
 90
13
176
1
 40
0.0
176
1
 90
0
176
1
290
0
176
1
290
1
176
1
290
1
176
1
290
0
176
1
290
0
176
1
290
0
176
1
290
0
176
1
290
0
176
1
290
0
176
1
 90
50
176
1
 40
0.0
176
1
 40
1.0
176
1
 90
0
176
1
 62
18
420
0
176
1
 90
50
176
1
 90
3
176
1
 62
5
420
255
176
1
290
0
176
1
 90
50
176
1
 90
50
176
1
 90
50
176
1
290
0
176
1
 90
50
176
1
 62
256
176
0
 40
1.0
176
0
 90
0
176
1
  1
strokes_ogs.tif
176
1
290
0
176
1
 40
1.0
176
1
 40
1.0
176
1
  0
DICTIONARYVAR
  5
924
102
{ACAD_REACTORS
330
59
102
}
330
59
100
DictionaryVariables
280
0
  1
1:1
  0
DICTIONARYVAR
  5
E9
102
{ACAD_REACTORS
330
59
102
}
330
59
100
DictionaryVariables
280
0
  1
STANDARD
  0
DICTIONARYVAR
  5
98
102
{ACAD_REACTORS
330
59
102
}
330
59
100
DictionaryVariables
280
0
  1
STANDARD
  0
DICTIONARYVAR
  5
1EE
102
{ACAD_REACTORS
330
59
102
}
330
59
100
DictionaryVariables
280
0
  1
Metric50
  0
DICTIONARYVAR
  5
1EF
102
{ACAD_REACTORS
330
59
102
}
330
59
100
DictionaryVariables
280
0
  1
Metric50
  0
DICTIONARYVAR
  5
22F
102
{ACAD_REACTORS
330
59
102
}
330
59
100
DictionaryVariables
280
0
  1
1
  0
DICTIONARYVAR
  5
43
102
{ACAD_REACTORS
330
59
102
}
330
59
100
DictionaryVariables
280
0
  1
2
  0
DICTIONARYVAR
  5
22E
102
{ACAD_REACTORS
330
59
102
}
330
59
100
DictionaryVariables
280
0
  1
1
  0
DICTIONARYVAR
  5
5E
102
{ACAD_REACTORS
330
59
102
}
330
59
100
DictionaryVariables
280
0
  1
1
  0
DICTIONARYVAR
  5
B15
102
{ACAD_REACTORS
330
59
102
}
330
59
100
DictionaryVariables
280
0
  1
6
  0
DICTIONARYVAR
  5
921
102
{ACAD_REACTORS
330
59
102
}
330
59
100
DictionaryVariables
280
0
  1
1
  0
DICTIONARYVAR
  5
B6
102
{ACAD_REACTORS
330
59
102
}
330
59
100
DictionaryVariables
280
0
  1

  0
DICTIONARY
  5
22B
330
93
100
AcDbDictionary
280
1
281
1
  3
ACAD_ROUNDTRIP_2008_TABLESTYLE_CELLSTYLEMAP
360
2062F5
  0
CELLSTYLEMAP
  5
2062F5
102
{ACAD_REACTORS
330
22B
102
}
330
22B
100
AcDbCellStyleMap
 90
3
300
CELLSTYLE
  1
TABLEFORMAT_BEGIN
 90
5
170
1
 91
0
 92
32768
 62
257
 93
1
300
CONTENTFORMAT
  1
CONTENTFORMAT_BEGIN
 90
0
 91
0
 92
512
 93
0
300

 40
0.0
140
1.0
 94
5
 62
0
340
11
144
6.0
309
CONTENTFORMAT_END
171
1
301
MARGIN
  1
CELLMARGIN_BEGIN
 40
1.5
 40
1.5
 40
0.06
 40
0.06
 40
0.18
 40
0.18
309
CELLMARGIN_END
 94
6
 95
1
302
GRIDFORMAT
  1
GRIDFORMAT_BEGIN
 90
0
 91
1
 62
0
 92
-2
340
0
 93
0
 40
0.045
309
GRIDFORMAT_END
 95
2
302
GRIDFORMAT
  1
GRIDFORMAT_BEGIN
 90
0
 91
1
 62
0
 92
-2
340
0
 93
0
 40
0.045
309
GRIDFORMAT_END
 95
4
302
GRIDFORMAT
  1
GRIDFORMAT_BEGIN
 90
0
 91
1
 62
0
 92
-2
340
0
 93
0
 40
0.045
309
GRIDFORMAT_END
 95
8
302
GRIDFORMAT
  1
GRIDFORMAT_BEGIN
 90
0
 91
1
 62
0
 92
-2
340
0
 93
0
 40
0.045
309
GRIDFORMAT_END
 95
16
302
GRIDFORMAT
  1
GRIDFORMAT_BEGIN
 90
0
 91
1
 62
0
 92
-2
340
0
 93
0
 40
0.045
309
GRIDFORMAT_END
 95
32
302
GRIDFORMAT
  1
GRIDFORMAT_BEGIN
 90
0
 91
1
 62
0
 92
-2
340
0
 93
0
 40
0.045
309
GRIDFORMAT_END
309
TABLEFORMAT_END
  1
CELLSTYLE_BEGIN
 90
1
 91
1
300
_TITLE
309
CELLSTYLE_END
300
CELLSTYLE
  1
TABLEFORMAT_BEGIN
 90
5
170
1
 91
0
 92
0
 62
257
 93
1
300
CONTENTFORMAT
  1
CONTENTFORMAT_BEGIN
 90
0
 91
0
 92
512
 93
0
300

 40
0.0
140
1.0
 94
5
 62
0
340
11
144
4.5
309
CONTENTFORMAT_END
171
1
301
MARGIN
  1
CELLMARGIN_BEGIN
 40
1.5
 40
1.5
 40
0.06
 40
0.06
 40
0.18
 40
0.18
309
CELLMARGIN_END
 94
6
 95
1
302
GRIDFORMAT
  1
GRIDFORMAT_BEGIN
 90
0
 91
1
 62
0
 92
-2
340
0
 93
0
 40
0.045
309
GRIDFORMAT_END
 95
2
302
GRIDFORMAT
  1
GRIDFORMAT_BEGIN
 90
0
 91
1
 62
0
 92
-2
340
0
 93
0
 40
0.045
309
GRIDFORMAT_END
 95
4
302
GRIDFORMAT
  1
GRIDFORMAT_BEGIN
 90
0
 91
1
 62
0
 92
-2
340
0
 93
0
 40
0.045
309
GRIDFORMAT_END
 95
8
302
GRIDFORMAT
  1
GRIDFORMAT_BEGIN
 90
0
 91
1
 62
0
 92
-2
340
0
 93
0
 40
0.045
309
GRIDFORMAT_END
 95
16
302
GRIDFORMAT
  1
GRIDFORMAT_BEGIN
 90
0
 91
1
 62
0
 92
-2
340
0
 93
0
 40
0.045
309
GRIDFORMAT_END
 95
32
302
GRIDFORMAT
  1
GRIDFORMAT_BEGIN
 90
0
 91
1
 62
0
 92
-2
340
0
 93
0
 40
0.045
309
GRIDFORMAT_END
309
TABLEFORMAT_END
  1
CELLSTYLE_BEGIN
 90
2
 91
1
300
_HEADER
309
CELLSTYLE_END
300
CELLSTYLE
  1
TABLEFORMAT_BEGIN
 90
5
170
1
 91
0
 92
0
 62
257
 93
1
300
CONTENTFORMAT
  1
CONTENTFORMAT_BEGIN
 90
0
 91
0
 92
512
 93
0
300

 40
0.0
140
1.0
 94
2
 62
0
340
11
144
4.5
309
CONTENTFORMAT_END
171
1
301
MARGIN
  1
CELLMARGIN_BEGIN
 40
1.5
 40
1.5
 40
0.06
 40
0.06
 40
0.18
 40
0.18
309
CELLMARGIN_END
 94
6
 95
1
302
GRIDFORMAT
  1
GRIDFORMAT_BEGIN
 90
0
 91
1
 62
0
 92
-2
340
0
 93
0
 40
0.045
309
GRIDFORMAT_END
 95
2
302
GRIDFORMAT
  1
GRIDFORMAT_BEGIN
 90
0
 91
1
 62
0
 92
-2
340
0
 93
0
 40
0.045
309
GRIDFORMAT_END
 95
4
302
GRIDFORMAT
  1
GRIDFORMAT_BEGIN
 90
0
 91
1
 62
0
 92
-2
340
0
 93
0
 40
0.045
309
GRIDFORMAT_END
 95
8
302
GRIDFORMAT
  1
GRIDFORMAT_BEGIN
 90
0
 91
1
 62
0
 92
-2
340
0
 93
0
 40
0.045
309
GRIDFORMAT_END
 95
16
302
GRIDFORMAT
  1
GRIDFORMAT_BEGIN
 90
0
 91
1
 62
0
 92
-2
340
0
 93
0
 40
0.045
309
GRIDFORMAT_END
 95
32
302
GRIDFORMAT
  1
GRIDFORMAT_BEGIN
 90
0
 91
1
 62
0
 92
-2
340
0
 93
0
 40
0.045
309
GRIDFORMAT_END
309
TABLEFORMAT_END
  1
CELLSTYLE_BEGIN
 90
3
 91
2
300
_DATA
309
CELLSTYLE_END
  0
DICTIONARY
  5
206332
330
C
100
AcDbDictionary
280
1
281
1
  3
WRITTEN_BY_EZDXF
350
206333
  0
DICTIONARYVAR
  5
206333
330
206332
100
DictionaryVariables
280
0
  1
1.4.3 @ 2026-03-18T10:40:40.347737+00:00
  0
ENDSEC
  0
EOF
